<svg width="24" height="25" viewBox="0 0 24 25" fill="none" xmlns="http://www.w3.org/2000/svg">
<path d="M6.41132 1.29796C3.318 1.29796 0.79834 3.81797 0.79834 6.91129V18.0887C0.79834 21.182 3.31764 23.702 6.41132 23.702H17.5887C20.6821 23.702 23.2021 21.182 23.2021 18.0887V6.91094C23.2021 3.81762 20.6821 1.29761 17.5887 1.29761L6.41132 1.29796ZM6.41132 3.17344H17.5887C19.6758 3.17344 21.3269 4.82427 21.3269 6.91129V18.0887C21.3269 20.1757 19.6758 21.8262 17.5887 21.8262H6.41132C4.3243 21.8262 2.67347 20.1757 2.67347 18.0887V6.91094C2.67347 4.82392 4.3243 3.17344 6.41132 3.17344ZM12.2206 6.0322C11.9721 6.03574 11.7351 6.13784 11.5618 6.31604C11.3885 6.49425 11.2931 6.73397 11.2965 6.98251V11.501H6.77876C6.65352 11.4975 6.52885 11.5192 6.41214 11.5648C6.29542 11.6103 6.18901 11.6788 6.09921 11.7662C6.0094 11.8535 5.93802 11.958 5.88928 12.0734C5.84054 12.1889 5.81543 12.3129 5.81543 12.4382C5.81543 12.5635 5.84054 12.6875 5.88928 12.8029C5.93802 12.9183 6.0094 13.0228 6.09921 13.1102C6.18901 13.1976 6.29542 13.266 6.41214 13.3116C6.52885 13.3571 6.65352 13.3788 6.77876 13.3754H11.2965V17.8931C11.2941 18.0178 11.3165 18.1417 11.3626 18.2576C11.4086 18.3735 11.4773 18.479 11.5646 18.5681C11.6519 18.6571 11.7561 18.7278 11.8711 18.7761C11.9861 18.8244 12.1095 18.8493 12.2342 18.8493C12.3589 18.8493 12.4824 18.8244 12.5974 18.7761C12.7124 18.7278 12.8165 18.6571 12.9039 18.5681C12.9912 18.479 13.0599 18.3735 13.1059 18.2576C13.1519 18.1417 13.1744 18.0178 13.172 17.8931V13.3754H17.6897C17.815 13.3788 17.9396 13.3571 18.0564 13.3116C18.1731 13.266 18.2795 13.1976 18.3693 13.1102C18.4591 13.0228 18.5305 12.9183 18.5792 12.8029C18.6279 12.6875 18.6531 12.5635 18.6531 12.4382C18.6531 12.3129 18.6279 12.1889 18.5792 12.0734C18.5305 11.958 18.4591 11.8535 18.3693 11.7662C18.2795 11.6788 18.1731 11.6103 18.0564 11.5648C17.9396 11.5192 17.815 11.4975 17.6897 11.501H13.172V6.98251C13.1737 6.85715 13.1503 6.73272 13.103 6.61657C13.0558 6.50043 12.9858 6.39493 12.8971 6.30633C12.8084 6.21772 12.7028 6.14781 12.5866 6.10073C12.4704 6.05364 12.346 6.03034 12.2206 6.0322Z" fill="#4D7C0F"/>
</svg>
