<svg width="25" height="25" viewBox="0 0 25 25" fill="none" xmlns="http://www.w3.org/2000/svg">
<path d="M21.7722 16.9802C21.2518 16.084 20.4784 13.548 20.4784 10.2358C20.4784 8.24672 19.6882 6.33906 18.2817 4.93254C16.8752 3.52602 14.9675 2.73584 12.9784 2.73584C10.9893 2.73584 9.08163 3.52602 7.67511 4.93254C6.26858 6.33906 5.47841 8.24672 5.47841 10.2358C5.47841 13.549 4.70403 16.084 4.18372 16.9802C4.05085 17.2081 3.98041 17.4669 3.9795 17.7307C3.9786 17.9945 4.04726 18.2538 4.17856 18.4826C4.30986 18.7113 4.49917 18.9014 4.72738 19.0337C4.95559 19.1659 5.21464 19.2356 5.47841 19.2358H9.30434C9.47738 20.0826 9.93755 20.8435 10.607 21.39C11.2765 21.9365 12.1142 22.235 12.9784 22.235C13.8426 22.235 14.6803 21.9365 15.3498 21.39C16.0193 20.8435 16.4794 20.0826 16.6525 19.2358H20.4784C20.7421 19.2355 21.001 19.1656 21.2291 19.0333C21.4572 18.901 21.6464 18.7109 21.7775 18.4821C21.9087 18.2534 21.9773 17.9941 21.9764 17.7305C21.9754 17.4668 21.905 17.208 21.7722 16.9802ZM12.9784 20.7358C12.5132 20.7357 12.0595 20.5914 11.6798 20.3228C11.3 20.0541 11.0128 19.6744 10.8578 19.2358H15.099C14.944 19.6744 14.6568 20.0541 14.277 20.3228C13.8973 20.5914 13.4436 20.7357 12.9784 20.7358ZM5.47841 17.7358C6.20028 16.4946 6.97841 13.6183 6.97841 10.2358C6.97841 8.64454 7.61055 7.11842 8.73577 5.9932C9.86098 4.86798 11.3871 4.23584 12.9784 4.23584C14.5697 4.23584 16.0958 4.86798 17.221 5.9932C18.3463 7.11842 18.9784 8.64454 18.9784 10.2358C18.9784 13.6155 19.7547 16.4918 20.4784 17.7358H5.47841Z" fill="rgba(0,0,0,0.8)"/>
</svg>
