<svg width="25" height="25" viewBox="0 0 25 25" fill="none" xmlns="http://www.w3.org/2000/svg">
<path d="M6.03341 3.73137C5.96754 3.65713 5.8876 3.5967 5.79821 3.55358C5.70881 3.51046 5.61175 3.48551 5.51265 3.48018C5.41354 3.47485 5.31437 3.48924 5.22086 3.52252C5.12736 3.5558 5.0414 3.60731 4.96795 3.67406C4.8945 3.7408 4.83503 3.82147 4.79298 3.91137C4.75094 4.00127 4.72715 4.09863 4.72301 4.19779C4.71887 4.29695 4.73445 4.39595 4.76885 4.48904C4.80325 4.58214 4.85578 4.66748 4.92341 4.74013L6.49278 6.467C5.82628 7.611 5.47617 8.91175 5.47841 10.2357C5.47841 13.5489 4.70403 16.0839 4.18372 16.9801C4.05085 17.208 3.98041 17.4668 3.9795 17.7306C3.9786 17.9944 4.04726 18.2537 4.17856 18.4825C4.30986 18.7112 4.49917 18.9013 4.72738 19.0336C4.95559 19.1658 5.21464 19.2356 5.47841 19.2357H9.30341C9.47554 20.0835 9.93545 20.8456 10.6052 21.393C11.275 21.9405 12.1134 22.2395 12.9784 22.2395C13.8434 22.2395 14.6818 21.9405 15.3516 21.393C16.0214 20.8456 16.4813 20.0835 16.6534 19.2357H18.1009L19.9234 21.2401C19.9893 21.3144 20.0692 21.3748 20.1586 21.4179C20.248 21.461 20.3451 21.486 20.4442 21.4913C20.5433 21.4967 20.6424 21.4823 20.7359 21.449C20.8294 21.4157 20.9154 21.3642 20.9889 21.2974C21.0623 21.2307 21.1218 21.15 21.1638 21.0601C21.2059 20.9702 21.2297 20.8729 21.2338 20.7737C21.2379 20.6746 21.2224 20.5756 21.188 20.4825C21.1536 20.3894 21.101 20.304 21.0334 20.2314L6.03341 3.73137ZM12.9784 20.7357C12.5132 20.7356 12.0595 20.5913 11.6798 20.3227C11.3 20.054 11.0128 19.6743 10.8578 19.2357H15.099C14.944 19.6743 14.6568 20.054 14.277 20.3227C13.8973 20.5913 13.4436 20.7356 12.9784 20.7357ZM5.47841 17.7357C6.20028 16.4945 6.97841 13.6182 6.97841 10.2357C6.97709 9.3395 7.17768 8.45447 7.56528 7.64637L16.7368 17.7357H5.47841ZM21.0409 17.2923C20.9533 17.3263 20.8602 17.3438 20.7662 17.3439C20.6156 17.3437 20.4685 17.2982 20.3441 17.2133C20.2196 17.1283 20.1237 17.0079 20.0687 16.8676C19.3862 15.1286 18.9784 12.6498 18.9784 10.2357C18.9787 9.18632 18.7038 8.15517 18.181 7.24521C17.6582 6.33525 16.906 5.57832 15.9992 5.04996C15.0925 4.5216 14.0631 4.2403 13.0137 4.23414C11.9643 4.22797 10.9316 4.49715 10.0187 5.01481C9.84611 5.10834 9.64371 5.13046 9.45497 5.07642C9.26623 5.02238 9.10621 4.89649 9.00926 4.72578C8.9123 4.55507 8.88615 4.35315 8.93642 4.16337C8.98668 3.97359 9.10935 3.81109 9.27809 3.71075C10.4191 3.06355 11.7099 2.72693 13.0217 2.7345C14.3335 2.74207 15.6203 3.09356 16.7538 3.75389C17.8872 4.41422 18.8277 5.36029 19.4813 6.49767C20.1348 7.63505 20.4786 8.92396 20.4784 10.2357C20.4784 13.5498 21.2331 15.7286 21.4647 16.3183C21.5374 16.5034 21.5336 16.7098 21.4541 16.8921C21.3746 17.0744 21.226 17.2177 21.0409 17.2904V17.2923Z" fill="#A3A3A3"/>
</svg>
