<svg width="12" height="14" viewBox="0 0 12 14" fill="none" xmlns="http://www.w3.org/2000/svg">
<path d="M9.77647 1.64057C8.69396 0.584116 7.23988 -0.00501038 5.72729 3.21049e-05C4.21471 -0.00501038 2.76063 0.584116 1.67812 1.64057C1.14762 2.15462 0.725736 2.76996 0.437482 3.45009C0.149227 4.13023 0.000471547 4.86132 3.48187e-05 5.60002C-0.00527259 7.16274 0.596361 8.66649 1.67812 9.79428L5.72729 14L9.77647 9.79428C10.8582 8.66649 11.4599 7.16274 11.4546 5.60002C11.4541 4.86132 11.3054 4.13023 11.0171 3.45009C10.7289 2.76996 10.307 2.15462 9.77647 1.64057ZM5.72729 7.63638C4.6703 7.63638 3.81821 6.78365 3.81821 5.72666C3.81787 5.47589 3.86703 5.22752 3.96286 4.99578C4.05869 4.76404 4.19931 4.5535 4.37666 4.3762C4.55401 4.19891 4.7646 4.05836 4.99637 3.96261C5.22814 3.86686 5.47653 3.81779 5.72729 3.81821C6.78429 3.81821 7.63638 4.67093 7.63638 5.72666C7.6368 5.97751 7.58771 6.22598 7.49193 6.45782C7.39614 6.68967 7.25555 6.90033 7.0782 7.07774C6.90085 7.25515 6.69023 7.39582 6.45841 7.49168C6.2266 7.58754 5.97815 7.63671 5.72729 7.63638Z" fill="#59574E"/>
</svg>
