<svg width="17" height="16" viewBox="0 0 17 16" fill="none" xmlns="http://www.w3.org/2000/svg">
<path d="M14 3.50006H11.5V3.00006C11.5 2.60224 11.342 2.22071 11.0607 1.9394C10.7794 1.6581 10.3978 1.50006 10 1.50006H7C6.60218 1.50006 6.22064 1.6581 5.93934 1.9394C5.65804 2.22071 5.5 2.60224 5.5 3.00006V3.50006H3C2.73478 3.50006 2.48043 3.60542 2.29289 3.79295C2.10536 3.98049 2 4.23484 2 4.50006V12.5001C2 12.7653 2.10536 13.0196 2.29289 13.2072C2.48043 13.3947 2.73478 13.5001 3 13.5001H14C14.2652 13.5001 14.5196 13.3947 14.7071 13.2072C14.8946 13.0196 15 12.7653 15 12.5001V4.50006C15 4.23484 14.8946 3.98049 14.7071 3.79295C14.5196 3.60542 14.2652 3.50006 14 3.50006ZM6.5 3.00006C6.5 2.86745 6.55268 2.74028 6.64645 2.64651C6.74021 2.55274 6.86739 2.50006 7 2.50006H10C10.1326 2.50006 10.2598 2.55274 10.3536 2.64651C10.4473 2.74028 10.5 2.86745 10.5 3.00006V3.50006H6.5V3.00006ZM14 4.50006V7.10069C12.3124 8.0193 10.4214 8.5004 8.5 8.50006C6.57863 8.50041 4.68776 8.01953 3 7.10131V4.50006H14ZM14 12.5001H3V8.22756C4.71245 9.06518 6.59367 9.50043 8.5 9.50006C10.4064 9.5001 12.2876 9.06465 14 8.22694V12.5001ZM7 7.00006C7 6.86745 7.05268 6.74028 7.14645 6.64651C7.24021 6.55274 7.36739 6.50006 7.5 6.50006H9.5C9.63261 6.50006 9.75979 6.55274 9.85355 6.64651C9.94732 6.74028 10 6.86745 10 7.00006C10 7.13267 9.94732 7.25985 9.85355 7.35361C9.75979 7.44738 9.63261 7.50006 9.5 7.50006H7.5C7.36739 7.50006 7.24021 7.44738 7.14645 7.35361C7.05268 7.25985 7 7.13267 7 7.00006Z" fill="#111C18"/>
</svg>
