<svg width="17" height="16" viewBox="0 0 17 16" fill="none" xmlns="http://www.w3.org/2000/svg">
<path d="M15.5 13.0001H14.5V6.00007C14.5 5.73485 14.3946 5.4805 14.2071 5.29296C14.0196 5.10543 13.7652 5.00007 13.5 5.00007H9.5V2.00007C9.50012 1.81898 9.45106 1.64127 9.35807 1.48588C9.26507 1.3305 9.13163 1.20328 8.97199 1.11781C8.81234 1.03234 8.63248 0.991829 8.45161 1.00059C8.27073 1.00936 8.09564 1.06707 7.945 1.16757L2.945 4.50007C2.80784 4.59158 2.69543 4.71559 2.61779 4.86106C2.54015 5.00653 2.49969 5.16893 2.5 5.33382V13.0001H1.5C1.36739 13.0001 1.24021 13.0527 1.14645 13.1465C1.05268 13.2403 1 13.3675 1 13.5001C1 13.6327 1.05268 13.7599 1.14645 13.8536C1.24021 13.9474 1.36739 14.0001 1.5 14.0001H15.5C15.6326 14.0001 15.7598 13.9474 15.8536 13.8536C15.9473 13.7599 16 13.6327 16 13.5001C16 13.3675 15.9473 13.2403 15.8536 13.1465C15.7598 13.0527 15.6326 13.0001 15.5 13.0001ZM13.5 6.00007V13.0001H9.5V6.00007H13.5ZM3.5 5.33382L8.5 2.00007V13.0001H3.5V5.33382ZM7.5 7.00007V8.00007C7.5 8.13268 7.44732 8.25986 7.35355 8.35362C7.25979 8.44739 7.13261 8.50007 7 8.50007C6.86739 8.50007 6.74021 8.44739 6.64645 8.35362C6.55268 8.25986 6.5 8.13268 6.5 8.00007V7.00007C6.5 6.86746 6.55268 6.74029 6.64645 6.64652C6.74021 6.55275 6.86739 6.50007 7 6.50007C7.13261 6.50007 7.25979 6.55275 7.35355 6.64652C7.44732 6.74029 7.5 6.86746 7.5 7.00007ZM5.5 7.00007V8.00007C5.5 8.13268 5.44732 8.25986 5.35355 8.35362C5.25979 8.44739 5.13261 8.50007 5 8.50007C4.86739 8.50007 4.74021 8.44739 4.64645 8.35362C4.55268 8.25986 4.5 8.13268 4.5 8.00007V7.00007C4.5 6.86746 4.55268 6.74029 4.64645 6.64652C4.74021 6.55275 4.86739 6.50007 5 6.50007C5.13261 6.50007 5.25979 6.55275 5.35355 6.64652C5.44732 6.74029 5.5 6.86746 5.5 7.00007ZM5.5 10.5001V11.5001C5.5 11.6327 5.44732 11.7599 5.35355 11.8536C5.25979 11.9474 5.13261 12.0001 5 12.0001C4.86739 12.0001 4.74021 11.9474 4.64645 11.8536C4.55268 11.7599 4.5 11.6327 4.5 11.5001V10.5001C4.5 10.3675 4.55268 10.2403 4.64645 10.1465C4.74021 10.0527 4.86739 10.0001 5 10.0001C5.13261 10.0001 5.25979 10.0527 5.35355 10.1465C5.44732 10.2403 5.5 10.3675 5.5 10.5001ZM7.5 10.5001V11.5001C7.5 11.6327 7.44732 11.7599 7.35355 11.8536C7.25979 11.9474 7.13261 12.0001 7 12.0001C6.86739 12.0001 6.74021 11.9474 6.64645 11.8536C6.55268 11.7599 6.5 11.6327 6.5 11.5001V10.5001C6.5 10.3675 6.55268 10.2403 6.64645 10.1465C6.74021 10.0527 6.86739 10.0001 7 10.0001C7.13261 10.0001 7.25979 10.0527 7.35355 10.1465C7.44732 10.2403 7.5 10.3675 7.5 10.5001Z" fill="#111C18"/>
</svg>
