<svg width="25" height="24" viewBox="0 0 25 24" fill="none" xmlns="http://www.w3.org/2000/svg">
<path d="M10.0833 20.25C10.0833 20.5467 9.99528 20.8367 9.83046 21.0834C9.66563 21.33 9.43137 21.5223 9.15728 21.6358C8.88319 21.7494 8.58159 21.7791 8.29062 21.7212C7.99965 21.6633 7.73237 21.5204 7.52259 21.3107C7.31281 21.1009 7.16995 20.8336 7.11207 20.5426C7.0542 20.2517 7.0839 19.9501 7.19743 19.676C7.31096 19.4019 7.50322 19.1676 7.7499 19.0028C7.99657 18.838 8.28658 18.75 8.58325 18.75C8.98108 18.75 9.36261 18.908 9.64391 19.1893C9.92522 19.4706 10.0833 19.8522 10.0833 20.25ZM18.3333 18.75C18.0366 18.75 17.7466 18.838 17.4999 19.0028C17.2532 19.1676 17.061 19.4019 16.9474 19.676C16.8339 19.9501 16.8042 20.2517 16.8621 20.5426C16.92 20.8336 17.0628 21.1009 17.2726 21.3107C17.4824 21.5204 17.7496 21.6633 18.0406 21.7212C18.3316 21.7791 18.6332 21.7494 18.9073 21.6358C19.1814 21.5223 19.4156 21.33 19.5805 21.0834C19.7453 20.8367 19.8333 20.5467 19.8333 20.25C19.8333 19.8522 19.6752 19.4706 19.3939 19.1893C19.1126 18.908 18.7311 18.75 18.3333 18.75ZM22.8061 6.95062L20.4023 15.6019C20.2702 16.0745 19.9875 16.4911 19.5972 16.7885C19.2069 17.0859 18.7302 17.2479 18.2395 17.25H8.97325C8.48109 17.2498 8.00251 17.0886 7.6105 16.791C7.21849 16.4935 6.93455 16.0758 6.802 15.6019L3.51325 3.75H1.83325C1.63434 3.75 1.44357 3.67098 1.30292 3.53033C1.16227 3.38968 1.08325 3.19891 1.08325 3C1.08325 2.80109 1.16227 2.61032 1.30292 2.46967C1.44357 2.32902 1.63434 2.25 1.83325 2.25H4.08325C4.24722 2.24997 4.40668 2.30367 4.53723 2.40289C4.66777 2.50211 4.7622 2.64138 4.80606 2.79938L5.69481 6H22.0833C22.1989 5.99998 22.3129 6.02669 22.4165 6.07805C22.5201 6.1294 22.6104 6.20401 22.6804 6.29605C22.7504 6.38809 22.7982 6.49506 22.82 6.60861C22.8417 6.72216 22.837 6.83922 22.8061 6.95062ZM21.0961 7.5H6.112L8.25044 15.2006C8.2943 15.3586 8.38873 15.4979 8.51928 15.5971C8.64982 15.6963 8.80928 15.75 8.97325 15.75H18.2395C18.4035 15.75 18.5629 15.6963 18.6935 15.5971C18.824 15.4979 18.9185 15.3586 18.9623 15.2006L21.0961 7.5Z" fill="black"/>
<path d="M13.9427 10.4425H11.2991L12.2709 9.46944C12.3191 9.41593 12.3449 9.34598 12.3431 9.274C12.3412 9.20202 12.3118 9.13349 12.2609 9.08253C12.2101 9.03157 12.1416 9.00207 12.0696 9.00011C11.9976 8.99814 11.9276 9.02385 11.874 9.07196L10.4157 10.5303C10.3895 10.5565 10.3688 10.5875 10.3547 10.6216C10.3405 10.6557 10.3333 10.6923 10.3333 10.7292C10.3333 10.7662 10.3405 10.8028 10.3547 10.8369C10.3688 10.871 10.3895 10.902 10.4157 10.9281L11.874 12.3862C11.9277 12.4332 11.9973 12.4581 12.0686 12.4557C12.1399 12.4533 12.2077 12.4239 12.2582 12.3735C12.3086 12.323 12.338 12.2553 12.3404 12.1839C12.3428 12.1126 12.3179 12.043 12.2709 11.9893L11.2884 11.005H13.9427C14.4086 10.9877 14.8623 11.1554 15.2049 11.4716C15.5474 11.7878 15.7509 12.2267 15.7708 12.6924C15.7509 13.1582 15.5474 13.5971 15.2049 13.9133C14.8623 14.2295 14.4086 14.3972 13.9427 14.3799H13.6615C13.5869 14.3799 13.5154 14.4095 13.4626 14.4623C13.4099 14.515 13.3802 14.5865 13.3802 14.6611C13.3802 14.7357 13.4099 14.8072 13.4626 14.86C13.5154 14.9127 13.5869 14.9424 13.6615 14.9424H13.9427C14.5577 14.9597 15.1546 14.7327 15.6026 14.311C16.0506 13.8894 16.3133 13.3074 16.3333 12.6924C16.3133 12.0775 16.0506 11.4955 15.6026 11.0739C15.1546 10.6522 14.5577 10.4252 13.9427 10.4425Z" fill="black" stroke="black" stroke-width="0.7"/>
</svg>
