<svg width="24" height="24" viewBox="0 0 24 24" fill="none" xmlns="http://www.w3.org/2000/svg">
<g clip-path="url(#clip0_2407_12165)">
<path d="M23.025 13.8258C22.7508 13.3477 22.4742 12.8695 22.2 12.3891C22.0641 12.143 22.0641 11.8547 22.2 11.6086C22.2352 11.5453 22.2703 11.4844 22.3055 11.4235C22.4766 11.1235 22.65 10.8258 22.8211 10.5258C22.9383 10.3219 23.0578 10.118 23.175 9.91173C23.4445 9.42892 23.3742 8.81017 22.9805 8.41408C22.8 8.23361 22.5492 8.11642 22.3313 7.98986L21.3891 7.44845C21.1805 7.32892 20.918 7.21642 20.775 7.0172C20.6039 6.77814 20.625 6.50627 20.625 6.23205V5.15627C20.625 4.91017 20.6438 4.6547 20.6086 4.41095C20.5266 3.8508 20.0485 3.43595 19.4953 3.37736C19.268 3.35392 19.0289 3.37267 18.7992 3.37267H17.7305C17.4516 3.37267 17.1797 3.38908 16.9453 3.19923C16.7578 3.04689 16.6453 2.78439 16.5258 2.57814C16.3453 2.26408 16.1649 1.95002 15.9844 1.6383C15.8531 1.41095 15.7336 1.15548 15.5344 0.979704C15.1289 0.62111 14.5477 0.56486 14.0789 0.82736C13.5656 1.11564 13.057 1.41564 12.5485 1.70861C12.4828 1.74611 12.4195 1.78595 12.3539 1.81877C12.1195 1.94298 11.836 1.92658 11.6063 1.80002C11.4 1.68517 11.1985 1.56564 10.9922 1.44611C10.6922 1.27502 10.3945 1.10158 10.0945 0.928141C9.79689 0.757047 9.49923 0.62111 9.14298 0.665641C8.70939 0.719547 8.38595 0.979704 8.17033 1.35002C8.01564 1.6172 7.86095 1.88673 7.70626 2.15392C7.55861 2.41174 7.40861 2.66955 7.26095 2.92736C7.10158 3.20627 6.84845 3.36798 6.52267 3.36798C5.92267 3.37033 5.32267 3.36798 4.72033 3.36798C4.33126 3.36798 3.95861 3.47345 3.68908 3.77345C3.49923 3.98439 3.39142 4.24689 3.36798 4.52814C3.36095 4.60548 3.36564 4.68517 3.36564 4.76252C3.36564 5.35548 3.37267 5.94845 3.36564 6.54142C3.3633 6.87892 3.17345 7.11564 2.8922 7.27736C2.62267 7.43205 2.35314 7.58908 2.08361 7.74377L1.3172 8.18673C0.925796 8.41173 0.66564 8.8008 0.653921 9.26017C0.644546 9.59299 0.794546 9.86252 0.953921 10.1391C1.13205 10.4461 1.30783 10.7555 1.48595 11.0649C1.6008 11.2641 1.73673 11.4633 1.83283 11.6719C1.9383 11.9016 1.9172 12.1688 1.79533 12.3867C1.75783 12.4547 1.71798 12.5227 1.67814 12.5883C1.3922 13.0852 1.09923 13.5797 0.817983 14.0789C0.541421 14.5735 0.621108 15.2203 1.04767 15.607C1.23517 15.7781 1.48126 15.893 1.69923 16.0195C2.0133 16.2 2.32501 16.3805 2.63908 16.561C2.8547 16.6852 3.11017 16.7953 3.24611 17.0156C3.39611 17.2547 3.36798 17.5266 3.36798 17.7961V18.8766C3.36798 19.1227 3.34689 19.3828 3.39142 19.6266C3.49455 20.1844 4.0008 20.5922 4.55861 20.618C4.78361 20.6274 5.00861 20.618 5.23361 20.618H6.28361C6.57892 20.618 6.86017 20.6133 7.0922 20.836C7.26095 20.9977 7.36642 21.2485 7.48126 21.4477C7.65939 21.757 7.83751 22.0688 8.01798 22.3781C8.15626 22.6172 8.28048 22.875 8.5008 23.0508C8.90861 23.3766 9.46173 23.4164 9.91642 23.1586C10.1414 23.032 10.3641 22.9008 10.5867 22.7719L11.4656 22.2656C11.536 22.2258 11.6039 22.1789 11.6789 22.1461C11.9086 22.0453 12.1711 22.0664 12.3891 22.1883C12.9024 22.4766 13.411 22.7766 13.9195 23.0719C13.9781 23.1047 14.0344 23.1399 14.093 23.1727C14.3531 23.3156 14.6438 23.3602 14.9344 23.3086C15.3352 23.2383 15.6258 22.9641 15.8227 22.6242C16.125 22.0992 16.4274 21.5719 16.732 21.0469C16.8938 20.768 17.1516 20.618 17.4727 20.618H19.2867C19.6828 20.618 20.0649 20.4961 20.325 20.1797C20.5078 19.957 20.6133 19.6852 20.618 19.3945C20.6203 19.3289 20.618 19.261 20.618 19.1953V18.1711C20.618 17.9274 20.6156 17.6836 20.618 17.4399C20.6203 17.2219 20.7024 17.0203 20.8594 16.8703C20.932 16.8 21.0188 16.7508 21.1055 16.7016C21.6305 16.3992 22.1555 16.0992 22.6781 15.7945C23.0766 15.5649 23.3414 15.15 23.332 14.6836C23.3344 14.3602 23.182 14.1 23.025 13.8258ZM7.17189 8.7047C7.27267 8.30392 7.50939 7.90549 7.82814 7.64064C8.19845 7.33361 8.60861 7.16252 9.08673 7.1133C9.92111 7.02892 10.7977 7.53283 11.1516 8.2922C11.3578 8.73048 11.4094 9.17814 11.332 9.65392C11.2688 10.0547 11.0508 10.432 10.7742 10.725L10.7508 10.7485L10.7203 10.7789C10.0195 11.4375 8.89689 11.5828 8.08361 11.032C7.32423 10.5188 6.94923 9.60236 7.17189 8.7047ZM11.3039 13.6617L9.5672 15.3985L8.84298 16.1227C8.57345 16.3922 8.14923 16.3735 7.87736 16.1227C7.60548 15.8719 7.62423 15.4102 7.87736 15.157L7.88908 15.1453C8.17736 14.8453 8.4797 14.5547 8.77501 14.2594L10.5938 12.4406L12.6961 10.3383L14.4328 8.60158L15.157 7.87736C15.4266 7.60783 15.8508 7.62658 16.1227 7.87736C16.3945 8.12814 16.3758 8.58986 16.1227 8.84299L16.111 8.8547C15.8227 9.1547 15.5203 9.44533 15.225 9.74064L13.4063 11.5594L11.3039 13.6617ZM16.8563 15.1711C16.793 15.5719 16.575 15.9516 16.2985 16.2422L16.275 16.2656L16.2445 16.2961C15.5438 16.9547 14.4211 17.1 13.6078 16.5516C12.8485 16.0383 12.4735 15.1195 12.6985 14.2219C12.7992 13.8211 13.036 13.4227 13.3547 13.1578C13.725 12.8485 14.1352 12.6774 14.6133 12.6305C15.4477 12.5461 16.3242 13.0524 16.6781 13.8094C16.8797 14.2477 16.9313 14.693 16.8563 15.1711Z" fill="#7839EF"/>
<path d="M10.0055 9.34221C10.0055 9.34456 10.0055 9.34456 10.0055 9.34221C9.99141 9.41018 9.97266 9.47581 9.95156 9.54143C9.92578 9.59299 9.89766 9.64456 9.86484 9.69377C9.8625 9.69846 9.86016 9.70081 9.85781 9.70549C9.83438 9.73127 9.81094 9.75706 9.78516 9.78284C9.75938 9.80862 9.73359 9.83206 9.70781 9.85549C9.70547 9.85784 9.70078 9.86018 9.69609 9.86252C9.64688 9.89534 9.59531 9.92346 9.54375 9.94924C9.47813 9.97268 9.4125 9.98909 9.34687 10.0031C9.27891 10.0078 9.20859 10.0078 9.14063 10.0031C9.07266 9.98909 9.00703 9.97034 8.94375 9.94924C8.89219 9.92346 8.84063 9.89534 8.79141 9.86252C8.78672 9.86018 8.78203 9.85784 8.77969 9.85549C8.75391 9.83206 8.72812 9.80862 8.70234 9.78284C8.67656 9.75706 8.65313 9.73127 8.62969 9.70549C8.62734 9.70315 8.625 9.69846 8.62266 9.69377C8.58984 9.64456 8.56172 9.59299 8.53594 9.54143C8.5125 9.47581 8.49609 9.41018 8.48203 9.34456C8.47734 9.27659 8.47734 9.20627 8.48203 9.13831C8.49609 9.07034 8.51484 9.00471 8.53594 8.94143C8.56172 8.88987 8.58984 8.83831 8.62266 8.78909C8.625 8.7844 8.62734 8.77971 8.62969 8.77737C8.65313 8.75159 8.67656 8.72581 8.70234 8.70002C8.72812 8.67424 8.75391 8.65081 8.77969 8.62737C8.78438 8.62502 8.78672 8.62268 8.79141 8.62034C8.84063 8.58752 8.89219 8.5594 8.94375 8.53362C9.00938 8.51018 9.075 8.49377 9.14063 8.47971C9.20859 8.47502 9.27891 8.47502 9.34687 8.47971C9.41484 8.49377 9.48047 8.51252 9.54375 8.53362C9.59531 8.5594 9.64688 8.58752 9.69609 8.62034C9.70078 8.62268 9.70547 8.62502 9.70781 8.62737L9.78516 8.69768C9.81094 8.72346 9.83438 8.74924 9.85781 8.77502C9.86016 8.77971 9.8625 8.78206 9.86484 8.78674C9.89766 8.83596 9.92578 8.88752 9.95156 8.93909C9.975 9.00471 9.99141 9.07034 10.0055 9.13596C10.0102 9.20627 10.0102 9.27424 10.0055 9.34221ZM15.5273 14.8617C15.5133 14.9297 15.4945 14.9953 15.4734 15.061C15.4477 15.1125 15.4195 15.1641 15.3867 15.2133C15.3844 15.218 15.382 15.2203 15.3797 15.225C15.3563 15.2508 15.3328 15.2789 15.307 15.3024C15.2812 15.3282 15.2555 15.3516 15.2297 15.375C15.2273 15.3774 15.2227 15.3797 15.218 15.3821C15.1687 15.4149 15.1195 15.443 15.068 15.4688C15.0023 15.4922 14.9367 15.5086 14.8688 15.5227C14.8008 15.5274 14.7305 15.5274 14.6625 15.5227C14.5945 15.5086 14.5289 15.4899 14.4633 15.4688C14.4117 15.443 14.3602 15.4149 14.3133 15.3821C14.3086 15.3797 14.3063 15.3774 14.3016 15.375C14.2758 15.3516 14.2477 15.3282 14.2242 15.3024C14.1984 15.2766 14.175 15.2508 14.1516 15.225C14.1492 15.2203 14.1469 15.218 14.1445 15.2133C14.1117 15.1641 14.0836 15.1149 14.0578 15.061C14.0344 14.9953 14.018 14.9297 14.0039 14.8617C13.9992 14.7938 13.9992 14.7235 14.0039 14.6555C14.018 14.5875 14.0367 14.5219 14.0578 14.4563C14.0836 14.4047 14.1117 14.3531 14.1445 14.3039C14.1469 14.2992 14.1492 14.2946 14.1516 14.2922C14.175 14.2664 14.1984 14.2406 14.2242 14.2149C14.25 14.1891 14.2758 14.168 14.3016 14.1446C14.3063 14.1422 14.3086 14.1399 14.3133 14.1375C14.3625 14.1047 14.4117 14.0766 14.4633 14.0508C14.5289 14.0274 14.5945 14.011 14.6625 13.9969C14.7305 13.9922 14.8008 13.9922 14.8688 13.9969C14.9367 14.011 15.0023 14.0297 15.068 14.0508C15.1195 14.0766 15.1711 14.1047 15.218 14.1375C15.2227 14.1399 15.2273 14.1422 15.2297 14.1446L15.307 14.2149C15.3328 14.2406 15.3563 14.2664 15.3797 14.2922C15.382 14.2969 15.3844 14.2992 15.3867 14.3039C15.4195 14.3531 15.4477 14.4024 15.4734 14.4563C15.4969 14.5219 15.5133 14.5875 15.5273 14.6555C15.532 14.7235 15.532 14.7914 15.5273 14.8617Z" fill="#7839EF"/>
</g>
<defs>
<clipPath id="clip0_2407_12165">
<rect width="24" height="24" fill="white"/>
</clipPath>
</defs>
</svg>
