<svg width="28" height="27" viewBox="0 0 28 27" fill="none" xmlns="http://www.w3.org/2000/svg">
<path fill-rule="evenodd" clip-rule="evenodd" d="M14 26.8333C21.364 26.8333 27.3333 20.864 27.3333 13.5C27.3333 6.13596 21.364 0.166626 14 0.166626C6.63596 0.166626 0.666626 6.13596 0.666626 13.5C0.666626 20.864 6.63596 26.8333 14 26.8333ZM18.7146 8.78529C18.965 8.53528 19.3044 8.39497 19.6582 8.39522C20.0121 8.39547 20.3513 8.53626 20.6013 8.78663C20.8513 9.03699 20.9916 9.37642 20.9914 9.73024C20.9911 10.0841 20.8503 10.4233 20.6 10.6733L13.0626 18.2106L13.0573 18.216C12.9338 18.3402 12.7869 18.4388 12.6251 18.5061C12.4633 18.5734 12.2898 18.608 12.1146 18.608C11.9394 18.608 11.7659 18.5734 11.6042 18.5061C11.4424 18.4388 11.2955 18.3402 11.172 18.216L11.1666 18.2106L7.39996 14.444C7.27261 14.321 7.17104 14.1738 7.10116 14.0112C7.03128 13.8485 6.9945 13.6735 6.99296 13.4965C6.99142 13.3195 7.02516 13.1439 7.0922 12.98C7.15924 12.8162 7.25824 12.6673 7.38343 12.5421C7.50862 12.4169 7.65749 12.3179 7.82135 12.2509C7.98522 12.1838 8.16079 12.1501 8.33783 12.1516C8.51487 12.1532 8.68983 12.1899 8.8525 12.2598C9.01517 12.3297 9.1623 12.4313 9.28529 12.5586L12.1146 15.3866L18.7146 8.78663V8.78529Z" fill="#EDCC27"/>
</svg>
