<svg width="56" height="56" viewBox="0 0 56 56" fill="none" xmlns="http://www.w3.org/2000/svg">
<path d="M28 50.75C40.5645 50.75 50.75 40.5645 50.75 28C50.75 15.4355 40.5645 5.25 28 5.25C15.4355 5.25 5.25 15.4355 5.25 28C5.25 40.5645 15.4355 50.75 28 50.75Z" fill="#111C18"/>
<path d="M36.2366 19.7633C35.5529 19.0797 34.4446 19.0797 33.7609 19.7633L27.9976 25.5267L22.2343 19.7633C21.5506 19.0797 20.4423 19.0797 19.7586 19.7633C19.0749 20.447 19.0749 21.5553 19.7586 22.239L25.5219 28.0023L19.7586 33.7657C19.0749 34.4493 19.0749 35.5577 19.7586 36.2413C20.0993 36.582 20.5473 36.7547 20.9953 36.7547C21.4433 36.7547 21.8913 36.5843 22.2319 36.2413L27.9953 30.478L33.7586 36.2413C34.0993 36.582 34.5473 36.7547 34.9953 36.7547C35.4433 36.7547 35.8913 36.5843 36.2319 36.2413C36.9156 35.5577 36.9156 34.4493 36.2319 33.7657L30.4686 28.0023L36.2319 22.239C36.9156 21.5553 36.9156 20.447 36.2319 19.7633H36.2366Z" fill="white"/>
<path d="M28 5.25C15.456 5.25 5.25 15.456 5.25 28C5.25 40.544 15.456 50.75 28 50.75C40.544 50.75 50.75 40.544 50.75 28C50.75 15.456 40.544 5.25 28 5.25ZM28 47.25C17.3857 47.25 8.75 38.6143 8.75 28C8.75 17.3857 17.3857 8.75 28 8.75C38.6143 8.75 47.25 17.3857 47.25 28C47.25 38.6143 38.6143 47.25 28 47.25Z" fill="#111C18"/>
</svg>
