<svg width="12" height="18" viewBox="0 0 12 18" fill="none" xmlns="http://www.w3.org/2000/svg">
<path d="M10.9 6C11.1 5.7 11.2 5.36 11.2 5C11.2 4 10.4 3.2 9.39999 3.2H7.25999C7.33999 3.02 7.39999 2.82 7.39999 2.6C7.39999 1.96 6.97999 1.44 6.39999 1.26V0.4C6.39999 0.18 6.21999 0 5.99999 0C5.77999 0 5.59999 0.18 5.59999 0.4V1.26C5.01999 1.44 4.59999 1.96 4.59999 2.6C4.59999 2.82 4.63999 3.02 4.73999 3.2H2.59999C1.59999 3.2 0.799988 4 0.799988 5C0.799988 5.36 0.899988 5.7 1.09999 6C0.899988 6.3 0.799988 6.64 0.799988 7C0.799988 7.5 0.999988 7.96 1.33999 8.3C1.23999 8.52 1.19999 8.76 1.19999 9C1.19999 9.5 1.39999 9.96 1.73999 10.3C1.63999 10.52 1.59999 10.76 1.59999 11C1.59999 11.5 1.79999 11.96 2.13999 12.3C2.03999 12.52 1.99999 12.76 1.99999 13C1.99999 13.5 2.19999 13.96 2.53999 14.3C2.43999 14.52 2.39999 14.76 2.39999 15C2.39999 16 3.19999 16.8 4.19999 16.8H5.59999V17.6C5.59999 17.82 5.77999 18 5.99999 18C6.21999 18 6.39999 17.82 6.39999 17.6V16.8H7.79999C8.79999 16.8 9.59999 16 9.59999 15C9.59999 14.76 9.55999 14.52 9.45999 14.3C9.79999 13.96 9.99999 13.5 9.99999 13C9.99999 12.76 9.95999 12.52 9.85999 12.3C10.2 11.96 10.4 11.5 10.4 11C10.4 10.76 10.36 10.52 10.26 10.3C10.6 9.96 10.8 9.5 10.8 9C10.8 8.76 10.76 8.52 10.66 8.3C11 7.96 11.2 7.5 11.2 7C11.2 6.64 11.1 6.3 10.9 6ZM5.99999 2C6.33999 2 6.59999 2.26 6.59999 2.6C6.59999 2.92 6.33999 3.2 5.99999 3.2C5.65999 3.2 5.39999 2.92 5.39999 2.6C5.39999 2.26 5.65999 2 5.99999 2ZM10.1 6.28C10.3 6.48 10.4 6.72 10.4 7C10.4 7.32 10.24 7.62 9.99999 7.8H7.99999C7.77999 7.8 7.59999 7.98 7.59999 8.2C7.59999 8.42 7.77999 8.6 7.99999 8.6H9.91999C9.97999 8.72 9.99999 8.86 9.99999 9C9.99999 9.34 9.81999 9.66 9.51999 9.84C9.41999 9.9 9.35999 10 9.33999 10.1C9.31999 10.2 9.33999 10.32 9.39999 10.4C9.53999 10.6 9.59999 10.8 9.59999 11C9.59999 11.32 9.43999 11.62 9.19999 11.8H7.19999C6.97999 11.8 6.79999 11.98 6.79999 12.2C6.79999 12.42 6.97999 12.6 7.19999 12.6H9.11999C9.17999 12.72 9.19999 12.86 9.19999 13C9.19999 13.34 9.01999 13.66 8.71999 13.84C8.61999 13.9 8.55999 14 8.53999 14.1C8.51999 14.2 8.53999 14.32 8.59999 14.4C8.73999 14.6 8.79999 14.8 8.79999 15C8.79999 15.56 8.35999 16 7.79999 16H4.19999C3.63999 16 3.19999 15.56 3.19999 15C3.19999 14.86 3.23999 14.72 3.27999 14.6H5.19999C5.41999 14.6 5.59999 14.42 5.59999 14.2C5.59999 13.98 5.41999 13.8 5.19999 13.8H3.19999C2.93999 13.62 2.79999 13.32 2.79999 13C2.79999 12.8 2.85999 12.6 2.97999 12.42C3.03999 12.32 3.07999 12.22 3.03999 12.12C3.01999 12.02 2.95999 11.92 2.85999 11.86C2.57999 11.66 2.39999 11.34 2.39999 11C2.39999 10.86 2.43999 10.72 2.47999 10.6H4.39999C4.61999 10.6 4.79999 10.42 4.79999 10.2C4.79999 9.98 4.61999 9.8 4.39999 9.8H2.39999C2.13999 9.62 1.99999 9.32 1.99999 9C1.99999 8.8 2.05999 8.6 2.17999 8.42C2.23999 8.32 2.27999 8.22 2.23999 8.12C2.21999 8.02 2.15999 7.92 2.05999 7.86C1.77999 7.66 1.59999 7.34 1.59999 7C1.59999 6.78 1.67999 6.58 1.79999 6.4H3.99999C4.21999 6.4 4.39999 6.22 4.39999 6C4.39999 5.78 4.21999 5.6 3.99999 5.6H1.79999C1.65999 5.42 1.59999 5.22 1.59999 5C1.59999 4.44 2.03999 4 2.59999 4H9.39999C9.95999 4 10.4 4.44 10.4 5C10.4 5.26 10.3 5.52 10.1 5.72C10.02 5.8 9.97999 5.9 9.97999 6C9.97999 6.1 10.02 6.2 10.1 6.28Z" fill="black"/>
</svg>
