<svg width="24" height="24" viewBox="0 0 24 24" fill="none" xmlns="http://www.w3.org/2000/svg">
<g id="contact" clip-path="url(#clip0_7413_3210)">
<path id="Vector" d="M17.7087 0.749997C20.6065 0.777747 23.2217 3.28975 23.2502 6.2915C23.2625 10.1092 23.286 13.927 23.2497 17.7442C23.2042 20.6147 20.7105 23.2215 17.7087 23.25C13.891 23.2622 10.0732 23.2857 6.25599 23.2495C3.38599 23.204 0.778989 20.7102 0.750239 17.7085C0.738239 13.8907 0.714489 10.073 0.750739 6.25575C0.796239 3.38525 3.28999 0.778747 6.29174 0.749997C10.0975 0.737997 13.903 0.737997 17.7087 0.749997ZM6.32899 2.25C4.21399 2.25675 2.27149 4.0715 2.25024 6.301C2.23824 10.1092 2.21424 13.9175 2.25049 17.7252C2.28374 19.821 4.10424 21.729 6.30124 21.75C10.1095 21.7622 13.9177 21.7857 17.7255 21.7497C19.8225 21.7162 21.7292 19.896 21.7502 17.699C21.7625 13.8907 21.786 10.0825 21.75 6.27475C21.7165 4.178 19.899 2.271 17.6992 2.25C13.9092 2.238 10.119 2.25 6.32899 2.25Z" fill="black"/>
<path id="Vector_2" d="M12.0624 3.85375C14.7947 3.9055 17.1679 6.57125 16.7784 9.352C16.4597 11.626 14.3104 13.5033 12.0002 13.5033C9.22044 13.5033 6.73644 10.7 7.25069 7.82525C7.63969 5.64975 9.64969 3.89725 11.9379 3.85375C12.0002 3.85325 12.0002 3.85325 12.0624 3.85375ZM11.9572 5.3535C9.75994 5.39525 7.97444 7.9855 9.00294 10.1185C9.90419 11.9883 12.7382 12.5678 14.2934 11.0848C16.1114 9.3515 15.1502 5.41275 12.0432 5.3535C12.0002 5.35325 12.0002 5.35325 11.9572 5.3535ZM12.0747 14.5035C15.0319 14.5443 17.8814 16.303 19.1987 19.0115C19.4759 19.5815 18.9149 20.3483 18.2744 20.0938C17.7992 19.9048 17.6702 19.2795 17.3654 18.835C15.5257 16.151 11.5397 15.208 8.67619 16.9175C7.57469 17.575 6.68144 18.5638 6.12469 19.7218C6.12469 19.7218 5.86919 20.1275 5.48469 20.146C4.89669 20.174 4.52344 19.5255 4.92869 18.7618C6.28769 16.1993 9.09444 14.49 12.0747 14.5035Z" fill="black"/>
</g>
<defs>
<clipPath id="clip0_7413_3210">
<rect width="24" height="24" fill="white"/>
</clipPath>
</defs>
</svg>
