<svg width="392" height="138" viewBox="0 0 392 138" fill="none" xmlns="http://www.w3.org/2000/svg">
<mask id="path-1-inside-1_57_2310" fill="white">
<path fill-rule="evenodd" clip-rule="evenodd" d="M0 12C0 5.37258 5.37258 0 12 0H380C386.627 0 392 5.37258 392 12V56C384.82 56 379 61.8203 379 69C379 76.1797 384.82 82 392 82V126C392 132.627 386.627 138 380 138H12C5.37258 138 0 132.627 0 126V82C7.1797 82 13 76.1797 13 69C13 61.8203 7.1797 56 0 56V12Z"/>
</mask>
<path fill-rule="evenodd" clip-rule="evenodd" d="M0 12C0 5.37258 5.37258 0 12 0H380C386.627 0 392 5.37258 392 12V56C384.82 56 379 61.8203 379 69C379 76.1797 384.82 82 392 82V126C392 132.627 386.627 138 380 138H12C5.37258 138 0 132.627 0 126V82C7.1797 82 13 76.1797 13 69C13 61.8203 7.1797 56 0 56V12Z" fill="white"/>
<path d="M392 56V57H393V56H392ZM392 82H393V81H392V82ZM0 82V81H-1V82H0ZM0 56H-1V57H0V56ZM12 -1C4.8203 -1 -1 4.8203 -1 12H1C1 5.92487 5.92487 1 12 1V-1ZM380 -1H12V1H380V-1ZM393 12C393 4.8203 387.18 -1 380 -1V1C386.075 1 391 5.92487 391 12H393ZM393 56V12H391V56H393ZM380 69C380 62.3726 385.373 57 392 57V55C384.268 55 378 61.268 378 69H380ZM392 81C385.373 81 380 75.6274 380 69H378C378 76.732 384.268 83 392 83V81ZM393 126V82H391V126H393ZM380 139C387.18 139 393 133.18 393 126H391C391 132.075 386.075 137 380 137V139ZM12 139H380V137H12V139ZM-1 126C-1 133.18 4.82029 139 12 139V137C5.92486 137 1 132.075 1 126H-1ZM-1 82V126H1V82H-1ZM12 69C12 75.6274 6.62742 81 0 81V83C7.73199 83 14 76.732 14 69H12ZM0 57C6.62742 57 12 62.3726 12 69H14C14 61.268 7.73199 55 0 55V57ZM-1 12V56H1V12H-1Z" fill="#E5E7EB" mask="url(#path-1-inside-1_57_2310)"/>
</svg>
