<svg width="10" height="10" viewBox="0 0 10 10" fill="none" xmlns="http://www.w3.org/2000/svg">
<path id="Vector" d="M9.70704 0.293334C9.31638 -0.0973329 8.68304 -0.0973329 8.29238 0.293334L4.99904 3.58667L1.70571 0.293334C1.31505 -0.0973329 0.681713 -0.0973329 0.291047 0.293334C-0.0996197 0.684001 -0.0996197 1.31733 0.291047 1.708L3.58438 5.00133L0.291047 8.29467C-0.0996197 8.68533 -0.0996197 9.31867 0.291047 9.70933C0.485713 9.904 0.741713 10.0027 0.997713 10.0027C1.25371 10.0027 1.50971 9.90533 1.70438 9.70933L4.99771 6.416L8.29105 9.70933C8.48571 9.904 8.74171 10.0027 8.99771 10.0027C9.25371 10.0027 9.50971 9.90533 9.70438 9.70933C10.095 9.31867 10.095 8.68533 9.70438 8.29467L6.41104 5.00133L9.70438 1.708C10.095 1.31733 10.095 0.684001 9.70438 0.293334H9.70704Z" fill="white"/>
</svg>
