<svg width="24" height="24" viewBox="0 0 24 24" fill="none" xmlns="http://www.w3.org/2000/svg">
<g id="delete">
<path id="Vector" d="M7.32012 22.4H16.7601C17.8401 22.4 18.6801 21.52 18.6801 20.48V7.48002H19.5201C19.7601 7.48002 19.9201 7.32002 19.9201 7.08002V6.16002C19.9201 5.32002 19.2401 4.68002 18.4401 4.68002H15.0401V3.64002C15.0401 2.96002 14.4801 2.40002 13.8001 2.40002H10.2401C9.56012 2.40002 9.00012 2.96002 9.00012 3.64002V4.68002H5.60012C4.76012 4.68002 4.12012 5.36002 4.12012 6.16002V7.08002C4.12012 7.32002 4.28012 7.48002 4.52012 7.48002H5.36012V20.48C5.36012 21.52 6.24012 22.4 7.32012 22.4ZM17.8801 20.48C17.8801 21.12 17.3601 21.6 16.7601 21.6H7.32012C6.68012 21.6 6.20012 21.08 6.20012 20.48V7.48002H17.9201V20.48H17.8801ZM9.80012 3.64002C9.80012 3.40002 10.0001 3.20002 10.2401 3.20002H13.8001C14.0401 3.20002 14.2401 3.40002 14.2401 3.64002V4.68002H9.84012V3.64002H9.80012ZM4.92012 6.16002C4.92012 5.76002 5.24012 5.48002 5.60012 5.48002H18.4001C18.8001 5.48002 19.0801 5.80002 19.0801 6.16002V6.68002H4.92012V6.16002Z" fill="black"/>
<path id="Vector_2" d="M15.1605 19.68C15.4005 19.68 15.5605 19.52 15.5605 19.28V9.76003C15.5605 9.52003 15.4005 9.36003 15.1605 9.36003C14.9205 9.36003 14.7605 9.52003 14.7605 9.76003V19.28C14.7605 19.52 14.9605 19.68 15.1605 19.68ZM12.0405 19.68C12.2805 19.68 12.4405 19.52 12.4405 19.28V9.76003C12.4405 9.52003 12.2805 9.36003 12.0405 9.36003C11.8005 9.36003 11.6405 9.52003 11.6405 9.76003V19.28C11.6405 19.52 11.8005 19.68 12.0405 19.68ZM8.88047 19.68C9.12047 19.68 9.28047 19.52 9.28047 19.28V9.76003C9.28047 9.52003 9.12047 9.36003 8.88047 9.36003C8.64047 9.36003 8.48047 9.52003 8.48047 9.76003V19.28C8.48047 19.52 8.64047 19.68 8.88047 19.68Z" fill="black"/>
</g>
</svg>
