<svg width="24" height="25" viewBox="0 0 24 25" fill="none" xmlns="http://www.w3.org/2000/svg">
<path d="M10.5 6.125C10.5 5.82833 10.588 5.53832 10.7528 5.29165C10.9176 5.04497 11.1519 4.85271 11.426 4.73918C11.7001 4.62565 12.0017 4.59594 12.2926 4.65382C12.5836 4.7117 12.8509 4.85456 13.0607 5.06434C13.2704 5.27412 13.4133 5.54139 13.4712 5.83237C13.5291 6.12334 13.4994 6.42494 13.3858 6.69903C13.2723 6.97311 13.08 7.20738 12.8334 7.37221C12.5867 7.53703 12.2967 7.625 12 7.625C11.6022 7.625 11.2206 7.46697 10.9393 7.18566C10.658 6.90436 10.5 6.52283 10.5 6.125ZM12 11C11.7033 11 11.4133 11.088 11.1666 11.2528C10.92 11.4176 10.7277 11.6519 10.6142 11.926C10.5006 12.2001 10.4709 12.5017 10.5288 12.7926C10.5867 13.0836 10.7296 13.3509 10.9393 13.5607C11.1491 13.7704 11.4164 13.9133 11.7074 13.9712C11.9983 14.0291 12.2999 13.9994 12.574 13.8858C12.8481 13.7723 13.0824 13.58 13.2472 13.3334C13.412 13.0867 13.5 12.7967 13.5 12.5C13.5 12.1022 13.342 11.7206 13.0607 11.4393C12.7794 11.158 12.3978 11 12 11ZM12 17.375C11.7033 17.375 11.4133 17.463 11.1666 17.6278C10.92 17.7926 10.7277 18.0269 10.6142 18.301C10.5006 18.5751 10.4709 18.8767 10.5288 19.1676C10.5867 19.4586 10.7296 19.7259 10.9393 19.9357C11.1491 20.1454 11.4164 20.2883 11.7074 20.3462C11.9983 20.4041 12.2999 20.3744 12.574 20.2608C12.8481 20.1473 13.0824 19.955 13.2472 19.7084C13.412 19.4617 13.5 19.1717 13.5 18.875C13.5 18.4772 13.342 18.0956 13.0607 17.8143C12.7794 17.533 12.3978 17.375 12 17.375Z" fill="#59574E"/>
</svg>
