<svg width="8" height="5" viewBox="0 0 8 5" fill="none" xmlns="http://www.w3.org/2000/svg">
<path d="M7.89336 0.620865L4.25725 4.25697C4.22348 4.29077 4.18338 4.31759 4.13924 4.33589C4.0951 4.35419 4.04778 4.36361 4 4.36361C3.95222 4.36361 3.9049 4.35419 3.86076 4.33589C3.81662 4.31759 3.77652 4.29077 3.74275 4.25697L0.106642 0.620865C0.0557328 0.570012 0.0210562 0.505197 0.00700251 0.434626C-0.00705118 0.364055 0.000149987 0.2909 0.0276944 0.224424C0.0552387 0.157947 0.101888 0.101138 0.161736 0.0611883C0.221584 0.0212382 0.29194 -5.6515e-05 0.363897 1.12647e-07H7.6361C7.70806 -5.6515e-05 7.77842 0.0212382 7.83826 0.0611883C7.89811 0.101138 7.94476 0.157947 7.97231 0.224424C7.99985 0.2909 8.00705 0.364055 7.993 0.434626C7.97894 0.505197 7.94427 0.570012 7.89336 0.620865Z" fill="black"/>
</svg>
