<svg width="24" height="24" viewBox="0 0 24 24" fill="none" xmlns="http://www.w3.org/2000/svg">
<g id="edit">
<path id="Vector" d="M21 11.1V18C21 18.7957 20.6839 19.5587 20.1213 20.1213C19.5587 20.684 18.7957 21 18 21H6C5.20435 21 4.44129 20.684 3.87868 20.1213C3.31607 19.5587 3 18.7957 3 18V6.00003C3 5.20438 3.31607 4.44132 3.87868 3.87871C4.44129 3.3161 5.20435 3.00003 6 3.00003H12.9C13.0989 3.00003 13.2897 3.07905 13.4303 3.2197C13.571 3.36035 13.65 3.55112 13.65 3.75003C13.65 3.94894 13.571 4.13971 13.4303 4.28036C13.2897 4.42101 13.0989 4.50003 12.9 4.50003H6C5.60218 4.50003 5.22064 4.65807 4.93934 4.93937C4.65804 5.22067 4.5 5.60221 4.5 6.00003V18C4.5 18.3979 4.65804 18.7794 4.93934 19.0607C5.22064 19.342 5.60218 19.5 6 19.5H18C18.3978 19.5 18.7794 19.342 19.0607 19.0607C19.342 18.7794 19.5 18.3979 19.5 18V11.1C19.5 10.9011 19.579 10.7104 19.7197 10.5697C19.8603 10.429 20.0511 10.35 20.25 10.35C20.4489 10.35 20.6397 10.429 20.7803 10.5697C20.921 10.7104 21 10.9011 21 11.1ZM9.75 10.095L16.2675 3.58503C16.645 3.22071 17.1491 3.01711 17.6738 3.01711C18.1984 3.01711 18.7025 3.22071 19.08 3.58503L20.4375 4.94253C20.6232 5.12661 20.7706 5.34566 20.8712 5.58702C20.9718 5.82839 21.0236 6.08729 21.0236 6.34878C21.0236 6.61027 20.9718 6.86917 20.8712 7.11054C20.7706 7.3519 20.6232 7.57095 20.4375 7.75503L19.305 8.89503L13.905 14.25C13.6262 14.5285 13.2952 14.7494 12.931 14.8999C12.5669 15.0505 12.1766 15.1278 11.7825 15.1275H11.7225L9.63 15.0825C9.43109 15.0825 9.24032 15.0035 9.09967 14.8629C8.95902 14.7222 8.88 14.5314 8.88 14.3325L8.835 12.24C8.8391 11.8399 8.92202 11.4445 9.07902 11.0765C9.23602 10.7084 9.46403 10.3749 9.75 10.095ZM16.695 5.25003L18.1425 6.69753C18.222 6.7778 18.3166 6.84153 18.4209 6.88501C18.5252 6.9285 18.637 6.95089 18.75 6.95089C18.863 6.95089 18.9748 6.9285 19.0791 6.88501C19.1834 6.84153 19.278 6.7778 19.3575 6.69753C19.4478 6.60388 19.4982 6.47886 19.4982 6.34878C19.4982 6.2187 19.4478 6.09368 19.3575 6.00003L18 4.64253C17.9063 4.55225 17.7813 4.5018 17.6513 4.5018C17.5212 4.5018 17.3962 4.55225 17.3025 4.64253L16.695 5.25003ZM10.35 12.2475V13.62H11.7225C12.1286 13.619 12.5185 13.4603 12.81 13.1775L16.5975 9.42753C16.737 9.28822 16.8476 9.12279 16.9231 8.94069C16.9986 8.75859 17.0374 8.5634 17.0374 8.36628C17.0374 8.16916 16.9986 7.97397 16.9231 7.79187C16.8476 7.60977 16.737 7.44434 16.5975 7.30503L15.6375 6.31503L10.7925 11.1525C10.6485 11.2956 10.535 11.4664 10.4589 11.6546C10.3829 11.8429 10.3458 12.0446 10.35 12.2475Z" fill="black"/>
</g>
</svg>
