<svg width="24" height="25" viewBox="0 0 24 25" fill="none" xmlns="http://www.w3.org/2000/svg">
<path d="M11.9999 2.21423C6.32849 2.21423 1.71423 6.82849 1.71423 12.4999C1.71423 18.1714 6.32849 22.7857 11.9999 22.7857C17.6714 22.7857 22.2857 18.1714 22.2857 12.4999C22.2857 6.82849 17.6714 2.21423 11.9999 2.21423ZM11.9999 21.0714C7.27352 21.0714 3.42852 17.2264 3.42852 12.4999C3.42852 7.77352 7.27352 3.92852 11.9999 3.92852C16.7264 3.92852 20.5714 7.77352 20.5714 12.4999C20.5714 17.2264 16.7264 21.0714 11.9999 21.0714Z" fill="black"/>
<path d="M11.9999 7.88403C11.5265 7.88403 11.1428 8.26782 11.1428 8.74118L11.1423 13.4931C11.1423 13.9665 11.5261 14.3503 11.9995 14.3503C12.4728 14.3503 12.8566 13.9665 12.8566 13.4931L12.857 8.74118C12.857 8.26782 12.4732 7.88403 11.9999 7.88403ZM12.608 15.6519C12.2223 15.3057 11.7041 15.3382 11.3909 15.6519C11.0853 15.9559 11.0382 16.4971 11.3909 16.869C11.7201 17.1812 12.2199 17.2173 12.608 16.869C12.9189 16.5403 12.9595 16.0435 12.608 15.6519Z" fill="black"/>
</svg>
