<svg width="16" height="17" viewBox="0 0 16 17" fill="none" xmlns="http://www.w3.org/2000/svg">
<path d="M14.5567 14.49H11.4001C11.3901 14.3033 11.3667 14.0166 11.3134 13.7166C11.1434 12.75 10.7134 11.89 10.1034 11.2033C10.5801 10.9633 11.1134 10.8333 11.6667 10.8333C13.3567 10.8333 14.8001 12.0466 15.0967 13.7166C15.1601 14.08 14.9201 14.4233 14.5567 14.49Z" fill="black"/>
<path d="M11.6667 10.1667C12.9554 10.1667 14 9.122 14 7.83333C14 6.54467 12.9554 5.5 11.6667 5.5C10.378 5.5 9.33337 6.54467 9.33337 7.83333C9.33337 9.122 10.378 10.1667 11.6667 10.1667Z" fill="black"/>
<path d="M6.33337 9.16669C7.99023 9.16669 9.33337 7.82354 9.33337 6.16669C9.33337 4.50983 7.99023 3.16669 6.33337 3.16669C4.67652 3.16669 3.33337 4.50983 3.33337 6.16669C3.33337 7.82354 4.67652 9.16669 6.33337 9.16669Z" fill="black"/>
<path d="M10.6567 13.8337C10.2797 11.709 8.4617 10.1667 6.33336 10.1667C4.20503 10.1667 2.38703 11.709 2.01003 13.8337C1.94603 14.196 2.1877 14.542 2.55036 14.6064H10.116C10.479 14.5424 10.7207 14.1964 10.6567 13.8337Z" fill="black"/>
</svg>
