<svg width="20" height="20" viewBox="0 0 20 20" fill="none" xmlns="http://www.w3.org/2000/svg">
<path d="M18.1958 17.4875H14.25C14.2375 17.2542 14.2083 16.8959 14.1417 16.5209C13.9292 15.3125 13.3917 14.2375 12.6292 13.3792C13.225 13.0792 13.8917 12.9167 14.5833 12.9167C16.6958 12.9167 18.5 14.4334 18.8708 16.5209C18.95 16.975 18.65 17.4042 18.1958 17.4875Z" fill="#A8A29E"/>
<path d="M14.5833 12.0833C16.1942 12.0833 17.5 10.7775 17.5 9.16667C17.5 7.55584 16.1942 6.25 14.5833 6.25C12.9725 6.25 11.6667 7.55584 11.6667 9.16667C11.6667 10.7775 12.9725 12.0833 14.5833 12.0833Z" fill="#A8A29E"/>
<path d="M7.91667 10.8333C9.98774 10.8333 11.6667 9.15438 11.6667 7.08331C11.6667 5.01225 9.98774 3.33331 7.91667 3.33331C5.8456 3.33331 4.16667 5.01225 4.16667 7.08331C4.16667 9.15438 5.8456 10.8333 7.91667 10.8333Z" fill="#A8A29E"/>
<path d="M13.3208 16.6671C12.8496 14.0112 10.5771 12.0833 7.91667 12.0833C5.25626 12.0833 2.98376 14.0112 2.51251 16.6671C2.43251 17.12 2.73459 17.5525 3.18792 17.6329H12.645C13.0988 17.5529 13.4008 17.1204 13.3208 16.6671Z" fill="#A8A29E"/>
</svg>