<svg width="24" height="24" viewBox="0 0 24 24" fill="none" xmlns="http://www.w3.org/2000/svg">
<g clip-path="url(#clip0_3701_8598)">
<path d="M23.5 11.5H20.975C20.8503 9.2929 19.9173 7.20897 18.3542 5.64583C16.791 4.08268 14.7071 3.14974 12.5 3.025V0.5C12.5 0.367392 12.4473 0.240215 12.3536 0.146447C12.2598 0.0526784 12.1326 0 12 0C11.8674 0 11.7402 0.0526784 11.6464 0.146447C11.5527 0.240215 11.5 0.367392 11.5 0.5V3.025C9.2929 3.14974 7.20897 4.08268 5.64583 5.64583C4.08268 7.20897 3.14974 9.2929 3.025 11.5H0.5C0.367392 11.5 0.240215 11.5527 0.146447 11.6464C0.0526784 11.7402 0 11.8674 0 12C0 12.1326 0.0526784 12.2598 0.146447 12.3536C0.240215 12.4473 0.367392 12.5 0.5 12.5H3.025C3.14974 14.7071 4.08268 16.791 5.64583 18.3542C7.20897 19.9173 9.2929 20.8503 11.5 20.975V23.5C11.5 23.6326 11.5527 23.7598 11.6464 23.8536C11.7402 23.9473 11.8674 24 12 24C12.1326 24 12.2598 23.9473 12.3536 23.8536C12.4473 23.7598 12.5 23.6326 12.5 23.5V20.975C14.7071 20.8503 16.791 19.9173 18.3542 18.3542C19.9173 16.791 20.8503 14.7071 20.975 12.5H23.5C23.6326 12.5 23.7598 12.4473 23.8536 12.3536C23.9473 12.2598 24 12.1326 24 12C24 11.8674 23.9473 11.7402 23.8536 11.6464C23.7598 11.5527 23.6326 11.5 23.5 11.5ZM12 20C7.589 20 4 16.411 4 12C4 7.589 7.589 4 12 4C16.411 4 20 7.589 20 12C20 16.411 16.411 20 12 20Z" fill="#4D7C0F"/>
<path d="M12 8C9.794 8 8 9.794 8 12C8 14.206 9.794 16 12 16C14.206 16 16 14.206 16 12C16 9.794 14.206 8 12 8Z" fill="#4D7C0F"/>
<path d="M23.5 11.5H20.975C20.8503 9.2929 19.9173 7.20897 18.3542 5.64583C16.791 4.08268 14.7071 3.14974 12.5 3.025V0.5C12.5 0.367392 12.4473 0.240215 12.3536 0.146447C12.2598 0.0526784 12.1326 0 12 0C11.8674 0 11.7402 0.0526784 11.6464 0.146447C11.5527 0.240215 11.5 0.367392 11.5 0.5V3.025C9.2929 3.14974 7.20897 4.08268 5.64583 5.64583C4.08268 7.20897 3.14974 9.2929 3.025 11.5H0.5C0.367392 11.5 0.240215 11.5527 0.146447 11.6464C0.0526784 11.7402 0 11.8674 0 12C0 12.1326 0.0526784 12.2598 0.146447 12.3536C0.240215 12.4473 0.367392 12.5 0.5 12.5H3.025C3.14974 14.7071 4.08268 16.791 5.64583 18.3542C7.20897 19.9173 9.2929 20.8503 11.5 20.975V23.5C11.5 23.6326 11.5527 23.7598 11.6464 23.8536C11.7402 23.9473 11.8674 24 12 24C12.1326 24 12.2598 23.9473 12.3536 23.8536C12.4473 23.7598 12.5 23.6326 12.5 23.5V20.975C14.7071 20.8503 16.791 19.9173 18.3542 18.3542C19.9173 16.791 20.8503 14.7071 20.975 12.5H23.5C23.6326 12.5 23.7598 12.4473 23.8536 12.3536C23.9473 12.2598 24 12.1326 24 12C24 11.8674 23.9473 11.7402 23.8536 11.6464C23.7598 11.5527 23.6326 11.5 23.5 11.5ZM12 20C7.589 20 4 16.411 4 12C4 7.589 7.589 4 12 4C16.411 4 20 7.589 20 12C20 16.411 16.411 20 12 20ZM12 8C9.794 8 8 9.794 8 12C8 14.206 9.794 16 12 16C14.206 16 16 14.206 16 12C16 9.794 14.206 8 12 8Z" fill="url(#paint0_linear_3701_8598)"/>
</g>
<defs>
<linearGradient id="paint0_linear_3701_8598" x1="2.101" y1="7.384" x2="21.899" y2="16.616" gradientUnits="userSpaceOnUse">
<stop stop-color="white" stop-opacity="0.2"/>
<stop offset="1" stop-color="white" stop-opacity="0"/>
</linearGradient>
<clipPath id="clip0_3701_8598">
<rect width="24" height="24" fill="white"/>
</clipPath>
</defs>
</svg>
