<svg width="25" height="24" viewBox="0 0 25 24" fill="none" xmlns="http://www.w3.org/2000/svg">
<path d="M21.5731 5.34377C20.5542 4.32738 19.1742 3.75582 17.735 3.75406C16.2959 3.7523 14.9145 4.3205 13.8931 5.33439L12.6669 6.47345L11.4397 5.33064C10.4185 4.31233 9.03465 3.74139 7.59252 3.74341C6.15039 3.74544 4.76814 4.32026 3.74983 5.34142C2.73152 6.36259 2.16058 7.74645 2.1626 9.18858C2.16462 10.6307 2.73945 12.013 3.76061 13.0313L12.1372 21.5306C12.207 21.6015 12.2901 21.6578 12.3819 21.6962C12.4736 21.7346 12.5721 21.7544 12.6715 21.7544C12.771 21.7544 12.8695 21.7346 12.9612 21.6962C13.053 21.6578 13.1361 21.6015 13.2059 21.5306L21.5731 13.0313C22.5921 12.0116 23.1646 10.6291 23.1646 9.18752C23.1646 7.74596 22.5921 6.3634 21.5731 5.34377ZM20.509 11.9775L12.6669 19.9313L4.81999 11.97C4.08153 11.2316 3.66666 10.23 3.66666 9.18564C3.66666 8.1413 4.08153 7.13973 4.81999 6.40127C5.55845 5.6628 6.56002 5.24794 7.60436 5.24794C8.64871 5.24794 9.65027 5.6628 10.3887 6.40127L10.4075 6.42002L12.1559 8.04658C12.2947 8.17574 12.4773 8.24754 12.6669 8.24754C12.8565 8.24754 13.039 8.17574 13.1778 8.04658L14.9262 6.42002L14.945 6.40127C15.6839 5.6633 16.6858 5.24911 17.7301 5.24982C18.7745 5.25052 19.7758 5.66606 20.5137 6.40502C21.2517 7.14398 21.6659 8.14582 21.6652 9.19017C21.6645 10.2345 21.2489 11.2358 20.51 11.9738L20.509 11.9775Z" fill="black"/>
</svg>
