<svg width="24" height="24" viewBox="0 0 24 24" fill="none" xmlns="http://www.w3.org/2000/svg">
<path d="M12.293 5.03415L12 5.32629L11.707 5.03332C10.6951 4.03982 9.33178 3.48609 7.91367 3.49261C6.49557 3.49913 5.13741 4.06536 4.13465 5.06812C3.13188 6.07088 2.56565 7.42904 2.55914 8.84715C2.55262 10.2653 3.10635 11.6286 4.09985 12.6405L4.39282 12.9335L12 20.5406L19.6072 12.9335L19.9001 12.6405C20.8857 11.627 21.4327 10.2662 21.4228 8.85252C21.4129 7.43882 20.8469 6.08585 19.8472 5.08625C18.8475 4.08664 17.4945 3.52077 16.0808 3.51102C14.6671 3.50127 13.3064 4.04843 12.293 5.03415Z" fill="#EDCC27"/>
<path d="M12.3201 4.63444L12.0095 4.94417L11.6989 4.63356C10.626 3.58022 9.18059 2.99315 7.67708 3.00006C6.17357 3.00697 4.73361 3.6073 3.67045 4.67045C2.6073 5.73361 2.00697 7.17357 2.00006 8.67708C1.99315 10.1806 2.58022 11.626 3.63356 12.6989L3.94417 13.0095L12.0095 21.0748L20.0748 13.0095L20.3854 12.6989C21.4304 11.6243 22.0104 10.1816 21.9999 8.68278C21.9894 7.18394 21.3892 5.74948 20.3293 4.68967C19.2694 3.62987 17.8349 3.02991 16.336 3.01958C14.8372 3.00924 13.3945 3.58935 12.3201 4.63444Z" fill="#F2274C"/>
</svg>
