<svg width="24" height="24" viewBox="0 0 24 24" fill="none" xmlns="http://www.w3.org/2000/svg">
<path d="M3.75001 11.475C3.93998 11.4664 4.1196 11.386 4.25251 11.25L4.50001 11.025V18.75C4.50001 19.3468 4.73707 19.9191 5.15902 20.341C5.58098 20.763 6.15328 21 6.75001 21H17.25C17.8468 21 18.419 20.763 18.841 20.341C19.263 19.9191 19.5 19.3468 19.5 18.75V11.055L19.7475 11.28C19.8851 11.4051 20.0641 11.4745 20.25 11.475C20.4012 11.4746 20.5488 11.4285 20.6733 11.3428C20.7979 11.2571 20.8936 11.1357 20.948 10.9945C21.0023 10.8534 21.0127 10.6992 20.9778 10.552C20.943 10.4049 20.8644 10.2717 20.7525 10.17L19.2525 8.80503L13.5 3.58503C13.0875 3.21607 12.5535 3.01208 12 3.01208C11.4466 3.01208 10.9125 3.21607 10.5 3.58503L4.76251 8.83503L3.26251 10.2C3.16151 10.3025 3.09212 10.4319 3.06262 10.5727C3.03312 10.7136 3.04476 10.8599 3.09615 10.9943C3.14754 11.1287 3.23651 11.2455 3.35245 11.3308C3.46839 11.416 3.6064 11.4661 3.75001 11.475ZM6.00001 9.69003L11.49 4.69503C11.6287 4.56641 11.8109 4.49494 12 4.49494C12.1892 4.49494 12.3713 4.56641 12.51 4.69503L18 9.69003V18.75C18 18.9489 17.921 19.1397 17.7803 19.2804C17.6397 19.421 17.4489 19.5 17.25 19.5H6.75001C6.5511 19.5 6.36034 19.421 6.21968 19.2804C6.07903 19.1397 6.00001 18.9489 6.00001 18.75V9.69003Z" fill="white"/>
</svg>
