<svg width="17" height="16" viewBox="0 0 17 16" fill="none" xmlns="http://www.w3.org/2000/svg">
<path d="M15.5 13.0001H14.5V8.50007L14.6462 8.64632C14.7402 8.74014 14.8676 8.79278 15.0004 8.79267C15.1332 8.79255 15.2606 8.73968 15.3544 8.6457C15.4482 8.55171 15.5008 8.4243 15.5007 8.2915C15.5006 8.1587 15.4477 8.03139 15.3538 7.93757L9.20687 1.79257C9.01936 1.60518 8.7651 1.49991 8.5 1.49991C8.2349 1.49991 7.98064 1.60518 7.79313 1.79257L1.64625 7.93757C1.55251 8.03139 1.49988 8.15861 1.49994 8.29123C1.5 8.42385 1.55274 8.55102 1.64656 8.64476C1.74038 8.7385 1.8676 8.79112 2.00022 8.79106C2.13284 8.79101 2.26001 8.73827 2.35375 8.64444L2.5 8.50007V13.0001H1.5C1.36739 13.0001 1.24021 13.0527 1.14645 13.1465C1.05268 13.2403 1 13.3675 1 13.5001C1 13.6327 1.05268 13.7599 1.14645 13.8536C1.24021 13.9474 1.36739 14.0001 1.5 14.0001H15.5C15.6326 14.0001 15.7598 13.9474 15.8536 13.8536C15.9473 13.7599 16 13.6327 16 13.5001C16 13.3675 15.9473 13.2403 15.8536 13.1465C15.7598 13.0527 15.6326 13.0001 15.5 13.0001ZM3.5 7.50007L8.5 2.50007L13.5 7.50007V13.0001H10.5V9.50007C10.5 9.36746 10.4473 9.24028 10.3536 9.14652C10.2598 9.05275 10.1326 9.00007 10 9.00007H7C6.86739 9.00007 6.74021 9.05275 6.64645 9.14652C6.55268 9.24028 6.5 9.36746 6.5 9.50007V13.0001H3.5V7.50007ZM9.5 13.0001H7.5V10.0001H9.5V13.0001Z" fill="#111C18"/>
</svg>
