<svg width="25" height="25" viewBox="0 0 25 25" fill="none" xmlns="http://www.w3.org/2000/svg">
<path d="M12.6284 3.07129C10.7001 3.07129 8.81499 3.64312 7.21161 4.71446C5.60823 5.7858 4.35855 7.30855 3.6206 9.09013C2.88264 10.8717 2.68956 12.8321 3.06577 14.7234C3.44197 16.6147 4.37057 18.352 5.73413 19.7156C7.09769 21.0791 8.83498 22.0077 10.7263 22.3839C12.6176 22.7602 14.578 22.5671 16.3596 21.8291C18.1412 21.0912 19.6639 19.8415 20.7353 18.2381C21.8066 16.6347 22.3784 14.7497 22.3784 12.8213C22.3757 10.2363 21.3476 7.7579 19.5197 5.93001C17.6918 4.10212 15.2134 3.07402 12.6284 3.07129ZM12.6284 21.0713C10.9967 21.0713 9.40167 20.5874 8.04497 19.6809C6.68826 18.7744 5.63084 17.4859 5.00642 15.9784C4.38199 14.4709 4.21862 12.8121 4.53694 11.2118C4.85527 9.61145 5.64101 8.14144 6.79479 6.98766C7.94857 5.83388 9.41858 5.04814 11.0189 4.72981C12.6193 4.41148 14.2781 4.57486 15.7856 5.19928C17.2931 5.82371 18.5815 6.88113 19.488 8.23783C20.3946 9.59454 20.8784 11.1896 20.8784 12.8213C20.8759 15.0086 20.006 17.1055 18.4593 18.6522C16.9127 20.1988 14.8157 21.0688 12.6284 21.0713ZM14.1284 17.3213C14.1284 17.5202 14.0494 17.711 13.9088 17.8516C13.7681 17.9923 13.5773 18.0713 13.3784 18.0713C12.9806 18.0713 12.5991 17.9133 12.3178 17.6319C12.0365 17.3506 11.8784 16.9691 11.8784 16.5713V12.8213C11.6795 12.8213 11.4887 12.7423 11.3481 12.6016C11.2074 12.461 11.1284 12.2702 11.1284 12.0713C11.1284 11.8724 11.2074 11.6816 11.3481 11.541C11.4887 11.4003 11.6795 11.3213 11.8784 11.3213C12.2762 11.3213 12.6578 11.4793 12.9391 11.7606C13.2204 12.0419 13.3784 12.4235 13.3784 12.8213V16.5713C13.5773 16.5713 13.7681 16.6503 13.9088 16.791C14.0494 16.9316 14.1284 17.1224 14.1284 17.3213ZM11.1284 8.69629C11.1284 8.47379 11.1944 8.25628 11.318 8.07127C11.4416 7.88627 11.6173 7.74207 11.8229 7.65692C12.0285 7.57178 12.2547 7.5495 12.4729 7.59291C12.6911 7.63631 12.8916 7.74346 13.0489 7.90079C13.2063 8.05813 13.3134 8.25858 13.3568 8.47681C13.4002 8.69504 13.3779 8.92124 13.2928 9.12681C13.2076 9.33237 13.0634 9.50808 12.8784 9.63169C12.6934 9.75531 12.4759 9.82129 12.2534 9.82129C11.9551 9.82129 11.6689 9.70276 11.4579 9.49178C11.2469 9.28081 11.1284 8.99466 11.1284 8.69629Z" fill="black"/>
</svg>
