<svg width="119" height="35" viewBox="0 0 119 35" fill="none" xmlns="http://www.w3.org/2000/svg">
<g clip-path="url(#clip0_8556_3858)">
<path d="M22.0626 11.0836C22.0198 13.2943 17.1617 14.9963 11.2053 14.8825C5.25315 14.7688 0.459321 12.8843 0.500001 10.6736C0.525694 9.25919 2.51902 8.05511 5.50365 7.40048C3.68375 7.96282 2.52544 8.81061 2.50831 9.7829C2.47405 11.5858 6.38148 13.1247 11.2353 13.217C16.0912 13.3093 20.0543 11.9206 20.0885 10.1177C20.1078 9.14544 18.9859 8.25472 17.1874 7.62585C20.142 8.39208 22.0861 9.67129 22.0583 11.0836H22.0626Z" fill="#D4D4D4"/>
<path d="M21.401 15.1187C21.3624 17.2113 16.7656 18.8189 11.1325 18.7116C5.50365 18.6043 0.971032 16.8228 1.00957 14.7302C1.01814 14.3267 1.1937 13.9425 1.51486 13.584C2.26209 15.3311 6.28941 16.7263 11.1689 16.8185C16.0505 16.9108 20.1271 15.6681 20.9364 13.9511C21.2447 14.3224 21.4074 14.7152 21.401 15.1187Z" fill="#D4D4D4"/>
<path d="M20.6152 18.821C20.5788 20.7678 16.3053 22.2637 11.0683 22.1629C5.83551 22.0641 1.61977 20.405 1.65831 18.4605C1.66474 18.16 1.76965 17.8681 1.96877 17.5934C2.98791 19.1366 6.67909 20.3342 11.1004 20.4179C15.5281 20.5016 19.2621 19.4456 20.3369 17.9389C20.5232 18.2222 20.6216 18.5184 20.6152 18.821Z" fill="#D4D4D4"/>
<path d="M20.1014 22.1801C20.0671 24.0323 15.9927 25.4575 11.0062 25.363C6.01964 25.2686 2.0073 23.6911 2.04156 21.8388C2.04584 21.5984 2.11864 21.3645 2.25138 21.1412C3.41612 22.5557 6.89962 23.6288 11.0383 23.7082C15.1727 23.7876 18.6968 22.8476 19.9172 21.4804C20.0414 21.7079 20.1056 21.944 20.1014 22.1822V22.1801Z" fill="#D4D4D4"/>
<path d="M18.881 25.8588C18.851 27.475 15.2968 28.7177 10.9462 28.634C6.59559 28.5503 3.09496 27.1745 3.12494 25.5583C3.13136 25.2493 3.26625 24.9531 3.51033 24.6783C4.61297 25.8352 7.53551 26.7023 10.9826 26.7667C14.4319 26.8332 17.3865 26.0777 18.5298 24.9638C18.7632 25.2471 18.8874 25.5476 18.881 25.8588Z" fill="#D4D4D4"/>
<path d="M17.1317 28.9645C17.1082 30.2073 14.4468 31.1667 11.1346 31.1495C11.0554 31.1495 10.9762 31.1495 10.897 31.1474C10.7728 31.1452 10.6507 31.1409 10.5266 31.1366C7.28073 31.0036 4.72431 29.9561 4.74786 28.7306C4.75214 28.5439 4.81423 28.3657 4.92985 28.1962C5.76914 29.0676 7.89735 29.7329 10.4495 29.8488C10.6058 29.8553 10.7621 29.8617 10.9205 29.8639C11.034 29.866 11.1475 29.8681 11.2609 29.866C13.873 29.866 16.0847 29.2779 16.9711 28.4237C17.0803 28.5975 17.136 28.7778 17.1317 28.9645Z" fill="#D4D4D4"/>
<path d="M11.3359 31.6882L10.7599 35L10.3424 31.6689C10.3981 31.6689 10.4516 31.6732 10.5052 31.6754C10.6315 31.6796 10.7578 31.6861 10.8884 31.6882C10.9698 31.6882 11.0533 31.6904 11.1325 31.6904C11.201 31.6904 11.2695 31.6904 11.3359 31.6904V31.6882Z" fill="#D4D4D4"/>
<path d="M14.1428 2.7623C14.1706 1.26632 12.9802 0.027895 11.49 -7.10622e-06C9.99558 -0.0279092 8.75805 1.16115 8.73022 2.65928C8.73022 2.69147 8.73022 2.72367 8.73022 2.75586C8.73664 3.16581 9.15201 3.44698 9.5374 3.30747C9.77719 3.22162 9.93349 2.99625 9.93777 2.74299C9.93777 2.73655 9.93777 2.73225 9.93777 2.72582C9.93777 2.67645 9.93777 2.62709 9.9442 2.57772C10.0084 1.83509 10.6251 1.24486 11.368 1.21266C12.2394 1.17188 12.9524 1.87587 12.9353 2.74084C12.9224 3.38903 12.4985 3.93634 11.9204 4.1338C11.7598 4.1896 11.5907 4.21751 11.4108 4.21536C11.1796 4.21107 10.9633 4.15312 10.7664 4.05653L10.6764 8.77628C9.98488 8.86643 9.47959 9.1476 9.47316 9.49101C9.4646 9.92027 10.2354 10.283 11.1924 10.3002C12.1495 10.3173 12.9331 9.98466 12.9417 9.55754C12.9481 9.22486 12.4856 8.93297 11.8305 8.80848L11.8947 5.38725C13.1494 5.17476 14.1171 4.09087 14.1407 2.7666L14.1428 2.7623Z" fill="#D4D4D4"/>
<path d="M28.0725 26.4297V13.5111H30.3249V26.4297H28.0725ZM38.6922 26.4297L31.4768 20.742C31.2755 20.5767 31.1449 20.4243 31.0871 20.2891C31.0272 20.1539 31.0036 19.9908 31.0165 19.7998C31.0165 19.598 31.0529 19.4242 31.1235 19.2761C31.1942 19.128 31.3483 18.9584 31.5838 18.7695L38.4095 13.5089H41.8673L33.4294 19.8169L42.1328 26.4276H38.6943L38.6922 26.4297Z" fill="#D4D4D4"/>
<path d="M43.5845 26.4297V13.511H55.1076V15.7668H45.8369V24.1718H55.1269V26.4297H43.5866H43.5845ZM47.4662 20.815V18.9133H54.6109V20.815H47.4662Z" fill="#D4D4D4"/>
<path d="M57.0217 26.4297V13.511H66.4531C67.0783 13.511 67.6499 13.5819 68.1638 13.7235C68.6776 13.8652 69.1187 14.0755 69.4848 14.3545C69.8509 14.6336 70.1357 14.9834 70.3348 15.402C70.5361 15.8226 70.6367 16.3056 70.6367 16.8507C70.6367 17.265 70.5896 17.6277 70.4954 17.9346C70.4012 18.2437 70.2706 18.5098 70.1057 18.7352C69.9409 18.9605 69.7482 19.143 69.5298 19.2868C69.3114 19.4284 69.0844 19.5358 68.8468 19.6066C69.4506 19.7955 69.9366 20.1389 70.3091 20.6368C70.6817 21.1348 70.8679 21.7615 70.8679 22.5213C70.8679 23.1137 70.7716 23.6503 70.5746 24.1289C70.3798 24.6097 70.1014 25.0196 69.7417 25.363C69.382 25.7064 68.9431 25.9704 68.4293 26.1529C67.9154 26.3374 67.3459 26.4276 66.7186 26.4276H57.0217V26.4297ZM60.9035 20.815V18.9133H66.4702C67.1082 18.9133 67.5814 18.7953 67.8876 18.557C68.1959 18.3209 68.3479 17.9174 68.3479 17.3487C68.3479 17.0053 68.2837 16.7305 68.1531 16.5223C68.0225 16.3141 67.8362 16.1553 67.5943 16.0416C67.3523 15.9299 67.0633 15.8548 66.725 15.8183C66.3888 15.7819 66.012 15.7647 65.5988 15.7647H59.2698V24.1697H65.7936C66.6094 24.1697 67.2774 24.043 67.7977 23.7898C68.3179 23.5365 68.577 23.0965 68.577 22.4719C68.577 21.9418 68.4121 21.5318 68.0803 21.2442C67.7484 20.9545 67.2645 20.8107 66.6265 20.8107H60.9013L60.9035 20.815Z" fill="#D4D4D4"/>
<path d="M85.2622 26.4297L83.331 23.1781H77.2333L78.2974 21.3473H82.2498L79.3786 16.5138L73.5293 26.4297H70.96L78.3702 14.0605C78.5008 13.8352 78.6528 13.657 78.8305 13.5282C79.0082 13.3973 79.2202 13.3329 79.4685 13.3329C79.7169 13.3329 79.9267 13.3973 80.098 13.5282C80.2693 13.6592 80.4192 13.8373 80.5498 14.0605L87.9771 26.4297H85.2644H85.2622Z" fill="#D4D4D4"/>
<path d="M93.2398 22.8411V20.6561H98.4169C99.2091 20.6561 99.8257 20.4351 100.269 19.9908C100.712 19.5465 100.935 18.952 100.935 18.2051C100.935 17.4581 100.714 16.8658 100.271 16.4279C99.8279 15.9901 99.2112 15.7711 98.4212 15.7711H91.6083V26.434H89.356V13.5154H98.4148C99.1599 13.5154 99.8236 13.6248 100.408 13.8437C100.993 14.0627 101.487 14.3717 101.888 14.7688C102.29 15.1659 102.596 15.6488 102.808 16.2176C103.02 16.7863 103.127 17.4259 103.127 18.1364C103.127 18.8468 103.02 19.4714 102.808 20.0466C102.596 20.6218 102.288 21.1155 101.888 21.5297C101.485 21.9439 100.993 22.268 100.408 22.4977C99.8236 22.7295 99.1577 22.8432 98.4148 22.8432H93.2377L93.2398 22.8411Z" fill="#D4D4D4"/>
<path d="M108.608 22.8411V20.6561H113.785C114.578 20.6561 115.194 20.4351 115.637 19.9908C116.081 19.5465 116.303 18.952 116.303 18.2051C116.303 17.4581 116.083 16.8658 115.64 16.4279C115.196 15.9901 114.58 15.7711 113.79 15.7711H106.977V26.434H104.724V13.5154H113.783C114.528 13.5154 115.192 13.6248 115.777 13.8437C116.361 14.0627 116.856 14.3717 117.256 14.7688C117.659 15.1659 117.965 15.6488 118.177 16.2176C118.389 16.7863 118.496 17.4259 118.496 18.1364C118.496 18.8468 118.389 19.4714 118.177 20.0466C117.965 20.6218 117.656 21.1155 117.256 21.5297C116.854 21.9439 116.361 22.268 115.777 22.4977C115.192 22.7295 114.526 22.8432 113.783 22.8432H108.606L108.608 22.8411Z" fill="#D4D4D4"/>
</g>
<defs>
<clipPath id="clip0_8556_3858">
<rect width="118" height="35" fill="white" transform="translate(0.5)"/>
</clipPath>
</defs>
</svg>
