<?xml version="1.0" encoding="UTF-8"?>
<svg id="Layer_2" data-name="Layer 2" xmlns="http://www.w3.org/2000/svg" viewBox="0 0 422.35 61.02">
  <g id="Layer_1-2" data-name="Layer 1">
    <g>
      <path d="M0,61.02V.83h10.52v60.19H0ZM49.6,61.02L15.9,34.53c-.94-.77-1.55-1.48-1.82-2.11-.28-.63-.39-1.39-.33-2.28,0-.94.17-1.75.5-2.44.33-.69,1.05-1.48,2.15-2.36L48.27.83h16.15L25,30.22l40.65,30.8h-16.06Z" style="fill: #fff;"/>
      <path d="M72.45,61.02V.83h53.82v10.51h-43.3v39.16h43.39v10.52h-53.9ZM90.58,34.86v-8.86h33.37v8.86h-33.37Z" style="fill: #fff;"/>
      <path d="M135.21,61.02V.83h44.05c2.92,0,5.59.33,7.99.99,2.4.66,4.46,1.64,6.17,2.94,1.71,1.3,3.04,2.93,3.97,4.88.94,1.96,1.41,4.21,1.41,6.75,0,1.93-.22,3.62-.66,5.05-.44,1.44-1.05,2.68-1.82,3.73-.77,1.05-1.67,1.9-2.69,2.57-1.02.66-2.08,1.16-3.19,1.49,2.82.88,5.09,2.48,6.83,4.8,1.74,2.32,2.61,5.24,2.61,8.78,0,2.76-.45,5.26-1.37,7.49-.91,2.24-2.21,4.15-3.89,5.75-1.68,1.6-3.73,2.83-6.13,3.68-2.4.86-5.06,1.28-7.99,1.28h-45.29ZM153.34,34.86v-8.86h26c2.98,0,5.19-.55,6.62-1.66,1.44-1.1,2.15-2.98,2.15-5.63,0-1.6-.3-2.88-.91-3.85-.61-.97-1.48-1.71-2.61-2.24-1.13-.52-2.48-.87-4.06-1.04-1.57-.17-3.33-.25-5.26-.25h-29.56v39.16h30.47c3.81,0,6.93-.59,9.36-1.77,2.43-1.18,3.64-3.23,3.64-6.14,0-2.47-.77-4.38-2.32-5.72-1.55-1.35-3.81-2.02-6.79-2.02h-26.74Z" style="fill: #fff;"/>
      <path d="M267.1,61.02l-9.02-15.15h-28.48l4.97-8.53h18.46l-13.41-22.52-27.32,46.2h-12L234.89,3.39c.61-1.05,1.32-1.88,2.15-2.48.83-.61,1.82-.91,2.98-.91s2.14.3,2.94.91c.8.61,1.5,1.44,2.11,2.48l34.69,57.63h-12.67Z" style="fill: #fff;"/>
      <path d="M304.36,44.3v-10.18h24.18c3.7,0,6.58-1.03,8.65-3.1,2.07-2.07,3.11-4.84,3.11-8.32s-1.03-6.24-3.1-8.28c-2.07-2.04-4.95-3.06-8.64-3.06h-31.82v49.68h-10.52V.83h42.31c3.48,0,6.58.51,9.31,1.53,2.73,1.02,5.04,2.46,6.91,4.31,1.88,1.85,3.31,4.1,4.3,6.75s1.49,5.63,1.49,8.94-.5,6.22-1.49,8.9c-.99,2.68-2.43,4.98-4.3,6.91-1.88,1.93-4.18,3.44-6.91,4.51-2.73,1.08-5.84,1.61-9.31,1.61h-24.18Z" style="fill: #fff;"/>
      <path d="M376.15,44.3v-10.18h24.18c3.7,0,6.58-1.03,8.65-3.1,2.07-2.07,3.11-4.84,3.11-8.32s-1.03-6.24-3.1-8.28c-2.07-2.04-4.95-3.06-8.64-3.06h-31.82v49.68h-10.52V.83h42.31c3.48,0,6.58.51,9.31,1.53,2.73,1.02,5.04,2.46,6.91,4.31,1.88,1.85,3.31,4.1,4.3,6.75s1.49,5.63,1.49,8.94-.5,6.22-1.49,8.9c-.99,2.68-2.43,4.98-4.3,6.91-1.88,1.93-4.18,3.44-6.91,4.51-2.73,1.08-5.84,1.61-9.31,1.61h-24.18Z" style="fill: #fff;"/>
    </g>
  </g>
</svg>