<svg width="11" height="18" viewBox="0 0 11 18" fill="none" xmlns="http://www.w3.org/2000/svg">
<g id="Group 17369">
<path id="Vector" d="M10.7188 5.4961C10.6979 6.5923 8.28224 7.4362 5.32192 7.38023C2.36305 7.32426 -0.0204576 6.3893 0.000132402 5.2931C0.0134724 4.59217 1.00382 3.99477 2.48804 3.66968C1.58324 3.94866 1.00817 4.36945 0.998893 4.85114C0.982073 5.74492 2.92449 6.50791 5.33758 6.55373C7.75183 6.59955 9.72209 5.91051 9.73891 5.01673C9.7479 4.53504 9.19081 4.09279 8.29703 3.78104C9.76646 4.16094 10.7322 4.79517 10.7188 5.4961Z" fill="#111C18"/>
<path id="Vector_2" d="M10.3904 7.49711C10.3707 8.53472 8.08577 9.33222 5.28582 9.27915C2.48732 9.22608 0.234315 8.34246 0.254035 7.30513C0.257805 7.10532 0.345384 6.9142 0.505174 6.7373C0.877244 7.60353 2.87824 8.29519 5.3038 8.34101C7.73081 8.38712 9.75675 7.77029 10.1599 6.91884C10.3127 7.10328 10.3945 7.29759 10.3907 7.4974L10.3904 7.49711Z" fill="#111C18"/>
<path id="Vector_3" d="M9.99944 9.33356C9.98117 10.2984 7.85634 11.0405 5.25359 10.9912C2.652 10.9419 0.557044 10.12 0.575314 9.15492C0.578214 9.00557 0.631284 8.86115 0.730174 8.72485C1.2368 9.49016 3.07221 10.0838 5.27012 10.1253C7.47093 10.167 9.32751 9.64328 9.86111 8.89653C9.95333 9.0366 10.0023 9.18421 9.99944 9.33356Z" fill="#111C18"/>
<path id="Vector_4" d="M9.74395 10.9994C9.72655 11.9181 7.70177 12.6242 5.22314 12.5772C2.74451 12.5303 0.749315 11.7478 0.766715 10.8291C0.769035 10.7105 0.804704 10.5936 0.871114 10.4832C1.45024 11.1841 3.18183 11.7171 5.2388 11.756C7.29432 11.7948 9.0465 11.3294 9.65289 10.6508C9.71495 10.7636 9.74627 10.8802 9.74395 10.9991V10.9994Z" fill="#111C18"/>
<path id="Vector_5" d="M9.13711 12.8235C9.12203 13.625 7.35564 14.241 5.19282 14.2001C3.02971 14.1592 1.2897 13.4765 1.30478 12.675C1.30768 12.5213 1.37467 12.3745 1.49618 12.2385C2.04399 12.8119 3.49718 13.2416 5.2105 13.2741C6.92527 13.3066 8.39355 12.9322 8.96282 12.38C9.07882 12.5204 9.1403 12.6698 9.1374 12.8235H9.13711Z" fill="#111C18"/>
<path id="Vector_6" d="M8.26861 14.363C8.25701 14.9793 6.93403 15.4549 5.2877 15.4468C5.24826 15.4468 5.20882 15.4462 5.16938 15.4456C5.10761 15.4444 5.04642 15.4424 4.98581 15.4401C3.37254 15.3746 2.10176 14.8549 2.11336 14.2467C2.1151 14.1545 2.14613 14.0655 2.20355 13.9817C2.62086 14.4138 3.67907 14.7432 4.94753 14.8015C5.02496 14.8053 5.10268 14.8076 5.18156 14.8091C5.23811 14.8102 5.29437 14.8108 5.35034 14.8105C6.64896 14.8099 7.74806 14.5191 8.18857 14.0951C8.2428 14.1812 8.27064 14.2711 8.2689 14.3636L8.26861 14.363Z" fill="#111C18"/>
<path id="Vector_7" d="M5.38674 15.714L5.09993 17.356L4.89258 15.7039C4.91984 15.7044 4.94652 15.7062 4.97378 15.707C5.03671 15.7097 5.09964 15.7123 5.16402 15.7128C5.20491 15.714 5.2458 15.714 5.28553 15.7143C5.32004 15.7146 5.35339 15.7143 5.38674 15.714Z" fill="#111C18"/>
<path id="Vector_8" d="M6.78195 1.37021C6.79616 0.627521 6.20427 0.0141712 5.46274 0.000251203C4.71976 -0.0139588 4.10496 0.576481 4.09104 1.31917C4.09075 1.33541 4.09075 1.35136 4.09104 1.36702C4.09452 1.57089 4.30071 1.70922 4.49269 1.64049C4.6113 1.59786 4.68931 1.48592 4.69163 1.36064C4.69163 1.35774 4.69163 1.35484 4.69163 1.35194C4.69163 1.32758 4.69221 1.30293 4.69453 1.27828C4.72672 0.909691 5.03267 0.617661 5.40242 0.600841C5.83568 0.581121 6.18977 0.930281 6.18165 1.35832C6.17556 1.67964 5.96502 1.95079 5.67676 2.04852C5.59672 2.07636 5.51262 2.09028 5.4233 2.08854C5.30875 2.08651 5.20029 2.0578 5.10343 2.00966L5.05906 4.34996C4.71483 4.39433 4.46456 4.53382 4.46137 4.70405C4.45731 4.91662 4.84011 5.09642 5.31629 5.10541C5.79247 5.1144 6.18165 4.94939 6.18571 4.73682C6.1889 4.57181 5.95893 4.42652 5.63297 4.36562L5.66516 2.66854C6.28895 2.56298 6.76977 2.0259 6.78224 1.36963L6.78195 1.37021Z" fill="#111C18"/>
</g>
</svg>
