<svg width="24" height="24" viewBox="0 0 24 24" fill="none" xmlns="http://www.w3.org/2000/svg">
<g id="language" clip-path="url(#clip0_7307_6373)">
<path id="Vector" d="M12 0C9.62663 0 7.30655 0.703788 5.33316 2.02236C3.35977 3.34094 1.8217 5.21508 0.913451 7.4078C0.00519937 9.60051 -0.232441 12.0133 0.230582 14.3411C0.693605 16.6689 1.83649 18.8071 3.51472 20.4853C5.19295 22.1635 7.33115 23.3064 9.65892 23.7694C11.9867 24.2324 14.3995 23.9948 16.5922 23.0866C18.7849 22.1783 20.6591 20.6402 21.9776 18.6668C23.2962 16.6935 24 14.3734 24 12C23.9964 8.81852 22.7309 5.76839 20.4813 3.51874C18.2316 1.26909 15.1815 0.00364052 12 0ZM12 22.5C11.2233 22.5 10.2247 20.8456 9.5982 18H14.4018C13.7753 20.8456 12.7767 22.5 12 22.5ZM9.32218 16.5C9.13984 15.2578 9.03654 14.0053 9.01292 12.75H14.9871C14.9635 14.0053 14.8602 15.2578 14.6778 16.5H9.32218ZM1.538 12.75H7.51209C7.53669 14.0046 7.63439 15.2567 7.80469 16.5H2.52769C1.96571 15.3231 1.62999 14.051 1.538 12.75ZM12 1.5C12.7767 1.5 13.7753 3.15436 14.4018 6H9.5982C10.2247 3.15436 11.2233 1.5 12 1.5ZM14.6778 7.5C14.8602 8.7422 14.9635 9.99471 14.9871 11.25H9.01292C9.03654 9.99471 9.13984 8.7422 9.32218 7.5H14.6778ZM7.51209 11.25H1.538C1.62999 9.94903 1.96571 8.67694 2.52769 7.5H7.80469C7.63439 8.74325 7.53669 9.99538 7.51209 11.25ZM16.4879 12.75H22.462C22.37 14.051 22.0343 15.3231 21.4723 16.5H16.1953C16.3656 15.2567 16.4633 14.0046 16.4879 12.75ZM16.4879 11.25C16.4633 9.99538 16.3656 8.74325 16.1953 7.5H21.4723C22.0343 8.67694 22.37 9.94903 22.462 11.25H16.4879ZM20.6044 6H15.9378C15.6838 4.53331 15.1926 3.11779 14.4834 1.80907C16.9649 2.41645 19.1406 3.90611 20.6044 6ZM9.51654 1.80907C8.8074 3.1178 8.3162 4.53332 8.06224 6H3.39574C4.85944 3.90615 7.03508 2.41649 9.51654 1.80907ZM3.39569 18H8.06219C8.31614 19.4667 8.80735 20.8822 9.5165 22.191C7.03502 21.5836 4.85938 20.0939 3.39569 18ZM14.4834 22.191C15.1926 20.8823 15.6838 19.4667 15.9378 18H20.6044C19.1407 20.0939 16.9649 21.5836 14.4834 22.191Z" fill="white"/>
</g>
<defs>
<clipPath id="clip0_7307_6373">
<rect width="24" height="24" fill="white"/>
</clipPath>
</defs>
</svg>
