<svg width="410" height="342" viewBox="0 0 410 342" fill="none" xmlns="http://www.w3.org/2000/svg">
<g opacity="0.2">
<path opacity="0.037" d="M265.899 277.625C265.475 298.958 237.855 315.714 204.221 315.03C170.587 314.347 143.664 296.512 144.101 275.165C144.525 253.831 172.145 237.076 205.779 237.759C239.413 238.442 266.322 256.277 265.899 277.625Z" fill="#141414"/>
<path opacity="0.074" d="M264.833 277.598C264.409 298.562 237.281 315.017 204.235 314.347C171.189 313.678 144.744 296.143 145.168 275.179C145.591 254.214 172.72 237.759 205.766 238.429C238.812 239.099 265.257 256.633 264.833 277.598Z" fill="#141414"/>
<path opacity="0.111" d="M263.767 277.584C263.357 298.18 236.707 314.334 204.248 313.678C171.79 313.022 145.823 295.802 146.233 275.206C146.643 254.61 173.293 238.456 205.752 239.112C238.21 239.768 264.177 256.988 263.767 277.584Z" fill="#141414"/>
<path opacity="0.148" d="M262.701 277.556C262.291 297.769 236.133 313.636 204.262 312.994C172.391 312.352 146.889 295.446 147.299 275.233C147.709 255.02 173.867 239.153 205.738 239.795C237.595 240.438 263.097 257.343 262.701 277.556Z" fill="#141414"/>
<path opacity="0.185" d="M261.635 277.543C261.238 297.387 235.559 312.953 204.29 312.324C173.02 311.696 147.983 295.104 148.379 275.26C148.775 255.416 174.455 239.85 205.725 240.479C236.994 241.094 262.031 257.699 261.635 277.543Z" fill="#141414"/>
<path opacity="0.222" d="M260.555 277.515C260.159 296.977 234.971 312.27 204.29 311.641C173.608 311.026 149.049 294.735 149.432 275.274C149.828 255.813 175.016 240.52 205.697 241.148C236.393 241.763 260.952 258.04 260.555 277.515Z" fill="#141414"/>
<path opacity="0.259" d="M259.489 277.488C259.106 296.58 234.397 311.573 204.303 310.958C174.209 310.356 150.115 294.38 150.511 275.288C150.894 256.195 175.603 241.203 205.697 241.818C235.791 242.433 259.872 258.396 259.489 277.488Z" fill="#141414"/>
<path opacity="0.296" d="M258.423 277.474C258.041 296.198 233.823 310.889 204.317 310.288C174.811 309.7 151.195 294.038 151.577 275.315C151.96 256.592 176.177 241.9 205.684 242.501C235.19 243.089 258.806 258.751 258.423 277.474Z" fill="#141414"/>
<path opacity="0.333" d="M257.357 277.447C256.988 295.788 233.249 310.192 204.33 309.605C175.412 309.017 152.274 293.683 152.643 275.329C153.012 256.988 176.751 242.583 205.67 243.171C234.588 243.759 257.726 259.106 257.357 277.447Z" fill="#141414"/>
<path opacity="0.37" d="M256.291 277.433C255.936 295.405 232.675 309.509 204.344 308.935C176.013 308.361 153.354 293.328 153.709 275.356C154.065 257.384 177.325 243.28 205.656 243.854C233.987 244.428 256.647 259.462 256.291 277.433Z" fill="#141414"/>
<path opacity="0.407" d="M255.225 277.406C254.87 295.009 232.101 308.812 204.358 308.252C176.615 307.691 154.42 292.972 154.775 275.383C155.131 257.781 177.899 243.977 205.643 244.538C233.372 245.098 255.581 259.803 255.225 277.406Z" fill="#141414"/>
<path opacity="0.444" d="M254.159 277.392C253.817 294.612 231.527 308.129 204.371 307.582C177.229 307.035 155.499 292.631 155.841 275.411C156.183 258.191 178.473 244.674 205.629 245.221C232.771 245.754 254.501 260.159 254.159 277.392Z" fill="#141414"/>
<path opacity="0.481" d="M253.093 277.365C252.751 294.216 230.953 307.445 204.399 306.899C177.844 306.366 156.593 292.275 156.921 275.424C157.262 258.573 179.061 245.344 205.615 245.891C232.169 246.424 253.421 260.514 253.093 277.365Z" fill="#141414"/>
<path opacity="0.518" d="M252.013 277.337C251.685 293.806 230.365 306.748 204.399 306.215C178.432 305.696 157.645 291.906 157.973 275.438C158.301 258.969 179.621 246.027 205.588 246.56C231.568 247.093 252.355 260.869 252.013 277.337Z" fill="#141414"/>
<path opacity="0.556" d="M250.947 277.324C250.619 293.424 229.791 306.065 204.412 305.546C179.033 305.027 158.725 291.565 159.053 275.466C159.381 259.366 180.209 246.725 205.588 247.244C230.967 247.75 251.275 261.225 250.947 277.324Z" fill="#141414"/>
<path opacity="0.593" d="M249.882 277.297C249.567 293.027 229.218 305.368 204.426 304.862C179.635 304.357 159.805 291.209 160.119 275.479C160.433 259.749 180.783 247.408 205.574 247.913C230.366 248.419 250.196 261.566 249.882 277.297Z" fill="#141414"/>
<path opacity="0.63" d="M248.816 277.283C248.501 292.631 228.644 304.685 204.44 304.193C180.236 303.701 160.871 290.868 161.185 275.506C161.499 260.159 181.357 248.105 205.561 248.597C229.764 249.089 249.13 261.922 248.816 277.283Z" fill="#141414"/>
<path opacity="0.667" d="M247.749 277.256C247.449 292.234 228.069 303.988 204.453 303.509C180.851 303.031 161.95 290.512 162.251 275.534C162.551 260.555 181.931 248.802 205.547 249.28C229.149 249.745 248.05 262.277 247.749 277.256Z" fill="#141414"/>
<path opacity="0.704" d="M246.683 277.228C246.396 291.838 227.495 303.291 204.467 302.826C181.452 302.361 163.03 290.143 163.317 275.547C163.604 260.938 182.505 249.485 205.533 249.95C228.548 250.414 246.97 262.632 246.683 277.228Z" fill="#141414"/>
<path opacity="0.741" d="M245.617 277.215C245.33 291.442 226.921 302.621 204.481 302.156C182.054 301.705 164.096 289.802 164.383 275.575C164.67 261.348 183.079 250.168 205.519 250.633C227.946 251.084 245.904 262.988 245.617 277.215Z" fill="#141414"/>
<path opacity="0.778" d="M244.552 277.187C244.278 291.045 226.348 301.924 204.508 301.473C182.669 301.036 165.189 289.446 165.463 275.588C165.736 261.73 183.667 250.852 205.506 251.303C227.345 251.754 244.825 263.329 244.552 277.187Z" fill="#141414"/>
<path opacity="0.815" d="M243.472 277.174C243.199 290.649 225.76 301.241 204.508 300.803C183.257 300.38 166.255 289.105 166.529 275.616C166.802 262.14 184.241 251.549 205.492 251.986C226.744 252.41 243.745 263.685 243.472 277.174Z" fill="#141414"/>
<path opacity="0.852" d="M242.406 277.146C242.146 290.252 225.186 300.543 204.522 300.12C183.858 299.71 167.321 288.735 167.595 275.629C167.854 262.523 184.815 252.232 205.479 252.655C226.143 253.079 242.679 264.04 242.406 277.146Z" fill="#141414"/>
<path opacity="0.889" d="M241.34 277.133C241.08 289.87 224.612 299.86 204.535 299.45C184.459 299.04 168.401 288.394 168.66 275.657C168.92 262.919 185.388 252.929 205.465 253.339C225.541 253.749 241.599 264.395 241.34 277.133Z" fill="#141414"/>
<path opacity="0.926" d="M240.274 277.105C240.028 289.46 224.038 299.163 204.549 298.78C185.074 298.384 169.481 288.052 169.727 275.698C169.973 263.343 185.963 253.64 205.451 254.022C224.926 254.405 240.52 264.751 240.274 277.105Z" fill="#141414"/>
<path opacity="0.963" d="M239.208 277.078C238.962 289.063 223.464 298.466 204.563 298.097C185.676 297.714 170.547 287.697 170.793 275.711C171.039 263.725 186.537 254.323 205.438 254.692C224.325 255.074 239.44 265.106 239.208 277.078Z" fill="#141414"/>
<path d="M238.142 277.064C237.91 288.681 222.876 297.783 204.577 297.427C186.277 297.058 171.626 287.341 171.859 275.738C172.091 264.135 187.124 255.02 205.424 255.375C223.724 255.744 238.374 265.447 238.142 277.064Z" fill="#141414"/>
</g>
<path d="M106.436 231.049C106.463 231.363 106.491 231.691 106.545 232.005C106.6 232.265 106.668 232.525 106.737 232.784C106.819 233.085 106.887 233.386 106.996 233.686C107.078 233.932 107.201 234.178 107.311 234.424C107.447 234.739 107.584 235.053 107.748 235.367C107.871 235.6 108.021 235.818 108.158 236.037C108.377 236.392 108.609 236.748 108.869 237.103C109.115 237.445 109.374 237.773 109.675 238.101C109.743 238.183 109.798 238.251 109.88 238.333C110.276 238.757 110.7 239.18 111.165 239.59C111.452 239.85 111.78 240.11 112.094 240.356C112.381 240.588 112.641 240.807 112.941 241.025C113.283 241.271 113.666 241.517 114.035 241.75C114.417 241.996 114.786 242.255 115.196 242.488L183.106 281.957C184.022 282.49 184.978 282.955 185.976 283.406C186.263 283.529 186.55 283.652 186.851 283.775C187.63 284.103 188.422 284.403 189.242 284.677C189.529 284.772 189.816 284.882 190.117 284.977C190.636 285.141 191.156 285.278 191.675 285.428C192.071 285.538 192.468 285.647 192.878 285.756C193.424 285.893 193.985 286.002 194.559 286.112C194.941 286.194 195.324 286.276 195.707 286.344C196.841 286.549 198.003 286.699 199.164 286.822C199.52 286.863 199.889 286.877 200.244 286.918C200.927 286.973 201.611 287.027 202.294 287.055C202.731 287.068 203.182 287.082 203.62 287.096C204.18 287.109 204.727 287.109 205.287 287.109C205.752 287.109 206.216 287.096 206.681 287.068C207.2 287.055 207.706 287.027 208.225 286.986C208.69 286.959 209.168 286.918 209.633 286.863C210.139 286.809 210.644 286.754 211.15 286.699C211.601 286.645 212.052 286.576 212.517 286.508C213.063 286.426 213.596 286.33 214.129 286.235C214.553 286.153 214.977 286.071 215.4 285.975C216.043 285.838 216.658 285.674 217.286 285.51C217.642 285.415 217.983 285.333 218.339 285.223C219.459 284.895 220.553 284.526 221.605 284.116C222.124 283.911 222.63 283.693 223.136 283.46C223.395 283.337 223.669 283.242 223.928 283.119C224.694 282.75 225.445 282.367 226.156 281.957L294.517 242.488C300.516 239.03 303.509 234.479 303.496 229.942L303.687 245.371C303.701 249.909 300.708 254.446 294.708 257.917L226.347 297.387C225.637 297.797 224.885 298.179 224.12 298.548C223.86 298.671 223.587 298.781 223.327 298.89C222.876 299.095 222.425 299.3 221.96 299.478C221.906 299.505 221.851 299.519 221.796 299.532C220.744 299.942 219.651 300.311 218.53 300.639C218.434 300.667 218.352 300.708 218.27 300.721C218.011 300.79 217.751 300.844 217.491 300.913C216.863 301.077 216.248 301.241 215.605 301.377C215.441 301.418 215.277 301.459 215.1 301.5C214.854 301.555 214.594 301.582 214.334 301.637C213.801 301.733 213.268 301.828 212.722 301.91C212.503 301.938 212.298 301.992 212.079 302.02C211.847 302.047 211.601 302.074 211.369 302.102C210.863 302.17 210.357 302.225 209.852 302.266C209.606 302.293 209.373 302.32 209.127 302.348C208.895 302.361 208.676 302.375 208.444 302.389C207.925 302.43 207.419 302.457 206.9 302.471C206.64 302.484 206.38 302.512 206.121 302.512C205.916 302.512 205.711 302.512 205.506 302.512C204.945 302.525 204.399 302.512 203.838 302.498C203.565 302.498 203.278 302.498 203.005 302.498C202.841 302.498 202.677 302.471 202.513 302.471C201.829 302.443 201.146 302.389 200.463 302.334C200.189 302.307 199.902 302.307 199.629 302.279C199.547 302.266 199.465 302.252 199.383 302.238C198.221 302.115 197.06 301.951 195.925 301.76C195.871 301.746 195.816 301.746 195.748 301.733C195.42 301.678 195.092 301.582 194.764 301.528C194.203 301.418 193.643 301.309 193.083 301.172C192.673 301.077 192.276 300.954 191.88 300.844C191.361 300.708 190.828 300.557 190.322 300.393C190.213 300.352 190.09 300.339 189.98 300.298C189.789 300.243 189.625 300.161 189.447 300.093C188.627 299.819 187.835 299.519 187.069 299.191C186.782 299.068 186.482 298.945 186.195 298.822C185.211 298.371 184.24 297.906 183.325 297.373L115.415 257.904C115.292 257.835 115.169 257.753 115.046 257.685C114.773 257.521 114.527 257.33 114.267 257.166C113.898 256.92 113.515 256.687 113.174 256.441C112.873 256.223 112.6 255.99 112.326 255.772C112.012 255.512 111.684 255.266 111.397 255.006C111.342 254.952 111.26 254.911 111.206 254.856C110.809 254.501 110.454 254.132 110.112 253.749C110.044 253.667 109.976 253.585 109.907 253.517C109.702 253.284 109.497 253.066 109.32 252.82C109.238 252.724 109.183 252.615 109.115 252.505C108.855 252.15 108.623 251.795 108.404 251.439C108.308 251.289 108.185 251.139 108.103 250.988C108.062 250.906 108.035 250.838 107.994 250.756C107.83 250.442 107.693 250.127 107.557 249.813C107.475 249.622 107.365 249.444 107.297 249.266C107.27 249.198 107.27 249.143 107.242 249.075C107.133 248.774 107.065 248.474 106.983 248.173C106.928 247.968 106.846 247.763 106.805 247.558C106.791 247.503 106.791 247.449 106.791 247.394C106.737 247.08 106.709 246.752 106.682 246.437C106.668 246.232 106.614 246.027 106.614 245.809C106.614 245.727 106.614 245.631 106.614 245.535L106.422 230.106C106.368 230.447 106.409 230.748 106.436 231.049Z" fill="#777784"/>
<path d="M106.436 230.516C106.463 230.83 106.491 231.158 106.545 231.472C106.6 231.732 106.668 231.992 106.737 232.251C106.819 232.552 106.887 232.853 106.996 233.153C107.078 233.399 107.201 233.645 107.311 233.891C107.447 234.206 107.584 234.52 107.748 234.834C107.871 235.067 108.021 235.285 108.158 235.504C108.377 235.859 108.609 236.215 108.869 236.57C109.115 236.912 109.374 237.24 109.675 237.568C109.743 237.65 109.798 237.718 109.88 237.8C110.276 238.224 110.7 238.647 111.165 239.057C111.452 239.317 111.78 239.577 112.094 239.823C112.381 240.055 112.641 240.274 112.941 240.492C113.283 240.738 113.666 240.984 114.035 241.217C114.417 241.463 114.786 241.722 115.196 241.955L183.106 281.424C184.022 281.957 184.978 282.422 185.976 282.873C186.263 282.996 186.55 283.119 186.851 283.242C187.63 283.57 188.422 283.87 189.242 284.144C189.529 284.239 189.816 284.349 190.117 284.444C190.636 284.608 191.156 284.745 191.675 284.895C192.071 285.005 192.468 285.114 192.878 285.223C193.424 285.36 193.985 285.469 194.559 285.579C194.941 285.661 195.324 285.743 195.707 285.811C196.841 286.016 198.003 286.166 199.164 286.289C199.52 286.33 199.889 286.344 200.244 286.385C200.927 286.44 201.611 286.494 202.294 286.522C202.731 286.535 203.182 286.549 203.62 286.563C204.18 286.576 204.727 286.576 205.287 286.576C205.752 286.576 206.216 286.563 206.681 286.535C207.2 286.522 207.706 286.494 208.225 286.453C208.69 286.426 209.168 286.385 209.633 286.33C210.139 286.276 210.644 286.221 211.15 286.166C211.601 286.112 212.052 286.043 212.517 285.975C213.063 285.893 213.596 285.797 214.129 285.702C214.553 285.62 214.977 285.538 215.4 285.442C216.043 285.305 216.658 285.141 217.286 284.977C217.642 284.882 217.983 284.8 218.339 284.69C219.459 284.362 220.553 283.993 221.605 283.583C222.124 283.378 222.63 283.16 223.136 282.927C223.395 282.804 223.669 282.709 223.928 282.586C224.694 282.217 225.445 281.834 226.156 281.424L294.517 241.955C300.516 238.497 303.509 233.946 303.496 229.409L303.687 244.838C303.701 249.376 300.708 253.913 294.708 257.384L226.347 296.854C225.637 297.264 224.885 297.646 224.12 298.015C223.86 298.138 223.587 298.248 223.327 298.357C222.876 298.562 222.425 298.767 221.96 298.945C221.906 298.972 221.851 298.986 221.796 298.999C220.744 299.409 219.651 299.778 218.53 300.106C218.434 300.134 218.352 300.175 218.27 300.188C218.011 300.257 217.751 300.311 217.491 300.38C216.863 300.544 216.248 300.708 215.605 300.844C215.441 300.885 215.277 300.926 215.1 300.967C214.854 301.022 214.594 301.049 214.334 301.104C213.801 301.2 213.268 301.295 212.722 301.377C212.503 301.405 212.298 301.459 212.079 301.487C211.847 301.514 211.601 301.541 211.369 301.569C210.863 301.637 210.357 301.692 209.852 301.733C209.606 301.76 209.373 301.787 209.127 301.815C208.895 301.828 208.676 301.842 208.444 301.856C207.925 301.897 207.419 301.924 206.9 301.938C206.64 301.951 206.38 301.979 206.121 301.979C205.916 301.979 205.711 301.979 205.506 301.979C204.945 301.992 204.399 301.979 203.838 301.965C203.565 301.965 203.278 301.965 203.005 301.965C202.841 301.965 202.677 301.938 202.513 301.938C201.829 301.91 201.146 301.856 200.463 301.801C200.189 301.774 199.902 301.774 199.629 301.746C199.547 301.733 199.465 301.719 199.383 301.705C198.221 301.582 197.06 301.418 195.925 301.227C195.871 301.213 195.816 301.213 195.748 301.2C195.42 301.145 195.092 301.049 194.764 300.995C194.203 300.885 193.643 300.776 193.083 300.639C192.673 300.544 192.276 300.421 191.88 300.311C191.361 300.175 190.828 300.024 190.322 299.86C190.213 299.819 190.09 299.806 189.98 299.765C189.789 299.71 189.625 299.628 189.447 299.56C188.627 299.286 187.835 298.986 187.069 298.658C186.782 298.535 186.482 298.412 186.195 298.289C185.211 297.838 184.24 297.373 183.325 296.84L115.415 257.371C115.292 257.302 115.169 257.22 115.046 257.152C114.773 256.988 114.527 256.797 114.267 256.633C113.898 256.387 113.515 256.154 113.174 255.908C112.873 255.69 112.6 255.457 112.326 255.239C112.012 254.979 111.684 254.733 111.397 254.473C111.342 254.419 111.26 254.378 111.206 254.323C110.809 253.968 110.454 253.599 110.112 253.216C110.044 253.134 109.976 253.052 109.907 252.984C109.702 252.751 109.497 252.533 109.32 252.287C109.238 252.191 109.183 252.082 109.115 251.972C108.855 251.617 108.623 251.262 108.404 250.906C108.308 250.756 108.185 250.606 108.103 250.455C108.062 250.373 108.035 250.305 107.994 250.223C107.83 249.909 107.693 249.594 107.557 249.28C107.475 249.102 107.365 248.911 107.297 248.733C107.27 248.665 107.27 248.61 107.242 248.542C107.133 248.241 107.065 247.941 106.983 247.64C106.928 247.435 106.846 247.23 106.805 247.025C106.791 246.97 106.791 246.916 106.791 246.861C106.737 246.547 106.709 246.219 106.682 245.904C106.668 245.699 106.614 245.494 106.614 245.276C106.614 245.194 106.614 245.098 106.614 245.002L106.422 229.573C106.368 229.928 106.409 230.215 106.436 230.516Z" fill="url(#paint0_linear_3701_8370)"/>
<path d="M115.347 217.082C103.443 223.956 103.361 235.108 115.21 241.996L183.12 281.465C194.955 288.34 214.212 288.34 226.129 281.465L294.49 241.996C306.407 235.108 306.462 223.97 294.626 217.082L226.717 177.612C214.868 170.724 195.639 170.724 183.708 177.612L115.347 217.082Z" fill="url(#paint1_linear_3701_8370)"/>
<path d="M115.196 240.848L183.106 280.317C194.941 287.192 214.198 287.192 226.115 280.317L294.476 240.848C300.202 237.541 303.154 233.263 303.4 228.931C303.66 233.646 300.708 238.402 294.476 241.996L226.115 281.465C214.211 288.34 194.941 288.34 183.106 281.465L115.196 241.996C109.046 238.415 106.135 233.687 106.409 228.999C106.641 233.304 109.552 237.554 115.196 240.848Z" fill="#FBFCFF"/>
<g opacity="0.2">
<path opacity="0.037" d="M265.899 233.454C265.475 254.788 237.855 271.543 204.221 270.86C170.587 270.176 143.664 252.341 144.101 230.994C144.525 209.66 172.145 192.905 205.779 193.588C239.413 194.272 266.322 212.12 265.899 233.454Z" fill="#141414"/>
<path opacity="0.074" d="M264.833 233.44C264.409 254.405 237.281 270.86 204.235 270.19C171.189 269.52 144.744 251.986 145.168 231.021C145.591 210.057 172.72 193.602 205.766 194.272C238.812 194.941 265.257 212.476 264.833 233.44Z" fill="#141414"/>
<path opacity="0.111" d="M263.767 233.414C263.357 254.009 236.707 270.163 204.248 269.507C171.79 268.851 145.823 251.645 146.233 231.049C146.643 210.454 173.293 194.3 205.752 194.956C238.21 195.612 264.177 212.832 263.767 233.414Z" fill="#141414"/>
<path opacity="0.148" d="M262.701 233.399C262.291 253.612 236.133 269.479 204.262 268.837C172.391 268.195 146.889 251.289 147.299 231.076C147.709 210.863 173.867 194.996 205.738 195.638C237.595 196.267 263.097 213.186 262.701 233.399Z" fill="#141414"/>
<path opacity="0.185" d="M261.635 233.372C261.238 253.216 235.559 268.783 204.29 268.154C173.02 267.525 147.983 250.934 148.379 231.09C148.775 211.246 174.455 195.68 205.725 196.308C236.994 196.937 262.031 213.528 261.635 233.372Z" fill="#141414"/>
<path opacity="0.222" d="M260.555 233.358C260.159 252.82 234.971 268.113 204.29 267.484C173.608 266.869 149.049 250.578 149.432 231.117C149.828 211.656 175.016 196.363 205.697 196.991C236.393 197.606 260.952 213.883 260.555 233.358Z" fill="#141414"/>
<path opacity="0.259" d="M259.489 233.331C259.106 252.424 234.397 267.416 204.303 266.801C174.209 266.2 150.115 250.223 150.511 231.131C150.894 212.039 175.603 197.046 205.697 197.661C235.791 198.263 259.872 214.239 259.489 233.331Z" fill="#141414"/>
<path opacity="0.296" d="M258.423 233.304C258.041 252.027 233.823 266.719 204.317 266.117C174.811 265.53 151.195 249.868 151.577 231.144C151.96 212.421 176.177 197.729 205.684 198.331C235.19 198.932 258.806 214.594 258.423 233.304Z" fill="#141414"/>
<path opacity="0.333" d="M257.357 233.29C256.988 251.631 233.249 266.035 204.33 265.448C175.412 264.86 152.274 249.526 152.643 231.172C153.012 212.831 176.751 198.426 205.67 199.014C234.588 199.602 257.726 214.949 257.357 233.29Z" fill="#141414"/>
<path opacity="0.37" d="M256.291 233.263C255.936 251.234 232.675 265.338 204.344 264.764C176.013 264.19 153.354 249.157 153.709 231.185C154.065 213.214 177.325 199.11 205.656 199.684C233.987 200.271 256.647 215.291 256.291 233.263Z" fill="#141414"/>
<path opacity="0.407" d="M255.225 233.249C254.87 250.852 232.101 264.655 204.358 264.095C176.615 263.535 154.42 248.816 154.775 231.227C155.131 213.624 177.899 199.821 205.643 200.381C233.372 200.928 255.581 215.647 255.225 233.249Z" fill="#141414"/>
<path opacity="0.444" d="M254.159 233.222C253.817 250.442 231.527 263.958 204.371 263.411C177.229 262.865 155.499 248.46 155.841 231.24C156.183 214.02 178.473 200.504 205.629 201.05C232.771 201.597 254.501 216.002 254.159 233.222Z" fill="#141414"/>
<path opacity="0.481" d="M253.093 233.208C252.751 250.059 230.953 263.288 204.399 262.742C177.844 262.209 156.593 248.118 156.921 231.267C157.262 214.416 179.061 201.187 205.615 201.734C232.169 202.267 253.421 216.357 253.093 233.208Z" fill="#141414"/>
<path opacity="0.518" d="M252.013 233.181C251.685 249.649 230.365 262.591 204.399 262.058C178.432 261.539 157.645 247.749 157.973 231.281C158.301 214.813 179.621 201.87 205.588 202.403C231.568 202.923 252.355 216.712 252.013 233.181Z" fill="#141414"/>
<path opacity="0.556" d="M250.947 233.154C250.619 249.253 229.791 261.895 204.412 261.375C179.033 260.87 158.725 247.394 159.053 231.295C159.381 215.196 180.209 202.554 205.588 203.073C230.967 203.593 251.275 217.054 250.947 233.154Z" fill="#141414"/>
<path opacity="0.593" d="M249.882 233.14C249.567 248.87 229.218 261.211 204.426 260.705C179.635 260.2 159.805 247.052 160.119 231.322C160.433 215.592 180.783 203.251 205.574 203.756C230.366 204.262 250.196 217.409 249.882 233.14Z" fill="#141414"/>
<path opacity="0.63" d="M248.816 233.112C248.501 248.46 228.644 260.514 204.44 260.022C180.236 259.53 160.871 246.697 161.185 231.336C161.499 215.988 181.357 203.934 205.561 204.426C229.764 204.918 249.13 217.765 248.816 233.112Z" fill="#141414"/>
<path opacity="0.667" d="M247.749 233.099C247.449 248.077 228.069 259.831 204.453 259.352C180.851 258.874 161.95 246.355 162.251 231.377C162.551 216.398 181.931 204.645 205.547 205.123C229.149 205.588 248.05 218.12 247.749 233.099Z" fill="#141414"/>
<path opacity="0.704" d="M246.683 233.072C246.396 247.681 227.495 259.134 204.467 258.669C181.452 258.205 163.03 245.987 163.317 231.391C163.604 216.781 182.505 205.328 205.533 205.793C228.548 206.258 246.97 218.476 246.683 233.072Z" fill="#141414"/>
<path opacity="0.741" d="M245.617 233.058C245.33 247.285 226.921 258.464 204.481 258C182.054 257.549 164.096 245.645 164.383 231.418C164.67 217.191 183.079 206.012 205.519 206.476C227.946 206.914 245.904 218.817 245.617 233.058Z" fill="#141414"/>
<path opacity="0.778" d="M244.552 233.03C244.278 246.888 226.348 257.767 204.508 257.316C182.669 256.879 165.189 245.289 165.463 231.431C165.736 217.573 183.667 206.695 205.506 207.146C227.345 207.583 244.825 219.172 244.552 233.03Z" fill="#141414"/>
<path opacity="0.815" d="M243.472 233.003C243.199 246.479 225.76 257.07 204.508 256.633C183.257 256.209 166.255 244.934 166.529 231.445C166.802 217.97 184.241 207.378 205.492 207.816C226.744 208.253 243.745 219.528 243.472 233.003Z" fill="#141414"/>
<path opacity="0.852" d="M242.406 232.989C242.146 246.096 225.186 256.387 204.522 255.963C183.858 255.553 167.321 244.579 167.595 231.472C167.854 218.366 184.815 208.075 205.479 208.499C226.143 208.922 242.679 219.883 242.406 232.989Z" fill="#141414"/>
<path opacity="0.889" d="M241.34 232.962C241.08 245.7 224.612 255.69 204.535 255.28C184.459 254.87 168.401 244.224 168.66 231.486C168.92 218.749 185.388 208.759 205.465 209.169C225.541 209.579 241.599 220.239 241.34 232.962Z" fill="#141414"/>
<path opacity="0.926" d="M240.274 232.948C240.028 245.303 224.038 255.006 204.549 254.624C185.074 254.227 169.481 243.895 169.727 231.541C169.973 219.186 185.963 209.483 205.451 209.865C224.926 210.248 240.52 220.58 240.274 232.948Z" fill="#141414"/>
<path opacity="0.963" d="M239.208 232.921C238.962 244.907 223.464 254.31 204.563 253.941C185.676 253.558 170.547 243.54 170.793 231.555C171.039 219.569 186.537 210.166 205.438 210.535C224.325 210.918 239.44 220.936 239.208 232.921Z" fill="#141414"/>
<path d="M238.142 232.907C237.91 244.524 222.876 253.626 204.577 253.271C186.277 252.902 171.626 243.185 171.859 231.582C172.091 219.965 187.124 210.863 205.424 211.218C223.724 211.574 238.374 221.291 238.142 232.907Z" fill="#141414"/>
</g>
<path d="M293.082 214.389L275.52 214.567L213.118 178.596C207.98 175.631 201.652 175.631 196.513 178.596L131.474 216.098L117.11 216.248V223.409C116.44 226.115 117.479 229.177 120.226 230.762L194.969 273.853C201.064 277.365 208.567 277.365 214.649 273.853L289.925 230.461C292.098 229.218 293.123 226.99 293.055 224.803L293.068 224.79V214.389H293.082Z" fill="#AAAAAA"/>
<path d="M293.082 214.047L275.52 214.239L213.118 178.268C207.98 175.302 201.652 175.302 196.513 178.268L131.474 215.756L117.11 215.906V223.067C116.44 225.773 117.479 228.835 120.226 230.42L194.969 273.511C201.064 277.023 208.567 277.023 214.649 273.511L289.925 230.119C292.098 228.876 293.123 226.648 293.055 224.461L293.068 224.448V214.047H293.082Z" fill="url(#paint2_linear_3701_8370)"/>
<path d="M214.662 263.111L289.938 219.719C294.12 217.3 294.12 211.259 289.938 208.854L213.118 164.574C207.979 161.608 201.652 161.608 196.513 164.574L120.226 208.54C115.798 211.095 115.798 217.478 120.226 220.02L194.969 263.111C201.078 266.623 208.567 266.623 214.662 263.111Z" fill="url(#paint3_linear_3701_8370)"/>
<path d="M289.118 214.293C289.118 214.69 289.009 215.687 287.957 216.302L259.844 232.511L246.424 240.246L212.681 259.694C210.289 261.074 207.569 261.799 204.809 261.799C202.048 261.799 199.328 261.074 196.937 259.694L177.284 248.364L122.194 216.603C120.991 215.906 120.854 214.758 120.854 214.293C120.854 213.829 120.977 212.681 122.194 211.984L166.692 186.331H166.706L179.471 178.965L198.467 168.018C200.394 166.911 202.581 166.323 204.795 166.323C207.009 166.323 209.21 166.911 211.123 168.018L240.602 185.006H240.615L287.943 212.284C289.009 212.886 289.118 213.883 289.118 214.293Z" fill="#F2DFC7"/>
<path d="M289.118 214.294C289.118 214.69 289.009 215.688 287.957 216.303L259.844 232.511L233.796 217.164L244.237 211.41L219.391 197.156L240.615 185.006H240.629L287.957 212.285C289.009 212.886 289.118 213.884 289.118 214.294Z" fill="#F2F2F2"/>
<path d="M238.784 183.926L219.405 197.142L213.706 193.862H196.363L199.643 190.882L180.66 179.976L179.512 178.938L198.508 167.991C200.435 166.884 202.622 166.296 204.836 166.296C207.05 166.296 209.25 166.884 211.164 167.991L238.784 183.926Z" fill="#7FC5D6"/>
<path d="M178.418 235.258L190.595 242.46L243.622 211.396L231.759 204.235L178.418 235.258Z" fill="#B6D174"/>
<path d="M159.381 224.721L177.817 237.048L177.312 248.351L122.221 216.589C121.019 215.892 120.882 214.744 120.882 214.28C120.882 213.815 121.005 212.667 122.221 211.97L166.72 186.318H166.734L197.074 202.499L159.381 224.721Z" fill="#F2DFC7"/>
<path d="M218.257 197.142L202.526 206.982L214.895 214.963L231.759 204.235L218.257 197.142Z" fill="#B6D174"/>
<path d="M188.395 197.142L175.726 205.069C174.305 205.957 174.291 208.021 175.699 208.936L185.033 214.963L201.911 204.221L188.395 197.142Z" fill="#B6D174"/>
<path d="M146.807 203.278L131.077 213.118L143.445 221.099L160.324 210.371L146.807 203.278Z" fill="#B6D174"/>
<path d="M269.985 205.137L254.255 214.977L266.623 222.958L283.502 212.216L269.985 205.137Z" fill="#B6D174"/>
<path d="M246.438 240.233L212.695 259.68C210.303 261.061 207.583 261.785 204.823 261.785C202.062 261.785 199.342 261.061 196.951 259.68L177.298 248.351L179.485 236.406L190.281 243.157L211 230.488L227.414 239.413L235.996 234.575L246.438 240.233Z" fill="#7FC5D6"/>
<path d="M252.191 215.045L245.836 211.382L248.282 209.947C252.574 207.419 252.478 201.187 248.132 198.782L245.535 197.347L253.476 192.536L251.672 191.497L243.731 196.294L231.609 189.297L231.281 189.871L230.611 189.475L219.295 196.048L213.678 192.796L197.866 193.575L202.444 190.91L180.796 178.418L178.418 179.799L198.262 191.265L190.322 195.884C189.57 196.322 188.641 196.322 187.889 195.884L175.835 188.928L173.457 190.322L184.746 196.827C185.621 197.333 185.634 198.604 184.746 199.123L175.712 204.385C173.034 205.943 173.047 209.811 175.726 211.355L178.2 212.776L170.779 217.081L159.722 210.699C158.533 210.016 158.52 208.28 159.722 207.597L182.71 194.231L180.919 193.192L157.44 206.831C155.404 208.02 155.404 210.959 157.454 212.134L168.414 218.462L162.36 221.988C160.009 223.354 160.009 226.757 162.374 228.124L177.844 237.048L176.71 248.46L178.678 248.651L179.717 238.128L189.803 243.936L201.146 237.349L211.437 243.294C210.754 244.059 210.357 244.961 210.357 245.932C210.357 248.146 212.421 250.018 215.25 250.647L213.897 256.715L216.849 256.455L218.106 250.865C221.646 250.619 224.42 248.501 224.42 245.932C224.42 243.198 221.277 240.971 217.396 240.971C215.988 240.971 214.676 241.258 213.569 241.763L203.524 235.969L210.931 231.65L224.12 239.262C226.115 240.41 228.561 240.41 230.543 239.249L235.6 236.31L243.8 241.039L246.178 239.659L237.978 234.916L248.925 228.561C256.264 224.325 257.74 218.243 252.191 215.045ZM217.368 243.157C219.541 243.157 221.318 244.401 221.318 245.945C221.318 247.476 219.555 248.733 217.368 248.733C215.195 248.733 213.419 247.49 213.419 245.945C213.419 244.415 215.182 243.157 217.368 243.157ZM244.251 198.112L246.847 199.602C250.346 201.624 250.346 206.667 246.861 208.69L244.046 210.316L233.809 204.412L244.251 198.112ZM195.638 211.874L201.433 208.499L212.353 214.799L206.544 218.175L195.638 211.874ZM204.18 219.555L199.465 222.302L188.545 216.002L193.26 213.255L204.18 219.555ZM203.825 207.132L209.633 203.756L220.539 210.057L214.744 213.432L203.825 207.132ZM222.343 211.095L232.579 217.013L226.785 220.375L216.548 214.471L222.343 211.095ZM224.721 209.701L231.418 205.806L241.654 211.724L234.957 215.619L224.721 209.701ZM231.746 190.896L242.447 197.073L232.005 203.387L221.086 197.087L231.746 190.896ZM229.627 204.781L222.931 208.676L212.011 202.376L218.721 198.481L229.627 204.781ZM194.668 195.447L211.97 194.572L216.917 197.429L186.755 214.963L182.368 212.435L199.397 202.54L192.304 198.454C191.675 198.098 191.675 197.196 192.304 196.827L194.668 195.447ZM177.38 205.492L187.11 199.834C187.971 199.328 189.051 199.328 189.912 199.834L195.201 202.895L180.564 211.396L177.38 209.565C175.822 208.663 175.822 206.408 177.38 205.492ZM180.263 213.993L197.073 223.696L189.666 228.001L177.68 221.072L180.263 213.993ZM164.396 222.876L176.765 215.687L171.325 230.543L164.396 226.552C162.989 225.732 162.989 223.696 164.396 222.876ZM178.323 234.588L173.334 231.705L173.772 231.691L176.833 223.354L187.274 229.381L178.323 234.588ZM190.363 241.545L180.127 235.627L198.877 224.721L209.114 230.639L190.363 241.545ZM201.255 223.341L214.157 215.838L224.393 221.755L211.492 229.258L201.255 223.341ZM225.828 237.527L213.282 230.297L219.172 226.867L233.782 235.299L229.955 237.527C228.684 238.265 227.113 238.265 225.828 237.527ZM247.121 227.564L236.16 233.919L221.55 225.486L243.444 212.763L249.799 216.439C254.364 219.063 253.161 224.051 247.121 227.564Z" fill="white"/>
<path d="M143.678 228.971L152.848 201.228L202.021 177.12C204.85 175.74 208.171 175.89 210.863 177.516L231.267 189.885L280.877 220.389" stroke="#AAA599" stroke-width="2.63972" stroke-miterlimit="10"/>
<path d="M196.363 179.17L218.434 191.525C220.84 192.878 220.867 196.322 218.489 197.716L191.921 213.145C189.434 214.58 189.447 218.175 191.948 219.596L206.613 227.96C209.346 229.518 212.708 229.504 215.428 227.919L228.589 220.238C232.511 217.956 237.363 218.011 241.23 220.402L260.336 232.224" stroke="#AAA599" stroke-width="2.63972" stroke-miterlimit="10"/>
<path d="M199.274 223.122L192.919 226.58C190.199 228.056 186.905 228.001 184.24 226.416L160.31 212.189L152.848 233.919" stroke="#AAA599" stroke-width="2.63972" stroke-miterlimit="10"/>
<path d="M231.281 189.871L239.919 184.582" stroke="#AAA599" stroke-width="2.63972" stroke-miterlimit="10"/>
<path d="M260.309 196.335L250.975 201.98" stroke="#AAA599" stroke-width="2.63972" stroke-miterlimit="10"/>
<path d="M277.16 206.052L263.808 214.485C261.43 215.988 261.485 219.473 263.917 220.894L271.871 225.555" stroke="#AAA599" stroke-width="2.63972" stroke-miterlimit="10"/>
<path d="M242.447 221.1L231.281 228.001L246.438 236.174L224.721 247.353" stroke="#AAA599" stroke-width="2.63972" stroke-miterlimit="10"/>
<path d="M211.013 203.278L173.334 182.505" stroke="#AAA599" stroke-width="2.63972" stroke-miterlimit="10"/>
<path d="M289.939 219.036L214.663 262.427C208.567 265.94 201.064 265.94 194.983 262.427L120.24 219.336C118.149 218.134 117.055 216.056 116.946 213.938C116.823 216.289 117.916 218.68 120.24 220.02L194.983 263.111C201.078 266.623 208.581 266.623 214.663 263.111L289.939 219.719C292.139 218.448 293.178 216.166 293.055 213.938C292.959 215.933 291.92 217.888 289.939 219.036Z" fill="url(#paint4_linear_3701_8370)"/>
<path opacity="0.33" d="M201.528 214.963C215.59 214.963 226.989 208.551 226.989 200.64C226.989 192.73 215.59 186.318 201.528 186.318C187.467 186.318 176.067 192.73 176.067 200.64C176.067 208.551 187.467 214.963 201.528 214.963Z" fill="#2AC2DB"/>
<path d="M201.528 208.294C209.046 208.294 215.14 204.867 215.14 200.641C215.14 196.414 209.046 192.987 201.528 192.987C194.011 192.987 187.917 196.414 187.917 200.641C187.917 204.867 194.011 208.294 201.528 208.294Z" fill="white"/>
<path d="M225.035 102.5C224.584 102.76 224.12 102.965 223.628 103.156C223.272 103.293 222.89 103.388 222.507 103.484C222.439 103.498 222.357 103.525 222.288 103.539C221.851 103.634 221.386 103.675 220.922 103.716C220.826 103.716 220.73 103.73 220.635 103.73C220.184 103.744 219.719 103.744 219.241 103.703C219.186 103.703 219.131 103.689 219.077 103.689C218.585 103.634 218.079 103.566 217.56 103.457C217.505 103.443 217.45 103.429 217.396 103.416C216.863 103.293 216.33 103.142 215.783 102.965C215.742 102.951 215.715 102.937 215.674 102.924C215.1 102.732 214.526 102.5 213.924 102.227C213.883 102.213 213.842 102.186 213.815 102.172C213.214 101.899 212.612 101.584 211.997 101.229C211.382 100.874 210.767 100.477 210.166 100.067C210.125 100.04 210.098 100.013 210.057 99.9855C209.496 99.5892 208.936 99.1792 208.389 98.7282C208.321 98.6735 208.266 98.6325 208.212 98.5778C207.679 98.1405 207.159 97.6895 206.654 97.2112C206.599 97.1565 206.531 97.1018 206.476 97.0472C205.957 96.5552 205.451 96.0495 204.959 95.5302C204.918 95.4892 204.877 95.4482 204.836 95.3935C204.303 94.8332 203.784 94.2455 203.292 93.6305L203.278 93.6168C202.759 93.0018 202.267 92.3595 201.775 91.7035C201.775 91.7035 201.775 91.6898 201.761 91.6898C201.324 91.0885 200.9 90.4735 200.49 89.8585C200.23 89.4758 199.998 89.0795 199.752 88.6832C199.547 88.3552 199.342 88.0272 199.137 87.6855C199.041 87.5215 198.959 87.3712 198.864 87.2072C198.549 86.6468 198.235 86.0728 197.934 85.4988C197.907 85.4305 197.866 85.3758 197.839 85.3075C197.483 84.6105 197.155 83.8998 196.841 83.1892C196.827 83.1482 196.814 83.1072 196.786 83.0798C196.486 82.3828 196.199 81.6722 195.939 80.9615C195.925 80.9205 195.898 80.8658 195.884 80.8248C195.611 80.1005 195.379 79.3762 195.146 78.6382C195.133 78.5972 195.119 78.5562 195.105 78.5015C194.9 77.8045 194.709 77.0938 194.545 76.3968C194.531 76.3285 194.518 76.2602 194.504 76.1918C194.34 75.4675 194.19 74.7432 194.08 74.0325C194.08 74.0188 194.08 74.0052 194.08 74.0052C193.971 73.2808 193.875 72.5565 193.821 71.8458C193.821 71.7912 193.807 71.7228 193.807 71.6682C193.752 70.9575 193.725 70.2468 193.725 69.5498C193.725 68.8528 193.766 68.1832 193.821 67.5408C193.821 67.4862 193.834 67.4178 193.834 67.3632C193.889 66.7755 193.971 66.2015 194.08 65.6548C194.094 65.5865 194.108 65.5045 194.121 65.4362C194.231 64.9032 194.367 64.3975 194.518 63.9055C194.545 63.8098 194.572 63.7278 194.613 63.6322C194.764 63.1812 194.941 62.7438 195.119 62.3202C195.146 62.2792 195.16 62.2245 195.174 62.1698C195.392 61.6915 195.638 61.2542 195.912 60.8305C195.953 60.7758 195.994 60.7348 196.021 60.6802C196.24 60.3522 196.486 60.0378 196.732 59.7372C196.827 59.6278 196.923 59.5322 197.019 59.4228C197.237 59.1905 197.47 58.9582 197.702 58.7532C197.798 58.6712 197.893 58.5755 198.003 58.4935C198.344 58.2202 198.686 57.9742 199.069 57.7555L184.992 65.9282C184.623 66.1468 184.268 66.3928 183.926 66.6662C183.83 66.7482 183.735 66.8302 183.625 66.9258C183.379 67.1308 183.161 67.3632 182.928 67.5955C182.833 67.6912 182.737 67.8005 182.655 67.8962C182.409 68.1968 182.163 68.5112 181.944 68.8392C181.903 68.8938 181.862 68.9348 181.835 68.9895C181.821 69.0032 181.821 69.0168 181.808 69.0305C181.562 69.4268 181.329 69.8368 181.111 70.2878C181.097 70.3015 181.097 70.3152 181.097 70.3288C181.07 70.3698 181.056 70.4245 181.042 70.4792C180.919 70.7525 180.796 71.0395 180.687 71.3265C180.632 71.4768 180.591 71.6272 180.537 71.7775C180.509 71.8732 180.482 71.9552 180.441 72.0508C180.414 72.1328 180.386 72.2148 180.359 72.2968C180.263 72.5975 180.195 72.9118 180.113 73.2398C180.086 73.3492 180.072 73.4722 180.045 73.5815C180.031 73.6498 180.017 73.7318 180.004 73.8002C179.976 73.9095 179.963 74.0188 179.935 74.1282C179.881 74.4152 179.84 74.7022 179.799 75.0028C179.771 75.1668 179.758 75.3308 179.744 75.5085C179.744 75.5632 179.73 75.6178 179.73 75.6862C179.73 75.7545 179.717 75.8228 179.703 75.8912C179.676 76.1782 179.662 76.4652 179.648 76.7522C179.635 77.0392 179.635 77.3398 179.621 77.6405C179.621 77.6542 179.621 77.6815 179.621 77.6952C179.621 77.9685 179.621 78.2418 179.635 78.5288C179.648 78.8295 179.662 79.1165 179.676 79.4172C179.689 79.5538 179.703 79.6905 179.703 79.8272C179.703 79.8818 179.717 79.9502 179.717 80.0048C179.73 80.1142 179.73 80.2098 179.744 80.3192C179.771 80.6198 179.812 80.9205 179.84 81.2212C179.881 81.5218 179.922 81.8362 179.976 82.1368C179.976 82.1505 179.976 82.1505 179.976 82.1642C179.976 82.1778 179.976 82.1915 179.976 82.1915C180.017 82.4785 180.072 82.7655 180.127 83.0662C180.181 83.3805 180.25 83.7085 180.318 84.0228C180.345 84.1322 180.373 84.2415 180.4 84.3645C180.414 84.4328 180.427 84.5012 180.441 84.5695C180.468 84.7062 180.509 84.8565 180.537 84.9932C180.619 85.3212 180.701 85.6355 180.796 85.9635C180.865 86.1958 180.933 86.4418 181.001 86.6742C181.015 86.7152 181.029 86.7562 181.042 86.8108C181.056 86.8518 181.07 86.8928 181.083 86.9338C181.179 87.2482 181.288 87.5625 181.384 87.8768C181.493 88.1912 181.603 88.5055 181.712 88.8062C181.739 88.8608 181.753 88.9155 181.78 88.9838C181.794 89.0248 181.821 89.0795 181.835 89.1205C181.903 89.3118 181.985 89.5168 182.054 89.7082C182.163 90.0088 182.286 90.3095 182.409 90.5965C182.491 90.8152 182.587 91.0202 182.682 91.2388C182.696 91.2798 182.71 91.3208 182.737 91.3482C182.751 91.3892 182.778 91.4302 182.792 91.4712C182.928 91.7718 183.051 92.0588 183.202 92.3595C183.352 92.6875 183.502 93.0018 183.666 93.3162C183.694 93.3708 183.721 93.4118 183.735 93.4665C183.762 93.5348 183.803 93.5895 183.83 93.6578C183.967 93.9175 184.09 94.1772 184.227 94.4232C184.391 94.7375 184.582 95.0518 184.76 95.3662C184.855 95.5302 184.937 95.6805 185.033 95.8445C185.074 95.9128 185.101 95.9675 185.142 96.0358C185.306 96.3092 185.484 96.5688 185.648 96.8422C185.894 97.2385 186.126 97.6348 186.386 98.0175C186.427 98.0858 186.468 98.1405 186.509 98.2088C186.878 98.7692 187.274 99.3295 187.671 99.8625C187.944 100.218 188.204 100.587 188.491 100.928C188.709 101.215 188.942 101.489 189.174 101.776L189.188 101.789C189.188 101.789 189.188 101.803 189.201 101.803C189.434 102.09 189.666 102.363 189.912 102.637C190.144 102.91 190.39 103.17 190.623 103.429C190.664 103.47 190.705 103.511 190.746 103.552C190.787 103.593 190.828 103.634 190.869 103.689C191.033 103.867 191.21 104.044 191.374 104.222C191.634 104.482 191.88 104.741 192.153 104.987C192.235 105.069 192.317 105.138 192.399 105.22C192.454 105.274 192.522 105.329 192.577 105.384C192.7 105.507 192.823 105.616 192.96 105.739C193.233 105.985 193.506 106.217 193.78 106.45C193.903 106.545 194.026 106.641 194.149 106.75C194.217 106.805 194.272 106.846 194.326 106.901C194.422 106.969 194.504 107.051 194.6 107.119C194.859 107.324 195.133 107.529 195.406 107.734C195.597 107.885 195.802 108.021 195.994 108.158C196.035 108.185 196.062 108.213 196.103 108.24C196.13 108.267 196.171 108.295 196.199 108.308C196.458 108.486 196.718 108.65 196.978 108.828C197.237 108.992 197.497 109.156 197.757 109.306C197.811 109.347 197.88 109.374 197.934 109.415C198.126 109.525 198.331 109.634 198.522 109.743C198.768 109.88 199.028 110.017 199.274 110.14C199.438 110.222 199.602 110.29 199.752 110.372C199.793 110.386 199.834 110.413 199.861 110.427C199.916 110.454 199.957 110.468 200.012 110.495C200.258 110.604 200.504 110.714 200.75 110.809C200.996 110.905 201.242 111.001 201.488 111.083C201.529 111.096 201.57 111.11 201.611 111.124C201.652 111.137 201.679 111.151 201.72 111.165C201.884 111.219 202.062 111.274 202.226 111.329C202.485 111.411 202.731 111.479 202.991 111.534C203.114 111.561 203.223 111.588 203.346 111.616C203.401 111.629 203.456 111.643 203.51 111.657C203.592 111.67 203.674 111.698 203.743 111.711C204.016 111.766 204.276 111.807 204.549 111.848C204.713 111.875 204.877 111.875 205.027 111.903C205.082 111.903 205.137 111.916 205.191 111.916C205.246 111.916 205.301 111.93 205.355 111.93C205.642 111.944 205.929 111.957 206.216 111.957C206.339 111.957 206.462 111.944 206.585 111.944C206.681 111.944 206.777 111.93 206.872 111.93C206.968 111.93 207.077 111.93 207.173 111.916C207.528 111.889 207.884 111.834 208.225 111.766H208.239C208.321 111.752 208.389 111.725 208.458 111.711C208.813 111.629 209.168 111.547 209.496 111.424C209.524 111.411 209.551 111.397 209.578 111.383C210.07 111.206 210.535 110.987 210.986 110.727L225.035 102.5Z" fill="#B23939"/>
<path d="M253.202 100.833C253.202 100.71 253.189 100.601 253.189 100.478C253.175 100.232 253.161 99.972 253.148 99.726C253.134 99.4254 253.12 99.1384 253.107 98.8377C253.093 98.6054 253.066 98.3867 253.052 98.1544C253.038 97.8947 253.011 97.6214 252.984 97.3617C252.97 97.184 252.956 97.02 252.943 96.8424C252.902 96.4597 252.861 96.077 252.82 95.708C252.792 95.4894 252.779 95.2707 252.751 95.052C252.738 94.9837 252.738 94.9017 252.724 94.8334C252.642 94.15 252.533 93.453 252.423 92.7697C252.423 92.756 252.423 92.7424 252.41 92.7287C252.396 92.633 252.369 92.5237 252.355 92.428C252.259 91.854 252.164 91.28 252.054 90.6924C252.041 90.583 252.013 90.4874 251.986 90.378C251.931 90.1047 251.877 89.8177 251.822 89.5444C251.754 89.2164 251.685 88.8747 251.617 88.5467C251.576 88.3554 251.535 88.1777 251.48 87.9864C251.412 87.6857 251.344 87.385 251.275 87.0844C251.221 86.852 251.166 86.6197 251.111 86.401C251.043 86.1277 250.961 85.8407 250.893 85.5674C250.811 85.2667 250.742 84.966 250.66 84.6654C250.619 84.515 250.578 84.3647 250.537 84.228C250.428 83.8317 250.305 83.4354 250.182 83.039C250.114 82.7794 250.032 82.5334 249.963 82.2737C249.936 82.2054 249.922 82.1234 249.895 82.055C249.676 81.3444 249.444 80.6337 249.212 79.923C249.212 79.9094 249.212 79.9094 249.198 79.8957C249.171 79.8274 249.143 79.759 249.13 79.6907C248.925 79.0757 248.706 78.447 248.487 77.832C248.446 77.7364 248.405 77.627 248.378 77.5314C248.296 77.299 248.2 77.053 248.105 76.8207C247.982 76.479 247.859 76.151 247.722 75.8094C247.64 75.5907 247.544 75.372 247.462 75.167C247.353 74.9074 247.257 74.6477 247.148 74.388C247.066 74.1967 246.998 74.0054 246.916 73.814C246.752 73.4314 246.588 73.0487 246.424 72.666C246.342 72.461 246.246 72.256 246.164 72.0647C246.137 71.9964 246.109 71.928 246.068 71.846C245.768 71.1764 245.467 70.5204 245.166 69.8644C245.153 69.837 245.139 69.8097 245.125 69.7824C245.03 69.591 244.934 69.3997 244.852 69.2084C244.606 68.7027 244.374 68.197 244.114 67.6914C244.073 67.6094 244.032 67.5274 243.991 67.459C243.786 67.049 243.567 66.639 243.349 66.2154C243.171 65.8874 243.007 65.5457 242.829 65.2177C242.802 65.163 242.761 65.0947 242.734 65.04C242.16 63.974 241.572 62.908 240.957 61.8694C240.902 61.7874 240.861 61.6917 240.807 61.596C240.752 61.5004 240.684 61.4047 240.615 61.2954C239.741 59.8194 238.839 58.3707 237.896 56.9494C237.841 56.8674 237.8 56.7854 237.745 56.717C237.663 56.5804 237.568 56.4574 237.472 56.3344C236.174 54.4074 234.807 52.5214 233.372 50.7037C233.345 50.6764 233.317 50.6354 233.29 50.608C232.853 50.0477 232.402 49.501 231.964 48.9544C231.882 48.8587 231.8 48.7494 231.732 48.6537C231.732 48.64 231.718 48.64 231.718 48.6264C231.199 47.9977 230.666 47.369 230.133 46.7677C230.106 46.7404 230.078 46.713 230.051 46.672C229.887 46.4807 229.709 46.303 229.545 46.1117C229.204 45.729 228.876 45.36 228.534 44.991C228.466 44.9227 228.397 44.8544 228.343 44.786C228.11 44.54 227.864 44.294 227.632 44.0344C227.372 43.761 227.113 43.4877 226.853 43.2144C226.757 43.1187 226.662 43.023 226.552 42.9274C226.293 42.6677 226.033 42.408 225.773 42.162C225.555 41.9434 225.336 41.7247 225.104 41.506C224.981 41.383 224.844 41.2737 224.721 41.1507C224.448 40.891 224.161 40.6314 223.874 40.3717C223.682 40.194 223.491 40.0027 223.286 39.825C223.136 39.6884 222.972 39.5517 222.821 39.415C222.534 39.169 222.261 38.923 221.974 38.677C221.796 38.5267 221.632 38.3764 221.455 38.226C221.263 38.062 221.072 37.9254 220.894 37.7614C220.621 37.529 220.334 37.3104 220.061 37.078C219.91 36.955 219.774 36.8457 219.623 36.7227C219.391 36.5314 219.145 36.3537 218.913 36.176C218.653 35.971 218.393 35.7797 218.134 35.5884C218.024 35.5064 217.929 35.4244 217.819 35.3424C217.505 35.11 217.177 34.8777 216.849 34.659C216.63 34.5087 216.412 34.3447 216.193 34.1944C216.138 34.1534 216.084 34.1124 216.029 34.0714C215.455 33.675 214.867 33.2924 214.28 32.9097C214.28 32.9097 214.266 32.9097 214.266 32.896C214.225 32.8687 214.184 32.8414 214.143 32.814C213.61 32.4724 213.077 32.1444 212.544 31.83C212.407 31.748 212.271 31.666 212.134 31.5977C211.697 31.3517 211.259 31.1057 210.822 30.8597C210.658 30.764 210.494 30.6957 210.33 30.6C210.111 30.477 209.879 30.3677 209.66 30.2584C209.483 30.1764 209.319 30.0807 209.141 29.985C208.868 29.8484 208.594 29.7254 208.307 29.5887C208.116 29.493 207.911 29.3974 207.72 29.3154C207.638 29.2744 207.556 29.2334 207.474 29.206C206.927 28.96 206.367 28.7277 205.82 28.509C205.26 28.2904 204.713 28.0717 204.166 27.8804C204.098 27.853 204.03 27.8394 203.948 27.812C203.743 27.7437 203.551 27.689 203.36 27.6207C203.087 27.525 202.8 27.4294 202.526 27.3474C202.39 27.3064 202.253 27.279 202.116 27.238C201.87 27.1697 201.638 27.1014 201.392 27.033C201.201 26.9784 201.023 26.9237 200.832 26.8827C200.64 26.828 200.449 26.8007 200.244 26.7597C199.998 26.705 199.766 26.6504 199.52 26.5957C199.397 26.5684 199.26 26.541 199.137 26.5137C198.905 26.4727 198.686 26.4454 198.467 26.4044C198.194 26.3497 197.907 26.3087 197.634 26.2677C197.538 26.254 197.442 26.2267 197.333 26.213C197.101 26.1857 196.882 26.172 196.65 26.1447C196.349 26.1174 196.048 26.0764 195.761 26.049C195.679 26.049 195.584 26.0354 195.502 26.0217C195.297 26.008 195.105 26.008 194.9 26.008C194.545 25.9944 194.203 25.9807 193.848 25.967C193.752 25.967 193.657 25.9534 193.561 25.9534C193.411 25.9534 193.26 25.967 193.11 25.9807C192.673 25.9944 192.235 26.008 191.812 26.0354C191.689 26.049 191.552 26.049 191.415 26.049C191.32 26.0627 191.224 26.0764 191.128 26.09C190.472 26.1584 189.83 26.254 189.201 26.3634C189.147 26.377 189.092 26.377 189.037 26.3907C189.024 26.3907 189.01 26.4044 188.996 26.4044C188.86 26.4317 188.737 26.4727 188.614 26.5C188.217 26.582 187.835 26.6777 187.452 26.787C187.261 26.8417 187.083 26.91 186.892 26.9647C186.646 27.0467 186.4 27.115 186.167 27.197C186.113 27.2244 186.044 27.2517 185.99 27.2654C185.621 27.402 185.252 27.5524 184.896 27.7164C184.719 27.7984 184.541 27.853 184.377 27.935C183.858 28.181 183.338 28.4407 182.833 28.7414L168.783 36.9004C169.289 36.6134 169.795 36.34 170.328 36.094C170.505 36.012 170.683 35.9437 170.847 35.8754C171.202 35.725 171.571 35.561 171.94 35.438C172.241 35.3287 172.542 35.233 172.856 35.1374C173.047 35.0827 173.225 35.0144 173.416 34.9597C173.799 34.8504 174.182 34.7547 174.578 34.6727C174.701 34.6454 174.838 34.6044 174.961 34.577C175.029 34.5634 175.097 34.5497 175.166 34.536C175.794 34.413 176.437 34.3174 177.093 34.2627C177.311 34.2354 177.544 34.2217 177.762 34.208C178.186 34.1807 178.623 34.1534 179.061 34.1397C179.307 34.1397 179.553 34.126 179.799 34.126C180.14 34.126 180.496 34.1397 180.851 34.167C181.138 34.1807 181.425 34.1944 181.712 34.208C181.999 34.2354 182.3 34.2627 182.6 34.3037C182.928 34.3447 183.243 34.372 183.584 34.4267C183.858 34.4677 184.145 34.5224 184.418 34.5634C184.773 34.618 185.115 34.6864 185.47 34.7547C185.716 34.8094 185.949 34.864 186.195 34.9187C186.577 35.0007 186.946 35.0964 187.329 35.2057C187.575 35.274 187.807 35.3424 188.053 35.4107C188.463 35.5337 188.887 35.6567 189.311 35.7934C189.516 35.8617 189.707 35.9164 189.912 35.9847C190.527 36.2034 191.156 36.422 191.784 36.6817C192.413 36.9277 193.042 37.201 193.684 37.5017C193.875 37.5974 194.08 37.693 194.272 37.775C194.723 37.98 195.174 38.2124 195.625 38.431C195.843 38.5404 196.076 38.6634 196.294 38.7727C196.896 39.087 197.497 39.415 198.098 39.7567C198.768 40.1394 199.438 40.5494 200.107 40.973C200.148 41.0004 200.189 41.0277 200.23 41.055C200.886 41.465 201.529 41.9024 202.171 42.3397C202.39 42.49 202.608 42.654 202.827 42.8044C203.251 43.105 203.688 43.4194 204.112 43.7337C204.371 43.925 204.631 44.13 204.891 44.3214C205.273 44.622 205.656 44.909 206.039 45.2234C206.312 45.442 206.599 45.6744 206.872 45.9067C207.241 46.2074 207.597 46.508 207.952 46.8224C208.239 47.0684 208.526 47.3144 208.799 47.5604C209.155 47.8747 209.496 48.189 209.852 48.5034C210.139 48.763 210.412 49.0227 210.699 49.2824C211.054 49.6104 211.396 49.952 211.751 50.2937C212.011 50.5534 212.271 50.7994 212.53 51.059C212.886 51.428 213.255 51.797 213.61 52.166C213.842 52.412 214.088 52.658 214.321 52.904C214.731 53.3414 215.141 53.7924 215.537 54.2434C215.701 54.4347 215.865 54.6124 216.029 54.79C216.603 55.4324 217.163 56.102 217.724 56.758C217.806 56.8537 217.874 56.9494 217.956 57.045C218.434 57.619 218.899 58.2067 219.364 58.7944C219.951 59.546 220.525 60.2977 221.086 61.063C221.099 61.0767 221.099 61.0904 221.113 61.104C221.919 62.1974 222.685 63.3044 223.45 64.4387C223.587 64.6437 223.723 64.8487 223.86 65.0537C224.803 66.475 225.705 67.9237 226.58 69.386C226.689 69.5774 226.812 69.7687 226.921 69.96C227.536 71.0124 228.124 72.0647 228.698 73.1307C228.903 73.5134 229.108 73.9097 229.313 74.306C229.532 74.716 229.75 75.126 229.955 75.5497C230.242 76.1374 230.529 76.7114 230.816 77.299C230.912 77.4904 231.008 77.6817 231.09 77.873C231.445 78.6384 231.787 79.39 232.128 80.1554C232.21 80.3604 232.306 80.5654 232.388 80.7567C232.634 81.3307 232.88 81.9047 233.112 82.465C233.222 82.7247 233.317 82.9844 233.427 83.244C233.645 83.7907 233.864 84.351 234.069 84.9114C234.151 85.1437 234.247 85.376 234.329 85.6084C234.588 86.3327 234.848 87.0434 235.094 87.7677C235.121 87.836 235.149 87.9044 235.162 87.9727C235.422 88.7654 235.682 89.558 235.914 90.3507C235.996 90.6104 236.064 90.8564 236.133 91.116C236.297 91.6627 236.447 92.2094 236.597 92.756C236.679 93.0567 236.761 93.3574 236.83 93.658C236.966 94.1637 237.089 94.683 237.212 95.1887C237.281 95.4894 237.349 95.79 237.417 96.0907C237.54 96.61 237.65 97.1294 237.759 97.6624C237.814 97.9357 237.868 98.2227 237.923 98.496C238.06 99.1794 238.169 99.8627 238.292 100.546C238.306 100.642 238.333 100.751 238.347 100.847C238.47 101.626 238.579 102.405 238.675 103.184C238.702 103.402 238.729 103.621 238.743 103.84C238.811 104.4 238.866 104.947 238.907 105.507C238.934 105.767 238.948 106.04 238.975 106.3C239.016 106.819 239.044 107.352 239.071 107.871C239.085 108.117 239.098 108.377 239.112 108.623C239.139 109.361 239.153 110.099 239.153 110.837C239.153 112.067 239.098 113.27 239.016 114.431C239.016 114.513 239.003 114.595 239.003 114.664C238.907 115.853 238.77 117.014 238.606 118.121C238.593 119.31 238.552 120.486 238.483 121.661C238.47 122.003 238.442 122.331 238.415 122.672C238.36 123.492 238.278 124.312 238.196 125.132C238.142 125.611 238.101 126.089 238.046 126.567C237.95 127.319 237.841 128.057 237.732 128.809C237.65 129.342 237.581 129.861 237.499 130.394C237.417 130.886 237.308 131.378 237.226 131.87C237.048 132.868 236.843 133.852 236.625 134.836C236.461 135.601 236.283 136.38 236.092 137.145C236.023 137.419 235.955 137.706 235.887 137.979C235.6 139.1 235.285 140.22 234.957 141.341C234.807 141.86 234.629 142.366 234.479 142.872C234.26 143.582 234.042 144.307 233.796 145.004C233.618 145.537 233.427 146.056 233.235 146.589C233.003 147.245 232.784 147.887 232.538 148.53C231.964 150.074 231.349 151.591 230.721 153.094C230.57 153.45 230.42 153.791 230.27 154.133C229.75 155.349 229.204 156.552 228.643 157.741C228.452 158.137 228.274 158.534 228.083 158.916C227.55 160.037 226.99 161.144 226.429 162.237C226.32 162.442 226.224 162.647 226.129 162.839C225.459 164.123 224.776 165.394 224.079 166.638C223.887 166.993 223.682 167.335 223.477 167.69C222.972 168.592 222.452 169.481 221.947 170.342C221.701 170.752 221.468 171.148 221.222 171.544C220.717 172.392 220.197 173.212 219.692 174.032C219.459 174.387 219.241 174.756 219.008 175.111C218.68 175.631 218.352 176.123 218.024 176.628C217.724 177.079 217.423 177.544 217.136 177.995C216.808 178.487 216.48 178.979 216.138 179.457C215.838 179.895 215.551 180.332 215.25 180.756C214.922 181.234 214.594 181.699 214.266 182.163C213.979 182.573 213.678 182.983 213.391 183.393C213.063 183.844 212.749 184.282 212.421 184.719C212.134 185.102 211.847 185.498 211.574 185.881C211.259 186.318 210.945 186.728 210.617 187.138C210.344 187.493 210.07 187.862 209.797 188.218C209.483 188.628 209.182 189.024 208.868 189.42C208.608 189.748 208.348 190.09 208.089 190.418C207.774 190.814 207.474 191.183 207.173 191.566C206.941 191.867 206.695 192.167 206.462 192.454C206.162 192.823 205.888 193.165 205.601 193.507C205.383 193.78 205.15 194.067 204.932 194.327C204.658 194.655 204.399 194.955 204.139 195.256C203.92 195.516 203.702 195.775 203.497 196.021C203.251 196.322 203.005 196.582 202.772 196.869C202.581 197.087 202.376 197.333 202.185 197.538C201.952 197.812 201.734 198.044 201.515 198.304C201.351 198.495 201.173 198.7 201.009 198.878C200.791 199.124 200.599 199.342 200.394 199.561C200.258 199.711 200.107 199.875 199.984 200.012C199.793 200.217 199.629 200.395 199.465 200.572C199.342 200.695 199.219 200.846 199.11 200.955C198.946 201.133 198.795 201.283 198.659 201.433C198.577 201.515 198.495 201.611 198.426 201.693C198.276 201.857 198.153 201.98 198.03 202.103C198.003 202.144 197.948 202.185 197.921 202.226C197.784 202.363 197.688 202.472 197.62 202.54L211.697 194.368C211.765 194.299 211.861 194.204 211.997 194.053C212.025 194.026 212.079 193.971 212.107 193.93C212.23 193.807 212.339 193.684 212.503 193.52C212.571 193.452 212.667 193.343 212.735 193.274C212.886 193.124 213.022 192.974 213.186 192.796C213.296 192.673 213.446 192.523 213.569 192.386C213.733 192.208 213.883 192.058 214.061 191.853C214.198 191.703 214.362 191.525 214.512 191.361C214.703 191.142 214.881 190.951 215.1 190.719C215.264 190.541 215.441 190.336 215.605 190.145C215.824 189.899 216.043 189.653 216.275 189.379C216.453 189.174 216.658 188.942 216.849 188.723C217.095 188.436 217.341 188.163 217.601 187.862C217.806 187.63 218.011 187.37 218.229 187.124C218.503 186.81 218.762 186.496 219.036 186.168C219.254 185.894 219.487 185.607 219.719 185.334C220.006 184.992 220.279 184.651 220.566 184.295C220.799 184.008 221.058 183.694 221.304 183.38C221.605 183.011 221.892 182.642 222.193 182.259C222.452 181.931 222.712 181.589 222.972 181.248C223.272 180.851 223.587 180.469 223.887 180.059C224.161 179.703 224.434 179.334 224.707 178.965C225.022 178.555 225.336 178.145 225.65 177.722C225.937 177.339 226.224 176.943 226.511 176.546C226.826 176.109 227.154 175.672 227.468 175.221C227.755 174.824 228.042 174.401 228.343 173.991C228.671 173.526 228.999 173.061 229.327 172.583C229.627 172.159 229.914 171.722 230.215 171.285C230.543 170.806 230.871 170.328 231.199 169.822C231.5 169.371 231.8 168.907 232.101 168.456C232.429 167.95 232.757 167.458 233.085 166.939C233.167 166.816 233.249 166.693 233.331 166.57C233.481 166.337 233.618 166.091 233.768 165.859C234.288 165.039 234.793 164.219 235.299 163.372C235.545 162.975 235.777 162.565 236.023 162.155C236.543 161.281 237.048 160.406 237.554 159.504C237.759 159.149 237.95 158.807 238.155 158.452C238.852 157.208 239.536 155.937 240.205 154.652C240.301 154.461 240.397 154.256 240.506 154.065C241.066 152.971 241.627 151.851 242.16 150.73C242.242 150.566 242.324 150.402 242.406 150.238C242.515 150.019 242.611 149.787 242.706 149.555C243.267 148.366 243.813 147.163 244.333 145.947C244.483 145.605 244.633 145.263 244.784 144.908C245.412 143.405 246.027 141.888 246.601 140.343C246.642 140.248 246.683 140.152 246.711 140.056C246.916 139.51 247.093 138.949 247.298 138.403C247.49 137.87 247.681 137.35 247.859 136.817C248.091 136.107 248.323 135.396 248.542 134.685C248.706 134.18 248.87 133.66 249.02 133.155C249.048 133.086 249.061 133.018 249.089 132.936C249.389 131.897 249.676 130.845 249.95 129.793C250.018 129.519 250.086 129.232 250.155 128.959C250.291 128.412 250.428 127.879 250.551 127.333C250.606 127.114 250.633 126.882 250.688 126.649C250.906 125.665 251.098 124.668 251.289 123.684C251.357 123.328 251.439 122.987 251.494 122.645C251.521 122.508 251.535 122.358 251.562 122.221C251.644 121.688 251.726 121.169 251.795 120.636C251.877 120.089 251.972 119.556 252.041 119.01C252.068 118.805 252.082 118.6 252.109 118.395C252.164 117.916 252.218 117.438 252.259 116.96C252.3 116.495 252.369 116.03 252.41 115.566C252.437 115.21 252.451 114.855 252.478 114.486C252.505 114.158 252.519 113.816 252.546 113.475C252.56 113.215 252.587 112.969 252.601 112.709C252.642 111.78 252.669 110.864 252.669 109.935C252.738 109.498 252.806 109.047 252.861 108.596C252.943 107.953 253.011 107.297 253.066 106.628C253.066 106.587 253.066 106.532 253.079 106.491C253.079 106.409 253.093 106.327 253.093 106.259C253.134 105.739 253.161 105.22 253.189 104.701C253.216 104.072 253.23 103.43 253.23 102.774C253.23 102.733 253.23 102.705 253.23 102.664C253.23 102.077 253.216 101.462 253.202 100.833Z" fill="#B23939"/>
<path d="M198.098 39.77C175.357 26.6364 156.852 37.1734 156.784 63.3177C156.77 65.9007 156.962 68.552 157.303 71.2307C157.303 113.912 195.625 198.139 197.634 202.581C199.67 200.476 238.36 160.72 238.606 118.176C238.948 115.907 239.153 113.474 239.167 110.891C239.221 84.747 220.84 52.9037 198.098 39.77ZM197.893 109.402C187.766 103.539 179.58 89.38 179.621 77.736C179.648 66.092 187.889 61.4044 198.016 67.24C208.157 73.103 216.343 87.2754 216.302 98.9057C216.275 110.563 208.034 115.237 197.893 109.402Z" fill="url(#paint5_linear_3701_8370)"/>
<path d="M188.531 64.7939C181.848 64.0832 177.12 68.9076 177.092 77.7226C177.051 89.3666 185.238 103.539 195.365 109.388C198.836 111.384 202.089 112.149 204.863 111.835C202.717 111.602 200.367 110.81 197.893 109.388C187.766 103.525 179.58 89.3666 179.621 77.7226C179.634 70.0692 183.201 65.4226 188.531 64.7939Z" fill="url(#paint6_linear_3701_8370)"/>
<path d="M198.098 39.7703C190.923 35.6293 184.172 33.8389 178.295 34.1533C183.557 34.3993 189.406 36.2033 195.584 39.7703C218.339 52.9039 236.72 84.7473 236.652 110.878C236.638 113.461 236.433 115.894 236.092 118.162C235.859 156.361 204.672 192.29 196.827 200.764C197.237 201.666 197.511 202.281 197.647 202.568C199.684 200.463 238.374 160.707 238.62 118.162C238.962 115.894 239.167 113.461 239.18 110.878C239.221 84.7473 220.84 52.9039 198.098 39.7703Z" fill="url(#paint7_linear_3701_8370)"/>
<defs>
<linearGradient id="paint0_linear_3701_8370" x1="107.32" y1="265.747" x2="309.518" y2="265.747" gradientUnits="userSpaceOnUse">
<stop stop-color="#F9F9F9"/>
<stop offset="1" stop-color="#D3D4D5"/>
</linearGradient>
<linearGradient id="paint1_linear_3701_8370" x1="303.449" y1="229.539" x2="106.364" y2="229.539" gradientUnits="userSpaceOnUse">
<stop stop-color="#F9F9F9"/>
<stop offset="1" stop-color="#D3D4D5"/>
</linearGradient>
<linearGradient id="paint2_linear_3701_8370" x1="155.668" y1="229.117" x2="250.454" y2="223.292" gradientUnits="userSpaceOnUse">
<stop stop-color="#F9F9F9"/>
<stop offset="1" stop-color="#D3D4D5"/>
</linearGradient>
<linearGradient id="paint3_linear_3701_8370" x1="168.087" y1="226.896" x2="280.047" y2="188.017" gradientUnits="userSpaceOnUse">
<stop stop-color="#F9F9F9"/>
<stop offset="1" stop-color="#E4E4E5"/>
</linearGradient>
<linearGradient id="paint4_linear_3701_8370" x1="171.444" y1="236.754" x2="283.224" y2="197.939" gradientUnits="userSpaceOnUse">
<stop stop-color="#F9F9F9"/>
<stop offset="1" stop-color="white"/>
</linearGradient>
<linearGradient id="paint5_linear_3701_8370" x1="215.085" y1="204.921" x2="199.2" y2="98.6594" gradientUnits="userSpaceOnUse">
<stop stop-color="#E13D3D"/>
<stop offset="0.995" stop-color="#F06162"/>
</linearGradient>
<linearGradient id="paint6_linear_3701_8370" x1="183.113" y1="26.3247" x2="198.819" y2="164.63" gradientUnits="userSpaceOnUse">
<stop stop-color="white"/>
<stop offset="0.995" stop-color="#F06162"/>
</linearGradient>
<linearGradient id="paint7_linear_3701_8370" x1="203.218" y1="24.0416" x2="218.924" y2="162.347" gradientUnits="userSpaceOnUse">
<stop stop-color="white"/>
<stop offset="0.995" stop-color="#F06162"/>
</linearGradient>
</defs>
</svg>
