<svg width="24" height="24" viewBox="0 0 24 24" fill="none" xmlns="http://www.w3.org/2000/svg">
<g id="location">
<path id="Vector" d="M12.1124 2.00111C7.69415 1.93898 4.06207 5.47041 4 9.88869C4 15.3369 11.3643 21.6172 11.6777 21.8818C11.7677 21.9583 11.882 22.0002 12 22C12.118 22.0002 12.2323 21.9583 12.3223 21.8818C12.6357 21.6172 20 15.3369 20 9.88869C19.9391 5.55794 16.4432 2.06196 12.1124 2.00111ZM12 20.834C10.584 19.5625 5 14.2666 5 9.88869C5.03534 6.05537 8.16663 2.97389 12 3.00001C15.8334 2.97389 18.9647 6.05537 19 9.88869C19 14.2627 13.415 19.5615 12 20.834ZM12 7.00001C10.3431 7.00001 9 8.34315 9 10C9 11.6569 10.3431 13 12 13C13.6561 12.9982 14.9982 11.6561 15 10C15 8.34315 13.6569 7.00001 12 7.00001ZM12 12C10.8954 12 10 11.1046 10 10C10 8.89546 10.8954 8.00001 12 8.00001C13.104 8.00142 13.9986 8.89601 14 10C14 11.1046 13.1046 12 12 12Z" fill="black"/>
</g>
</svg>
