<svg width="24" height="24" viewBox="0 0 24 24" fill="none" xmlns="http://www.w3.org/2000/svg">
<path d="M20.0328 19.995H3.96777C3.1227 19.994 2.31252 19.6579 1.71497 19.0603C1.11741 18.4628 0.781266 17.6526 0.780273 16.8075V7.1925C0.781266 6.34743 1.11741 5.53726 1.71497 4.9397C2.31252 4.34214 3.1227 4.006 3.96777 4.005H20.0328C20.8778 4.006 21.688 4.34214 22.2856 4.9397C22.8831 5.53726 23.2193 6.34743 23.2203 7.1925V16.8075C23.2193 17.6526 22.8831 18.4628 22.2856 19.0603C21.688 19.6579 20.8778 19.994 20.0328 19.995ZM3.96777 5.13C3.42076 5.13 2.89616 5.3473 2.50937 5.7341C2.12257 6.12089 1.90527 6.6455 1.90527 7.1925V16.8075C1.90527 17.3545 2.12257 17.8791 2.50937 18.2659C2.89616 18.6527 3.42076 18.87 3.96777 18.87H20.0328C20.5798 18.87 21.1044 18.6527 21.4912 18.2659C21.878 17.8791 22.0953 17.3545 22.0953 16.8075V7.1925C22.0953 6.6455 21.878 6.12089 21.4912 5.7341C21.1044 5.3473 20.5798 5.13 20.0328 5.13H3.96777Z" fill="#141824"/>
<path d="M12.0004 14.28C11.3065 14.2811 10.6311 14.056 10.0767 13.6387L1.32042 7.01624C1.25855 6.97282 1.20607 6.91738 1.16611 6.85322C1.12614 6.78907 1.09952 6.71752 1.08783 6.64284C1.07613 6.56817 1.07961 6.49191 1.09805 6.41861C1.11648 6.34531 1.1495 6.27647 1.19514 6.21622C1.24077 6.15596 1.29807 6.10553 1.36363 6.06791C1.42919 6.0303 1.50166 6.00628 1.57671 5.9973C1.65176 5.98832 1.72784 5.99456 1.80043 6.01563C1.87301 6.03671 1.9406 6.0722 1.99917 6.11999L10.7554 12.75C11.115 13.0184 11.5517 13.1634 12.0004 13.1634C12.4491 13.1634 12.8858 13.0184 13.2454 12.75L22.0017 6.11999C22.0602 6.0722 22.1278 6.03671 22.2004 6.01563C22.273 5.99456 22.3491 5.98832 22.4241 5.9973C22.4992 6.00628 22.5716 6.0303 22.6372 6.06791C22.7028 6.10553 22.7601 6.15596 22.8057 6.21622C22.8513 6.27647 22.8843 6.34531 22.9028 6.41861C22.9212 6.49191 22.9247 6.56817 22.913 6.64284C22.9013 6.71752 22.8747 6.78907 22.8347 6.85322C22.7948 6.91738 22.7423 6.97282 22.6804 7.01624L13.9242 13.6387C13.3697 14.056 12.6943 14.2811 12.0004 14.28Z" fill="#141824"/>
<path d="M1.56333 18.4275C1.44924 18.4277 1.3378 18.3931 1.2438 18.3285C1.14979 18.2639 1.07766 18.1722 1.03698 18.0656C0.996297 17.959 0.988986 17.8426 1.01602 17.7317C1.04305 17.6209 1.10314 17.5209 1.18833 17.445L8.08833 11.2912C8.19972 11.1918 8.34605 11.1407 8.49515 11.1491C8.64424 11.1575 8.78387 11.2249 8.88333 11.3362C8.98278 11.4476 9.03392 11.594 9.02548 11.7431C9.01704 11.8922 8.94972 12.0318 8.83833 12.1312L1.93833 18.285C1.83586 18.3782 1.70185 18.4291 1.56333 18.4275ZM22.4358 18.4275C22.2973 18.4291 22.1633 18.3782 22.0608 18.285L15.1608 12.1312C15.0494 12.0318 14.9821 11.8922 14.9737 11.7431C14.9652 11.594 15.0164 11.4476 15.1158 11.3362C15.2153 11.2249 15.3549 11.1575 15.504 11.1491C15.6531 11.1407 15.7994 11.1918 15.9108 11.2912L22.8071 17.445C22.8923 17.5209 22.9524 17.6209 22.9794 17.7317C23.0064 17.8426 22.9991 17.959 22.9584 18.0656C22.9177 18.1722 22.8456 18.2639 22.7516 18.3285C22.6576 18.3931 22.5462 18.4277 22.4321 18.4275H22.4358Z" fill="#141824"/>
</svg>
