<svg width="24" height="24" viewBox="0 0 24 24" fill="none" xmlns="http://www.w3.org/2000/svg">
<g clip-path="url(#clip0_3004_3096)">
<path d="M21.768 6.11998L16.968 4.34398C17.064 4.39198 16.824 4.24798 16.632 4.34398L12 6.04798L7.39197 4.34398C7.48797 4.39198 7.24797 4.24798 7.05597 4.34398L2.25597 6.11998C2.06397 6.19198 1.94397 6.35998 1.94397 6.57598V19.2C1.94397 20.04 2.99997 19.488 2.59197 19.656L7.19997 17.952L11.808 19.656C12.024 19.728 12.264 19.608 12.168 19.656L16.8 17.952L21.432 19.656C21.744 19.776 22.08 19.56 22.08 19.2V6.57598C22.08 6.38398 21.96 6.19198 21.768 6.11998ZM6.71997 17.112L2.87997 18.48V6.88798L6.71997 5.49598V17.112ZM11.52 18.48L7.67997 17.088V5.49598L11.52 6.88798V18.48ZM16.32 17.112L12.48 18.48V6.88798L16.32 5.49598V17.112ZM21.12 18.48L17.28 17.088V5.49598L21.12 6.88798V18.48Z" fill="white"/>
<path d="M327.36 -88.8V315.36H-100.8V-88.8H327.36ZM329.28 -90.72H-102.72V317.28H329.28V-90.72Z" fill="#0000FF"/>
</g>
<defs>
<clipPath id="clip0_3004_3096">
<rect width="24" height="24" fill="white"/>
</clipPath>
</defs>
</svg>
