<svg width="24" height="24" viewBox="0 0 24 24" fill="none" xmlns="http://www.w3.org/2000/svg">
<g id="notification">
<path id="Vector" d="M18 14.1V10C18 6.9 15.6 4.3 12.5 4V2.5C12.5 2.2 12.3 2 12 2C11.7 2 11.5 2.2 11.5 2.5V4C8.4 4.3 6 6.9 6 10V14.1C4.9 14.3 4 15.3 4 16.5V18.5C4 18.8 4.2 19 4.5 19H8.2C8.7 20.7 10.2 22 12 22C13.8 22 15.4 20.7 15.8 19H19.5C19.8 19 20 18.8 20 18.5V16.5C20 15.3 19.1 14.3 18 14.1ZM7 10C7 7.2 9.2 5 12 5C14.8 5 17 7.2 17 10V14H7V10ZM13 20.8C11.4 21.3 9.7 20.5 9.2 19H14.8C14.5 19.9 13.8 20.5 13 20.8ZM19 18H5V16.5C5 15.7 5.7 15 6.5 15H17.5C18.3 15 19 15.7 19 16.5V18Z" fill="black"/>
</g>
</svg>
