<svg width="32" height="32" viewBox="0 0 32 32" fill="none" xmlns="http://www.w3.org/2000/svg">
<g id="offer" clip-path="url(#clip0_7455_6148)">
<path id="Vector" d="M30 5.99998H2C0.898 5.99998 0 6.89798 0 7.99998V13C0 13.2652 0.105357 13.5196 0.292893 13.7071C0.48043 13.8946 0.734784 14 1 14C2.654 14 4 15.346 4 17C4 18.654 2.654 20 1 20C0.734784 20 0.48043 20.1053 0.292893 20.2929C0.105357 20.4804 0 20.7348 0 21L0 26C0 27.122 0.878 28 2 28H30C30.2634 28.0027 30.5247 27.9527 30.7685 27.8532C31.0124 27.7536 31.2339 27.6064 31.4202 27.4202C31.6064 27.2339 31.7536 27.0124 31.8532 26.7685C31.9528 26.5246 32.0027 26.2634 32 26V7.99998C32.0027 7.73659 31.9528 7.47532 31.8532 7.23146C31.7536 6.9876 31.6064 6.76606 31.4202 6.57981C31.2339 6.39355 31.0124 6.24634 30.7685 6.14677C30.5247 6.04721 30.2634 5.99731 30 5.99998Z" fill="#FAC515"/>
<path id="Vector_2" d="M17 16C15.346 16 14 14.654 14 13C14 11.346 15.346 10 17 10C18.654 10 20 11.346 20 13C20 14.654 18.654 16 17 16ZM17 12C16.7348 12 16.4804 12.1054 16.2929 12.2929C16.1054 12.4804 16 12.7348 16 13C16 13.2652 16.1054 13.5196 16.2929 13.7071C16.4804 13.8946 16.7348 14 17 14C17.2652 14 17.5196 13.8946 17.7071 13.7071C17.8946 13.5196 18 13.2652 18 13C18 12.7348 17.8946 12.4804 17.7071 12.2929C17.5196 12.1054 17.2652 12 17 12ZM23 24C21.346 24 20 22.654 20 21C20 19.346 21.346 18 23 18C24.654 18 26 19.346 26 21C26 22.654 24.654 24 23 24ZM23 20C22.45 20 22 20.45 22 21C22 21.55 22.45 22 23 22C23.55 22 24 21.55 24 21C24 20.45 23.55 20 23 20ZM15 24C14.8096 24.0007 14.623 23.947 14.4622 23.8452C14.3014 23.7434 14.173 23.5976 14.0923 23.4253C14.0115 23.2529 13.9818 23.061 14.0066 22.8722C14.0313 22.6835 14.1095 22.5057 14.232 22.36L24.232 10.36C24.4046 10.1652 24.6463 10.0454 24.9058 10.0259C25.1652 10.0064 25.4221 10.0889 25.6218 10.2558C25.8215 10.4227 25.9482 10.6608 25.9752 10.9196C26.0021 11.1785 25.9271 11.4376 25.766 11.642L15.766 23.642C15.6722 23.754 15.555 23.8441 15.4227 23.9059C15.2904 23.9678 15.1461 23.9999 15 24ZM8 10H10V12H8V10ZM8 6H10V8H8V6ZM8 26H10V28H8V26ZM8 22H10V24H8V22ZM8 18H10V20H8V18ZM8 14H10V16H8V14Z" fill="#FAFAFA"/>
</g>
<defs>
<clipPath id="clip0_7455_6148">
<rect width="32" height="32" fill="white"/>
</clipPath>
</defs>
</svg>
