<svg width="32" height="32" viewBox="0 0 32 32" fill="none" xmlns="http://www.w3.org/2000/svg">
<path fill-rule="evenodd" clip-rule="evenodd" d="M16 3C16.942 3 17.743 5.162 18.826 5.452C19.91 5.742 21.684 4.271 22.5 4.742C23.316 5.213 22.929 7.485 23.722 8.278C24.515 9.071 26.787 8.684 27.258 9.5C27.729 10.316 26.258 12.09 26.548 13.174C26.838 14.257 29 15.058 29 16C29 16.942 26.838 17.743 26.548 18.826C26.258 19.91 27.729 21.684 27.258 22.5C26.787 23.316 24.515 22.929 23.722 23.722C22.929 24.515 23.316 26.787 22.5 27.258C21.684 27.729 19.91 26.258 18.826 26.548C17.743 26.838 16.942 29 16 29C15.058 29 14.257 26.838 13.174 26.548C12.09 26.258 10.316 27.729 9.5 27.258C8.684 26.787 9.071 24.515 8.278 23.722C7.485 22.929 5.213 23.316 4.742 22.5C4.271 21.684 5.742 19.91 5.452 18.826C5.162 17.743 3 16.942 3 16C3 15.058 5.162 14.257 5.452 13.174C5.742 12.09 4.271 10.316 4.742 9.5C5.213 8.684 7.485 9.071 8.278 8.278C9.071 7.485 8.684 5.213 9.5 4.742C10.316 4.271 12.09 5.742 13.174 5.452C14.257 5.162 15.058 3 16 3Z" fill="#42A5F5"/>
<path d="M13 14.25C13.8284 14.25 14.5 13.5784 14.5 12.75C14.5 11.9216 13.8284 11.25 13 11.25C12.1716 11.25 11.5 11.9216 11.5 12.75C11.5 13.5784 12.1716 14.25 13 14.25Z" fill="white"/>
<path d="M19 20.75C19.8284 20.75 20.5 20.0784 20.5 19.25C20.5 18.4216 19.8284 17.75 19 17.75C18.1716 17.75 17.5 18.4216 17.5 19.25C17.5 20.0784 18.1716 20.75 19 20.75Z" fill="white"/>
<path fill-rule="evenodd" clip-rule="evenodd" d="M18.293 12.543L12.293 18.543C11.903 18.933 11.903 19.567 12.293 19.957C12.683 20.347 13.317 20.347 13.707 19.957L19.707 13.957C20.097 13.567 20.097 12.933 19.707 12.543C19.317 12.153 18.683 12.153 18.293 12.543Z" fill="white"/>
<path fill-rule="evenodd" clip-rule="evenodd" d="M16 2C15.386 2 14.724 2.436 14.14 3.142C13.88 3.456 13.619 3.819 13.343 4.123C13.2 4.28 13.077 4.443 12.915 4.486C12.752 4.53 12.565 4.451 12.362 4.386C11.972 4.26 11.564 4.077 11.182 3.935C10.323 3.615 9.532 3.569 9 3.876C8.468 4.183 8.113 4.891 7.96 5.795C7.892 6.197 7.847 6.641 7.76 7.043C7.715 7.25 7.69 7.452 7.571 7.571C7.452 7.69 7.25 7.715 7.043 7.76C6.641 7.847 6.197 7.892 5.795 7.96C4.891 8.113 4.183 8.468 3.876 9C3.569 9.532 3.615 10.323 3.935 11.182C4.077 11.564 4.26 11.972 4.386 12.362C4.451 12.565 4.53 12.752 4.486 12.915C4.443 13.077 4.28 13.2 4.123 13.343C3.819 13.619 3.456 13.88 3.142 14.14C2.436 14.724 2 15.386 2 16C2 16.614 2.436 17.276 3.142 17.86C3.456 18.12 3.819 18.381 4.123 18.657C4.28 18.8 4.443 18.923 4.486 19.085C4.53 19.248 4.451 19.435 4.386 19.638C4.26 20.028 4.077 20.436 3.935 20.818C3.615 21.677 3.569 22.468 3.876 23C4.183 23.532 4.891 23.887 5.795 24.04C6.197 24.108 6.641 24.153 7.043 24.24C7.25 24.285 7.452 24.31 7.571 24.429C7.69 24.548 7.715 24.75 7.76 24.957C7.847 25.359 7.892 25.803 7.96 26.205C8.113 27.109 8.468 27.817 9 28.124C9.532 28.431 10.323 28.385 11.182 28.065C11.564 27.923 11.972 27.74 12.362 27.614C12.565 27.549 12.752 27.47 12.915 27.514C13.077 27.557 13.2 27.72 13.343 27.877C13.619 28.181 13.88 28.544 14.14 28.858C14.724 29.564 15.386 30 16 30C16.614 30 17.276 29.564 17.86 28.858C18.12 28.544 18.381 28.181 18.657 27.877C18.8 27.72 18.923 27.557 19.085 27.514C19.248 27.47 19.435 27.549 19.638 27.614C20.028 27.74 20.436 27.923 20.818 28.065C21.677 28.385 22.468 28.431 23 28.124C23.532 27.817 23.887 27.109 24.04 26.205C24.108 25.803 24.153 25.359 24.24 24.957C24.285 24.75 24.31 24.548 24.429 24.429C24.548 24.31 24.75 24.285 24.957 24.24C25.359 24.153 25.803 24.108 26.205 24.04C27.109 23.887 27.817 23.532 28.124 23C28.431 22.468 28.385 21.677 28.065 20.818C27.923 20.436 27.74 20.028 27.614 19.638C27.549 19.435 27.47 19.248 27.514 19.085C27.557 18.923 27.72 18.8 27.877 18.657C28.181 18.381 28.544 18.12 28.858 17.86C29.564 17.276 30 16.614 30 16C30 15.386 29.564 14.724 28.858 14.14C28.544 13.88 28.181 13.619 27.877 13.343C27.72 13.2 27.557 13.077 27.514 12.915C27.47 12.752 27.549 12.565 27.614 12.362C27.74 11.972 27.923 11.564 28.065 11.182C28.385 10.323 28.431 9.532 28.124 9C27.817 8.468 27.109 8.113 26.205 7.96C25.803 7.892 25.359 7.847 24.957 7.76C24.75 7.715 24.548 7.69 24.429 7.571C24.31 7.452 24.285 7.25 24.24 7.043C24.153 6.641 24.108 6.197 24.04 5.795C23.887 4.891 23.532 4.183 23 3.876C22.468 3.569 21.677 3.615 20.818 3.935C20.436 4.077 20.028 4.26 19.638 4.386C19.435 4.451 19.248 4.53 19.085 4.486C18.923 4.443 18.8 4.28 18.657 4.123C18.381 3.819 18.12 3.456 17.86 3.142C17.276 2.436 16.614 2 16 2ZM16 4.097C15.852 4.249 15.593 4.523 15.426 4.735C14.829 5.494 14.145 6.227 13.433 6.418C12.72 6.609 11.761 6.316 10.865 5.957C10.614 5.857 10.253 5.75 10.049 5.692C9.996 5.898 9.909 6.264 9.87 6.531C9.733 7.487 9.507 8.464 8.986 8.986C8.464 9.507 7.487 9.733 6.531 9.87C6.264 9.909 5.898 9.996 5.692 10.049C5.75 10.253 5.857 10.614 5.957 10.865C6.316 11.761 6.609 12.72 6.418 13.433C6.227 14.145 5.494 14.829 4.735 15.426C4.523 15.593 4.249 15.852 4.097 16C4.249 16.148 4.523 16.407 4.735 16.574C5.494 17.171 6.227 17.855 6.418 18.567C6.609 19.28 6.316 20.239 5.957 21.135C5.857 21.386 5.75 21.747 5.692 21.951C5.898 22.004 6.264 22.091 6.531 22.13C7.487 22.267 8.464 22.493 8.986 23.014C9.507 23.536 9.733 24.513 9.87 25.469C9.909 25.736 9.996 26.102 10.049 26.308C10.253 26.25 10.614 26.143 10.865 26.043C11.761 25.684 12.72 25.391 13.433 25.582C14.145 25.773 14.829 26.506 15.426 27.265C15.593 27.477 15.852 27.751 16 27.903C16.148 27.751 16.407 27.477 16.574 27.265C17.171 26.506 17.855 25.773 18.567 25.582C19.28 25.391 20.239 25.684 21.135 26.043C21.386 26.143 21.747 26.25 21.951 26.308C22.004 26.102 22.091 25.736 22.13 25.469C22.267 24.513 22.493 23.536 23.014 23.014C23.536 22.493 24.513 22.267 25.469 22.13C25.736 22.091 26.102 22.004 26.308 21.951C26.25 21.747 26.143 21.386 26.043 21.135C25.684 20.239 25.391 19.28 25.582 18.567C25.773 17.855 26.506 17.171 27.265 16.574C27.477 16.407 27.751 16.148 27.903 16C27.751 15.852 27.477 15.593 27.265 15.426C26.506 14.829 25.773 14.145 25.582 13.433C25.391 12.72 25.684 11.761 26.043 10.865C26.143 10.614 26.25 10.253 26.308 10.049C26.102 9.996 25.736 9.909 25.469 9.87C24.513 9.733 23.536 9.507 23.014 8.986C22.493 8.464 22.267 7.487 22.13 6.531C22.091 6.264 22.004 5.898 21.951 5.692C21.747 5.75 21.386 5.857 21.135 5.957C20.239 6.316 19.28 6.609 18.567 6.418C17.855 6.227 17.171 5.494 16.574 4.735C16.407 4.523 16.148 4.249 16 4.097Z" fill="#1976D2"/>
</svg>
