<svg width="20" height="21" viewBox="0 0 20 21" fill="none" xmlns="http://www.w3.org/2000/svg">
<path d="M19.1876 12.0215C18.9591 11.623 18.7286 11.2246 18.5001 10.8242C18.3868 10.6191 18.3868 10.3789 18.5001 10.1738C18.5294 10.1211 18.5587 10.0703 18.588 10.0195C18.7306 9.7695 18.8751 9.52146 19.0177 9.27146C19.1153 9.10154 19.2149 8.93161 19.3126 8.75974C19.5372 8.35739 19.4786 7.84177 19.1505 7.51169C19.0001 7.3613 18.7911 7.26364 18.6095 7.15818L17.8243 6.707C17.6505 6.60739 17.4317 6.51364 17.3126 6.34763C17.17 6.14841 17.1876 5.92185 17.1876 5.69333V4.79685C17.1876 4.59177 17.2032 4.37888 17.1739 4.17575C17.1056 3.70896 16.7071 3.36325 16.2462 3.31443C16.0567 3.29489 15.8575 3.31052 15.6661 3.31052H14.7755C14.5431 3.31052 14.3165 3.32419 14.1212 3.16599C13.9649 3.03904 13.8712 2.82029 13.7716 2.64841C13.6212 2.38669 13.4708 2.12497 13.3204 1.86521C13.211 1.67575 13.1114 1.46286 12.9454 1.31638C12.6075 1.01755 12.1231 0.970676 11.7325 1.18943C11.3048 1.42966 10.881 1.67966 10.4571 1.9238C10.4024 1.95505 10.3497 1.98825 10.295 2.0156C10.0997 2.11911 9.86338 2.10544 9.67198 1.99997C9.5001 1.90427 9.33213 1.80466 9.16026 1.70505C8.91026 1.56247 8.66221 1.41794 8.41221 1.27341C8.16417 1.13083 7.91612 1.01755 7.61924 1.05466C7.25792 1.09958 6.98838 1.31638 6.8087 1.62497C6.67979 1.84763 6.55088 2.07224 6.42198 2.29489C6.29893 2.50974 6.17393 2.72458 6.05088 2.93943C5.91807 3.17185 5.70713 3.30661 5.43565 3.30661C4.93565 3.30857 4.43565 3.30661 3.9337 3.30661C3.60948 3.30661 3.29893 3.3945 3.07432 3.6445C2.91612 3.82029 2.82628 4.03904 2.80674 4.27341C2.80088 4.33786 2.80479 4.40427 2.80479 4.46872C2.80479 4.96286 2.81065 5.457 2.80479 5.95114C2.80284 6.23239 2.64463 6.42966 2.41026 6.56443C2.18565 6.69333 1.96104 6.82419 1.73643 6.9531L1.09776 7.32224C0.771588 7.50974 0.554791 7.83396 0.545026 8.21677C0.537213 8.49411 0.662213 8.71872 0.795026 8.94919C0.943463 9.20505 1.08995 9.46286 1.23838 9.72068C1.33409 9.88669 1.44737 10.0527 1.52745 10.2265C1.61534 10.4179 1.59776 10.6406 1.4962 10.8222C1.46495 10.8789 1.43174 10.9355 1.39854 10.9902C1.16026 11.4043 0.916119 11.8164 0.681744 12.2324C0.451276 12.6445 0.517682 13.1836 0.873151 13.5058C1.0294 13.6484 1.23448 13.7441 1.41612 13.8496C1.67784 14 1.9376 14.1504 2.19932 14.3008C2.37901 14.4043 2.5919 14.4961 2.70518 14.6797C2.83018 14.8789 2.80674 15.1054 2.80674 15.3301V16.2304C2.80674 16.4355 2.78917 16.6523 2.82628 16.8554C2.91221 17.3203 3.33409 17.6601 3.79893 17.6816C3.98643 17.6894 4.17393 17.6816 4.36143 17.6816H5.23643C5.48253 17.6816 5.7169 17.6777 5.91026 17.8633C6.05088 17.998 6.13878 18.207 6.23448 18.373C6.38292 18.6308 6.53135 18.8906 6.68174 19.1484C6.79698 19.3476 6.90049 19.5625 7.08409 19.709C7.42393 19.9804 7.88487 20.0136 8.26378 19.7988C8.45128 19.6933 8.63682 19.584 8.82237 19.4765L9.55479 19.0547C9.61338 19.0215 9.67002 18.9824 9.73252 18.9551C9.92393 18.8711 10.1427 18.8886 10.3243 18.9902C10.7521 19.2304 11.1759 19.4804 11.5997 19.7265C11.6485 19.7539 11.6954 19.7832 11.7442 19.8105C11.961 19.9297 12.2032 19.9668 12.4454 19.9238C12.7794 19.8652 13.0216 19.6367 13.1856 19.3535C13.4376 18.916 13.6896 18.4765 13.9435 18.039C14.0782 17.8066 14.2931 17.6816 14.5606 17.6816H16.0724C16.4024 17.6816 16.7208 17.5801 16.9376 17.3164C17.0899 17.1308 17.1778 16.9043 17.1817 16.6621C17.1837 16.6074 17.1817 16.5508 17.1817 16.4961V15.6426C17.1817 15.4394 17.1798 15.2363 17.1817 15.0332C17.1837 14.8515 17.2521 14.6836 17.3829 14.5586C17.4435 14.5 17.5157 14.459 17.588 14.4179C18.0255 14.166 18.463 13.916 18.8985 13.6621C19.2306 13.4707 19.4513 13.125 19.4435 12.7363C19.4454 12.4668 19.3185 12.25 19.1876 12.0215ZM5.97667 7.75388C6.06065 7.41989 6.25792 7.08786 6.52354 6.86716C6.83213 6.6113 7.17393 6.46872 7.57237 6.42771C8.26768 6.35739 8.99815 6.77732 9.29307 7.41013C9.46495 7.77536 9.50792 8.14841 9.44346 8.54489C9.39073 8.87888 9.20909 9.19333 8.97862 9.43747L8.95909 9.457L8.9337 9.48239C8.34971 10.0312 7.41417 10.1523 6.73643 9.69333C6.10362 9.2656 5.79112 8.50193 5.97667 7.75388ZM9.42002 11.8847L7.97276 13.332L7.36924 13.9355C7.14463 14.1601 6.79112 14.1445 6.56456 13.9355C6.33799 13.7265 6.35362 13.3418 6.56456 13.1308L6.57432 13.1211C6.81456 12.8711 7.06651 12.6289 7.3126 12.3828L8.82823 10.8672L10.5802 9.11521L12.0274 7.66794L12.631 7.06443C12.8556 6.83982 13.2091 6.85544 13.4356 7.06443C13.6622 7.27341 13.6466 7.65818 13.4356 7.86911L13.4259 7.87888C13.1856 8.12888 12.9337 8.37107 12.6876 8.61716L11.172 10.1328L9.42002 11.8847ZM14.047 13.1426C13.9942 13.4765 13.8126 13.7929 13.5821 14.0351L13.5626 14.0547L13.5372 14.0801C12.9532 14.6289 12.0177 14.75 11.3399 14.2929C10.7071 13.8652 10.3946 13.0996 10.5821 12.3515C10.6661 12.0176 10.8634 11.6855 11.129 11.4648C11.4376 11.207 11.7794 11.0644 12.1778 11.0254C12.8731 10.9551 13.6036 11.3769 13.8985 12.0078C14.0665 12.373 14.1095 12.7441 14.047 13.1426Z" fill="#4D7C0F"/>
<path d="M8.33789 8.28516C8.33789 8.28711 8.33789 8.28711 8.33789 8.28516C8.32617 8.3418 8.31055 8.39648 8.29297 8.45117C8.27148 8.49414 8.24805 8.53711 8.2207 8.57813C8.21875 8.58203 8.2168 8.58398 8.21484 8.58789C8.19531 8.60938 8.17578 8.63086 8.1543 8.65234C8.13281 8.67383 8.11133 8.69336 8.08984 8.71289C8.08789 8.71484 8.08398 8.7168 8.08008 8.71875C8.03906 8.74609 7.99609 8.76953 7.95313 8.79102C7.89844 8.81055 7.84375 8.82422 7.78906 8.83594C7.73242 8.83984 7.67383 8.83984 7.61719 8.83594C7.56055 8.82422 7.50586 8.80859 7.45313 8.79102C7.41016 8.76953 7.36719 8.74609 7.32617 8.71875C7.32227 8.7168 7.31836 8.71484 7.31641 8.71289C7.29492 8.69336 7.27344 8.67383 7.25195 8.65234C7.23047 8.63086 7.21094 8.60938 7.19141 8.58789C7.18945 8.58594 7.1875 8.58203 7.18555 8.57813C7.1582 8.53711 7.13477 8.49414 7.11328 8.45117C7.09375 8.39648 7.08008 8.3418 7.06836 8.28711C7.06445 8.23047 7.06445 8.17188 7.06836 8.11523C7.08008 8.05859 7.0957 8.00391 7.11328 7.95117C7.13477 7.9082 7.1582 7.86523 7.18555 7.82422C7.1875 7.82031 7.18945 7.81641 7.19141 7.81445C7.21094 7.79297 7.23047 7.77148 7.25195 7.75C7.27344 7.72852 7.29492 7.70898 7.31641 7.68945C7.32031 7.6875 7.32227 7.68555 7.32617 7.68359C7.36719 7.65625 7.41016 7.63281 7.45313 7.61133C7.50781 7.5918 7.5625 7.57813 7.61719 7.56641C7.67383 7.5625 7.73242 7.5625 7.78906 7.56641C7.8457 7.57813 7.90039 7.59375 7.95313 7.61133C7.99609 7.63281 8.03906 7.65625 8.08008 7.68359C8.08398 7.68555 8.08789 7.6875 8.08984 7.68945L8.1543 7.74805C8.17578 7.76953 8.19531 7.79102 8.21484 7.8125C8.2168 7.81641 8.21875 7.81836 8.2207 7.82227C8.24805 7.86328 8.27148 7.90625 8.29297 7.94922C8.3125 8.00391 8.32617 8.05859 8.33789 8.11328C8.3418 8.17188 8.3418 8.22852 8.33789 8.28516ZM12.9395 12.8848C12.9277 12.9414 12.9121 12.9961 12.8945 13.0508C12.873 13.0937 12.8496 13.1367 12.8223 13.1777C12.8203 13.1816 12.8184 13.1836 12.8164 13.1875C12.7969 13.209 12.7773 13.2324 12.7559 13.252C12.7344 13.2734 12.7129 13.293 12.6914 13.3125C12.6895 13.3145 12.6855 13.3164 12.6816 13.3184C12.6406 13.3457 12.5996 13.3691 12.5566 13.3906C12.502 13.4102 12.4473 13.4238 12.3906 13.4355C12.334 13.4395 12.2754 13.4395 12.2187 13.4355C12.1621 13.4238 12.1074 13.4082 12.0527 13.3906C12.0098 13.3691 11.9668 13.3457 11.9277 13.3184C11.9238 13.3164 11.9219 13.3145 11.918 13.3125C11.8965 13.293 11.873 13.2734 11.8535 13.252C11.832 13.2305 11.8125 13.209 11.793 13.1875C11.791 13.1836 11.7891 13.1816 11.7871 13.1777C11.7598 13.1367 11.7363 13.0957 11.7148 13.0508C11.6953 12.9961 11.6816 12.9414 11.6699 12.8848C11.666 12.8281 11.666 12.7695 11.6699 12.7129C11.6816 12.6562 11.6973 12.6016 11.7148 12.5469C11.7363 12.5039 11.7598 12.4609 11.7871 12.4199C11.7891 12.416 11.791 12.4121 11.793 12.4102C11.8125 12.3887 11.832 12.3672 11.8535 12.3457C11.875 12.3242 11.8965 12.3066 11.918 12.2871C11.9219 12.2852 11.9238 12.2832 11.9277 12.2813C11.9688 12.2539 12.0098 12.2305 12.0527 12.209C12.1074 12.1895 12.1621 12.1758 12.2187 12.1641C12.2754 12.1602 12.334 12.1602 12.3906 12.1641C12.4473 12.1758 12.502 12.1914 12.5566 12.209C12.5996 12.2305 12.6426 12.2539 12.6816 12.2813C12.6855 12.2832 12.6895 12.2852 12.6914 12.2871L12.7559 12.3457C12.7773 12.3672 12.7969 12.3887 12.8164 12.4102C12.8184 12.4141 12.8203 12.416 12.8223 12.4199C12.8496 12.4609 12.873 12.502 12.8945 12.5469C12.9141 12.6016 12.9277 12.6562 12.9395 12.7129C12.9434 12.7695 12.9434 12.8262 12.9395 12.8848Z" fill="#4D7C0F"/>
</svg>
