<svg width="17" height="16" viewBox="0 0 17 16" fill="none" xmlns="http://www.w3.org/2000/svg">
<path d="M8.5 4.00006C8.00555 4.00006 7.5222 4.14668 7.11107 4.42139C6.69995 4.69609 6.37952 5.08654 6.1903 5.54335C6.00108 6.00017 5.95157 6.50283 6.04804 6.98779C6.1445 7.47274 6.3826 7.9182 6.73223 8.26783C7.08186 8.61746 7.52732 8.85556 8.01227 8.95202C8.49723 9.04849 8.99989 8.99898 9.45671 8.80976C9.91352 8.62054 10.304 8.30011 10.5787 7.88899C10.8534 7.47786 11 6.99451 11 6.50006C11 5.83702 10.7366 5.20114 10.2678 4.73229C9.79893 4.26345 9.16304 4.00006 8.5 4.00006ZM8.5 8.00006C8.20333 8.00006 7.91332 7.91209 7.66664 7.74727C7.41997 7.58244 7.22771 7.34818 7.11418 7.07409C7.00065 6.8 6.97094 6.4984 7.02882 6.20743C7.0867 5.91645 7.22956 5.64918 7.43934 5.4394C7.64912 5.22962 7.91639 5.08676 8.20736 5.02888C8.49834 4.97101 8.79994 5.00071 9.07403 5.11424C9.34811 5.22777 9.58238 5.42003 9.7472 5.66671C9.91203 5.91338 10 6.20339 10 6.50006C10 6.89789 9.84196 7.27942 9.56066 7.56072C9.27936 7.84203 8.89782 8.00006 8.5 8.00006ZM8.5 1.00006C7.04182 1.00172 5.64383 1.58171 4.61274 2.6128C3.58165 3.64389 3.00165 5.04188 3 6.50006C3 8.46256 3.90688 10.5426 5.625 12.5157C6.39701 13.4073 7.26591 14.2102 8.21562 14.9094C8.2997 14.9683 8.39985 14.9999 8.5025 14.9999C8.60515 14.9999 8.70531 14.9683 8.78938 14.9094C9.73734 14.2099 10.6046 13.407 11.375 12.5157C13.0906 10.5426 14 8.46256 14 6.50006C13.9983 5.04188 13.4184 3.64389 12.3873 2.6128C11.3562 1.58171 9.95818 1.00172 8.5 1.00006ZM8.5 13.8751C7.46688 13.0626 4 10.0782 4 6.50006C4 5.30659 4.47411 4.16199 5.31802 3.31808C6.16193 2.47417 7.30653 2.00006 8.5 2.00006C9.69347 2.00006 10.8381 2.47417 11.682 3.31808C12.5259 4.16199 13 5.30659 13 6.50006C13 10.0769 9.53312 13.0626 8.5 13.8751Z" fill="#111C18"/>
</svg>
