<svg width="24" height="24" viewBox="0 0 24 24" fill="none" xmlns="http://www.w3.org/2000/svg">
<path d="M15.3564 14.4851C16.3597 13.2706 16.9934 11.7129 16.9934 9.9967C16.9934 6.14191 13.8515 3 9.9967 3C6.14191 3 3 6.14191 3 9.9967C3 13.8515 6.14191 16.9934 9.9967 16.9934C11.6865 16.9934 13.2706 16.3861 14.4851 15.3564L19.9241 20.7954C20.0561 20.9274 20.2145 20.9802 20.3729 20.9802C20.5314 20.9802 20.6898 20.9274 20.8218 20.7954C21.0594 20.5578 21.0594 20.1353 20.8218 19.8977L15.3564 14.4851ZM9.9703 15.7261C6.80198 15.7261 4.24092 13.165 4.24092 9.9967C4.24092 6.82838 6.80198 4.26733 9.9703 4.26733C13.1386 4.26733 15.6997 6.82838 15.6997 9.9967C15.6997 13.165 13.1386 15.7261 9.9703 15.7261Z" fill="#59574E"/>
</svg>
