<svg width="9" height="9" viewBox="0 0 9 9" fill="none" xmlns="http://www.w3.org/2000/svg">
<path d="M4.66677 0.835225L5.49944 2.52165C5.54145 2.60674 5.6035 2.68036 5.68024 2.73617C5.75698 2.79199 5.84613 2.82833 5.94002 2.84208L7.79931 3.1119C7.90744 3.12771 8.00899 3.17342 8.0925 3.24389C8.17601 3.31436 8.23816 3.40677 8.27192 3.5107C8.30569 3.61462 8.30972 3.72592 8.28358 3.83201C8.25743 3.93811 8.20214 4.03478 8.12395 4.11111L6.77902 5.42231C6.71099 5.48861 6.66009 5.57045 6.63071 5.66079C6.60133 5.75113 6.59435 5.84726 6.61038 5.94089L6.92869 7.79385C6.94623 7.90067 6.93383 8.01026 6.89288 8.11047C6.85193 8.21067 6.78403 8.29757 6.6967 8.36154C6.60937 8.42551 6.50604 8.46404 6.39815 8.47286C6.29026 8.48168 6.18203 8.46044 6.08548 8.41151L4.42224 7.53667C4.33833 7.49272 4.24502 7.46976 4.1503 7.46976C4.05558 7.46976 3.96227 7.49272 3.87836 7.53667L2.21512 8.41151C2.11857 8.46044 2.01034 8.48168 1.90245 8.47286C1.79457 8.46404 1.69123 8.42551 1.6039 8.36154C1.51657 8.29757 1.44867 8.21067 1.40772 8.11047C1.36677 8.01026 1.35438 7.90067 1.37191 7.79385L1.69022 5.943C1.70625 5.84936 1.69927 5.75324 1.66989 5.6629C1.64051 5.57256 1.58961 5.49072 1.52158 5.42442L0.176651 4.11322C0.0984627 4.03689 0.043173 3.94022 0.0170255 3.83412C-0.00912205 3.72802 -0.0050858 3.61673 0.0286785 3.51281C0.0624427 3.40888 0.12459 3.31647 0.208103 3.246C0.291615 3.17553 0.393167 3.12981 0.501289 3.11401L2.36058 2.84418C2.45447 2.83044 2.54362 2.79409 2.62036 2.73828C2.69711 2.68247 2.75915 2.60885 2.80116 2.52376L3.63172 0.837333C3.68144 0.743295 3.75582 0.664562 3.84688 0.609576C3.93793 0.55459 4.04224 0.525425 4.14861 0.525209C4.25499 0.524992 4.35941 0.553732 4.45069 0.608346C4.54197 0.66296 4.61667 0.74139 4.66677 0.835225Z" fill="white"/>
</svg>
