<svg width="24" height="24" viewBox="0 0 24 24" fill="none" xmlns="http://www.w3.org/2000/svg">
<path d="M16.3144 9.49389C16.5872 9.18219 16.5556 8.70834 16.2439 8.43556C15.9322 8.16279 15.4584 8.19444 15.1856 8.50614L10.3936 13.9827L7.95007 12.15C7.61865 11.9015 7.14857 11.9687 6.90004 12.3C6.65152 12.6314 6.71867 13.1015 7.05004 13.35L10.0501 15.6C10.3639 15.8354 10.8061 15.7892 11.0644 15.4939L16.3144 9.49389Z" fill="#59574E"/>
<path fill-rule="evenodd" clip-rule="evenodd" d="M12 1.5C6.20101 1.5 1.5 6.20101 1.5 12C1.5 17.799 6.20101 22.5 12 22.5C17.799 22.5 22.5 17.799 22.5 12C22.5 6.20101 17.799 1.5 12 1.5ZM3 12C3 7.02944 7.02944 3 12 3C16.9705 3 21 7.02944 21 12C21 16.9705 16.9705 21 12 21C7.02944 21 3 16.9705 3 12Z" fill="#59574E"/>
</svg>
