<svg width="24" height="25" viewBox="0 0 24 25" fill="none" xmlns="http://www.w3.org/2000/svg">
<path fill-rule="evenodd" clip-rule="evenodd" d="M12 22.5C17.523 22.5 22 18.023 22 12.5C22 6.977 17.523 2.5 12 2.5C6.477 2.5 2 6.977 2 12.5C2 18.023 6.477 22.5 12 22.5ZM15.536 8.964C15.7238 8.77649 15.9783 8.67126 16.2437 8.67144C16.5091 8.67163 16.7635 8.77723 16.951 8.965C17.1385 9.15277 17.2437 9.40734 17.2436 9.67271C17.2434 9.93807 17.1378 10.1925 16.95 10.38L11.297 16.033L11.293 16.037C11.2003 16.1302 11.0902 16.2041 10.9689 16.2546C10.8475 16.3051 10.7174 16.331 10.586 16.331C10.4546 16.331 10.3245 16.3051 10.2031 16.2546C10.0818 16.2041 9.97165 16.1302 9.879 16.037L9.875 16.033L7.05 13.208C6.95449 13.1158 6.87831 13.0054 6.8259 12.8834C6.77349 12.7614 6.7459 12.6302 6.74475 12.4974C6.7436 12.3646 6.7689 12.2329 6.81918 12.11C6.86946 11.9872 6.94371 11.8755 7.0376 11.7816C7.1315 11.6877 7.24315 11.6135 7.36605 11.5632C7.48894 11.5129 7.62062 11.4876 7.7534 11.4887C7.88618 11.4899 8.0174 11.5175 8.1394 11.5699C8.26141 11.6223 8.37175 11.6985 8.464 11.794L10.586 13.915L15.536 8.965V8.964Z" fill="#59574E"/>
</svg>
