<svg width="25" height="24" viewBox="0 0 25 24" fill="none" xmlns="http://www.w3.org/2000/svg">
<g id="verified" clip-path="url(#clip0_7329_17668)">
<g id="Clip path group">
<mask id="mask0_7329_17668" style="mask-type:luminance" maskUnits="userSpaceOnUse" x="0" y="0" width="25" height="24">
<g id="clip0_1084_3803">
<path id="Vector" d="M24.3027 0H0.302734V24H24.3027V0Z" fill="white"/>
</g>
</mask>
<g mask="url(#mask0_7329_17668)">
<g id="Group">
<path id="Vector_2" d="M13.6573 1.46995C12.9571 0.614752 11.6493 0.614755 10.9492 1.46995L9.95736 2.6814C9.88938 2.76443 9.77598 2.79482 9.67559 2.7569L8.2109 2.20367C7.17695 1.81314 6.04436 2.46703 5.86559 3.55774L5.61236 5.10281C5.595 5.20871 5.51199 5.29172 5.40608 5.30908L3.86102 5.56231C2.77032 5.74108 2.11641 6.87366 2.50695 7.90762L3.06018 9.37231C3.0981 9.4727 3.06771 9.5861 2.98468 9.65408L1.77323 10.6459C0.918036 11.3461 0.918038 12.6539 1.77323 13.3541L2.98468 14.3459C3.06771 14.4139 3.0981 14.5273 3.06018 14.6277L2.50695 16.0924C2.11642 17.1263 2.77031 18.2589 3.86102 18.4377L5.40608 18.6909C5.51199 18.7083 5.595 18.7913 5.61236 18.8972L5.86559 20.4422C6.04436 21.5329 7.17694 22.1868 8.2109 21.7963L9.67559 21.2431C9.77598 21.2052 9.88938 21.2355 9.95736 21.3186L10.9492 22.53C11.6493 23.3852 12.9571 23.3852 13.6573 22.53L14.6491 21.3186C14.7171 21.2355 14.8305 21.2052 14.9309 21.2431L16.3956 21.7963C17.4296 22.1868 18.5622 21.5329 18.7409 20.4422L18.9942 18.8972C19.0115 18.7913 19.0945 18.7083 19.2004 18.6909L20.7455 18.4377C21.8362 18.2589 22.4901 17.1263 22.0996 16.0924L21.5463 14.6277C21.5084 14.5273 21.5388 14.4139 21.6218 14.3459L22.8333 13.3541C23.6885 12.6539 23.6885 11.3461 22.8333 10.6459L21.6218 9.65408C21.5388 9.5861 21.5084 9.4727 21.5463 9.37231L22.0996 7.90762C22.4901 6.87366 21.8362 5.74108 20.7455 5.56231L19.2004 5.30908C19.0945 5.29172 19.0115 5.20871 18.9942 5.10281L18.7409 3.55774C18.5622 2.46704 17.4296 1.81313 16.3956 2.20367L14.9309 2.7569C14.8305 2.79482 14.7171 2.76443 14.6491 2.6814L13.6573 1.46995Z" fill="#4DC4FF"/>
<path id="Vector_3" fill-rule="evenodd" clip-rule="evenodd" d="M18.333 7.96967C18.6259 8.26256 18.6259 8.73744 18.333 9.03033L11.333 16.0303C11.1924 16.171 11.0016 16.25 10.8027 16.25C10.6038 16.25 10.413 16.171 10.2724 16.0303L6.2724 12.0303C5.97951 11.7374 5.97951 11.2626 6.2724 10.9697C6.56529 10.6768 7.04017 10.6768 7.33306 10.9697L10.8027 14.4393L17.2724 7.96967C17.5653 7.67678 18.0401 7.67678 18.333 7.96967Z" fill="#ECEFF1"/>
</g>
</g>
</g>
</g>
<defs>
<clipPath id="clip0_7329_17668">
<rect width="24" height="24" fill="white" transform="translate(0.302734)"/>
</clipPath>
</defs>
</svg>
