<svg width="26" height="26" viewBox="0 0 26 26" fill="none" xmlns="http://www.w3.org/2000/svg">
<path d="M13 5.68756C11.5537 5.68756 10.1399 6.11643 8.9374 6.91994C7.73486 7.72345 6.7976 8.8655 6.24413 10.2017C5.69067 11.5379 5.54586 13.0082 5.82801 14.4267C6.11017 15.8451 6.80661 17.1481 7.82928 18.1708C8.85196 19.1935 10.1549 19.8899 11.5734 20.1721C12.9919 20.4542 14.4622 20.3094 15.7984 19.7559C17.1346 19.2025 18.2766 18.2652 19.0801 17.0627C19.8836 15.8601 20.3125 14.4463 20.3125 13.0001C20.3105 11.0613 19.5394 9.20252 18.1685 7.8316C16.7975 6.46069 14.9388 5.68961 13 5.68756ZM15.648 14.8521C15.7002 14.9044 15.7417 14.9664 15.77 15.0347C15.7983 15.103 15.8128 15.1762 15.8128 15.2501C15.8128 15.324 15.7983 15.3972 15.77 15.4654C15.7417 15.5337 15.7002 15.5958 15.648 15.648C15.5957 15.7003 15.5337 15.7417 15.4654 15.77C15.3971 15.7983 15.3239 15.8129 15.25 15.8129C15.1761 15.8129 15.1029 15.7983 15.0346 15.77C14.9663 15.7417 14.9043 15.7003 14.852 15.648L13 13.7953L11.148 15.648C11.0957 15.7003 11.0337 15.7417 10.9654 15.77C10.8971 15.7983 10.8239 15.8129 10.75 15.8129C10.6761 15.8129 10.6029 15.7983 10.5346 15.77C10.4663 15.7417 10.4043 15.7003 10.352 15.648C10.2998 15.5958 10.2583 15.5337 10.23 15.4654C10.2017 15.3972 10.1872 15.324 10.1872 15.2501C10.1872 15.1762 10.2017 15.103 10.23 15.0347C10.2583 14.9664 10.2998 14.9044 10.352 14.8521L12.2048 13.0001L10.352 11.148C10.2465 11.0425 10.1872 10.8993 10.1872 10.7501C10.1872 10.6008 10.2465 10.4576 10.352 10.3521C10.4576 10.2465 10.6007 10.1872 10.75 10.1872C10.8993 10.1872 11.0424 10.2465 11.148 10.3521L13 12.2048L14.852 10.3521C14.9043 10.2998 14.9663 10.2584 15.0346 10.2301C15.1029 10.2018 15.1761 10.1872 15.25 10.1872C15.3239 10.1872 15.3971 10.2018 15.4654 10.2301C15.5337 10.2584 15.5957 10.2998 15.648 10.3521C15.7002 10.4044 15.7417 10.4664 15.77 10.5347C15.7983 10.603 15.8128 10.6762 15.8128 10.7501C15.8128 10.824 15.7983 10.8972 15.77 10.9654C15.7417 11.0337 15.7002 11.0958 15.648 11.148L13.7952 13.0001L15.648 14.8521Z" fill="#A8A29E"/>
</svg>
