<svg width="36" height="36" viewBox="0 0 36 36" fill="none" xmlns="http://www.w3.org/2000/svg">
<rect width="36" height="36" rx="18" fill="#EFEFEF"/>
<g clip-path="url(#clip0_7502_10785)">
<path d="M9.87503 25.2812C9.65628 24.5312 9.87503 23.7812 10.5938 23.0938L19.0313 13.4375L19.5 13.8438L11.0625 23.5313C10.5 24.0625 10.3438 24.5625 10.5 25.0938L9.87503 25.2812Z" fill="#333333"/>
<path d="M11.1875 25.625C10.1875 25.625 9.03125 25.125 8.40625 24.4688L8.84375 24.0312C9.59375 24.7812 11.4375 25.375 12.1562 24.6562L22.4688 15.2812L22.875 15.75L12.5625 25.125C12.2188 25.4688 11.7188 25.625 11.1875 25.625Z" fill="#333333"/>
<path d="M11.0312 23.5312L10.5938 23.0938L18.4062 15.9062L20.0625 13.6562L20.5625 14.0312L18.8438 16.3438L11.0312 23.5312Z" fill="#333333"/>
<path d="M21.5104 14.9849L12.1456 24.6652L12.5948 25.0997L21.9596 15.4194L21.5104 14.9849Z" fill="#333333"/>
<path d="M23.6562 20.5C23.625 20.5 23.5937 20.5 23.5625 20.5C23.4687 20.4688 23.25 20.4375 23.0625 19.8125C22.5312 19.625 22.4375 19.4375 22.4062 19.375C22.375 19.2813 22.2812 19.0938 22.625 18.625C22.2812 18.125 22.375 17.9375 22.4062 17.875C22.4375 17.8438 22.4375 17.7813 22.5312 17.7188C22.375 17.5625 22.375 17.4375 22.375 17.375C22.375 17.1875 22.4375 17.0313 22.5 16.9063C22.1875 16.75 22.125 16.625 22.0937 16.5938C22.0625 16.5 21.9687 16.3125 22.3125 15.8438C21.9687 15.3438 22.0625 15.1563 22.0937 15.0938C22.1562 14.9375 22.3125 14.7813 23.0937 14.875C23.2812 14.3438 23.4687 14.3125 23.5625 14.2813C23.625 14.25 23.8125 14.2188 24.3437 14.5625C24.875 14.4688 25.0312 14.5938 25.0937 14.6563C25.1875 14.7188 25.2187 14.8125 25.2187 14.9063C25.2187 14.9688 25.25 15.0938 25.0625 15.3438C25.4375 15.5 25.5 15.6563 25.5 15.8125C25.5937 15.8125 25.7812 15.8438 26.125 16.0625C26.5937 15.7188 26.8125 15.7813 26.9687 15.9063C27.0312 15.9375 27.1875 16.0938 27.125 16.5625C27.625 16.75 27.7187 16.9375 27.7187 17.0938C27.7187 17.25 27.625 17.4688 27.4375 17.7813C27.5625 18.375 27.375 18.5313 27.3125 18.5938C27.25 18.625 27.0937 18.75 26.5625 18.6875C26.0625 19.0313 25.875 19 25.7812 18.9688H25.75C25.6562 19.0938 25.5312 19.2188 25.2812 19.4375C25.375 20 25.1875 20.125 25.125 20.1875C25.0625 20.2188 24.9062 20.3438 24.375 20.2813C23.9687 20.4688 23.75 20.5 23.6562 20.5ZM23.0312 19.125C23.125 19.1563 23.2812 19.2188 23.4062 19.25C23.5 19.2813 23.5937 19.375 23.625 19.4688C23.6562 19.5938 23.7187 19.7188 23.75 19.8125C23.8437 19.75 23.9687 19.6875 24.0625 19.5938C24.125 19.5313 24.2187 19.5313 24.3125 19.5313C24.4062 19.5625 24.5312 19.5625 24.625 19.5625C24.625 19.4688 24.5937 19.375 24.5937 19.2813C24.5625 19.1563 24.625 19.0313 24.7187 18.9688C24.875 18.8438 25.0312 18.7188 25.125 18.625C25.0625 18.5938 25.0312 18.5625 24.9687 18.5C24.9062 18.4688 24.875 18.375 24.875 18.3125V18C24.875 17.875 24.9687 17.75 25.0937 17.7188C25.2187 17.6875 25.3437 17.7188 25.4375 17.8125C25.5937 18 25.7812 18.2188 25.875 18.3125C25.9687 18.2813 26.125 18.1875 26.25 18.0938C26.3125 18.0313 26.4062 18.0313 26.5 18.0313C26.5937 18.0625 26.7187 18.0625 26.8125 18.0625C26.8125 17.9688 26.7812 17.875 26.7812 17.7813C26.75 17.6875 26.7812 17.5938 26.8125 17.5313C26.9062 17.4063 26.9687 17.2813 27.0312 17.1875C26.9375 17.1563 26.8125 17.0938 26.6875 17.0625C26.5312 17.0313 26.4062 16.8438 26.4687 16.6875C26.4687 16.6563 26.4687 16.625 26.5 16.5938C26.4375 16.625 26.4062 16.6563 26.3437 16.6875C26.2187 16.7813 26.0625 16.7813 25.9687 16.6875C25.8437 16.5938 25.6875 16.5 25.5937 16.4688C25.5 16.5625 25.3125 16.75 25.1562 16.9688C25.0625 17.0625 24.9375 17.125 24.8125 17.0625C24.6562 17 24.5625 16.875 24.5625 16.75V16.4375C24.5625 16.375 24.5937 16.3125 24.625 16.2813C24.6875 16.1563 24.7812 16.0313 24.8437 15.9063C24.75 15.875 24.625 15.8125 24.5 15.8125C24.4062 15.7813 24.3125 15.7188 24.2812 15.5938C24.25 15.5 24.2812 15.375 24.3437 15.3125C24.375 15.2813 24.4062 15.2188 24.4375 15.1875C24.4062 15.1875 24.3437 15.1875 24.3125 15.2188C24.2187 15.25 24.125 15.2188 24.0625 15.1563C23.9687 15.0625 23.8125 15 23.75 14.9375C23.7187 15.0313 23.6562 15.1563 23.625 15.2813C23.5937 15.4375 23.4375 15.5313 23.2812 15.5C23.125 15.4688 22.9687 15.4688 22.8125 15.4375C22.8437 15.5 22.9062 15.5625 22.9375 15.625C23.0312 15.75 23.0312 15.9063 22.9375 16C22.875 16.0938 22.7812 16.2188 22.7187 16.3125C22.8125 16.3438 22.9687 16.4063 23.0937 16.4375C23.1875 16.4688 23.2812 16.5625 23.3125 16.6563C23.3437 16.75 23.3125 16.875 23.2187 16.9375C23.1562 17 23.0625 17.125 23.0312 17.25C23.125 17.2813 23.25 17.3438 23.375 17.375C23.5 17.4063 23.625 17.5313 23.625 17.6563C23.625 17.7813 23.5312 17.9375 23.4062 17.9688C23.2812 18 23.125 18.0625 23.0312 18.0938C23.0937 18.1875 23.1562 18.3125 23.25 18.4063C23.3437 18.5313 23.3437 18.6875 23.25 18.7813C23.1562 18.9063 23.0937 19.0313 23.0312 19.125Z" fill="#333333"/>
<path d="M15.8438 13.9375C15.7501 13.9375 15.7188 13.9062 15.6876 13.9062C15.6251 13.875 15.4688 13.7812 15.2501 13.25C14.6251 13.0625 14.5938 12.8438 14.5626 12.75C14.5313 12.6875 14.5001 12.4688 14.8438 11.9688C14.7501 11.4375 14.8751 11.2812 14.9376 11.2188C15.0001 11.1562 15.1251 10.9687 15.7501 11.0938C15.8751 11.0312 15.9688 10.9688 16.0626 10.9062C15.8438 10.6875 15.8438 10.5938 15.8126 10.5313C15.7501 10.2813 15.9063 10.0938 16.0938 10C16.0313 9.53125 16.1563 9.40625 16.1876 9.34375C16.2501 9.28125 16.3751 9.09375 16.9376 9.1875C17.4063 8.625 17.5938 8.625 17.6876 8.625C17.7813 8.625 17.9688 8.625 18.4376 9.21875C19.0001 9.125 19.1251 9.3125 19.1876 9.375C19.2188 9.4375 19.3438 9.5625 19.2813 10.0312C19.4376 10.1562 19.6251 10.3438 19.5626 10.5625C19.5626 10.625 19.5313 10.7188 19.3126 10.9375C19.4063 10.9688 19.5001 11.0312 19.6251 11.125C20.2188 11 20.3751 11.1875 20.4376 11.25C20.4688 11.3125 20.5938 11.4688 20.5313 12C20.8751 12.5 20.8438 12.6875 20.8126 12.7812C20.7813 12.875 20.7501 13.0938 20.1251 13.2812C19.9376 13.8125 19.7813 13.9062 19.6876 13.9375C19.5938 13.9688 19.4063 14.0625 18.9376 13.7188C18.4376 14.0625 18.2501 13.9688 18.1876 13.9375C18.1251 13.9062 17.9376 13.8125 17.7501 13.2188L17.7188 13.1875C17.6876 13.1875 17.6876 13.2188 17.6876 13.2188C17.5001 13.8125 17.3126 13.9062 17.2501 13.9375C17.1563 13.9688 16.9688 14.0625 16.5001 13.7188C16.1563 13.9062 15.9688 13.9375 15.8438 13.9375ZM15.2188 12.5625C15.3126 12.5938 15.4376 12.6562 15.5626 12.6875C15.6563 12.7188 15.7501 12.7812 15.7813 12.9062C15.8126 13.0312 15.8751 13.1875 15.9063 13.2812C16.0001 13.2188 16.1251 13.1563 16.2188 13.0625C16.3438 12.9688 16.5001 12.9688 16.5938 13.0625C16.6876 13.125 16.8126 13.2188 16.9063 13.2812C16.9376 13.1875 17.0001 13.0312 17.0313 12.9062C17.0626 12.8438 17.0938 12.7812 17.1563 12.75C17.2188 12.7188 17.3438 12.5938 17.3751 12.5312C17.5001 12.3438 17.8126 12.3438 17.9063 12.5312C17.9376 12.5938 18.0626 12.6875 18.1251 12.75C18.1876 12.7812 18.2188 12.8438 18.2501 12.9062C18.2813 13.0312 18.3438 13.1875 18.3751 13.2812C18.4688 13.2188 18.5938 13.1563 18.6876 13.0625C18.8126 12.9688 18.9688 12.9688 19.0626 13.0625C19.1563 13.125 19.2813 13.2188 19.3751 13.2812C19.4063 13.1875 19.4688 13.0312 19.5001 12.9062C19.5313 12.8125 19.6251 12.7188 19.7188 12.6875C19.8438 12.6562 19.9688 12.5938 20.0626 12.5625C20.0001 12.4688 19.9376 12.3438 19.8438 12.25C19.8751 12.1875 19.8751 12.0938 19.8751 12C19.9063 11.9062 19.9063 11.7812 19.9063 11.6875C19.8126 11.6875 19.7188 11.7188 19.6251 11.7188C19.5313 11.75 19.4376 11.7188 19.3751 11.6875C19.2501 11.5938 19.0938 11.5 18.9688 11.4688C18.9688 11.4688 18.9688 11.5 18.9376 11.5C18.9063 11.5625 18.8438 11.625 18.7813 11.6875C18.6876 11.7812 18.5626 11.7812 18.4376 11.75C18.3751 11.6562 18.3126 11.5625 18.3126 11.4375V11.125C18.3126 11.0312 18.3438 10.9375 18.4376 10.875C18.5938 10.75 18.7501 10.5938 18.8751 10.5C18.8438 10.5 18.8438 10.4688 18.8126 10.4688C18.6876 10.4062 18.5938 10.2812 18.6251 10.125C18.6563 10.0312 18.6563 9.90625 18.6563 9.8125C18.5626 9.8125 18.4688 9.84375 18.3751 9.84375C18.2501 9.875 18.1251 9.8125 18.0626 9.71875C17.9376 9.5625 17.7813 9.375 17.6876 9.28125C17.5938 9.375 17.4376 9.5625 17.3126 9.71875C17.2501 9.8125 17.1251 9.875 17.0001 9.84375C16.9063 9.8125 16.8126 9.8125 16.7188 9.8125C16.7188 9.90625 16.7501 10.0312 16.7501 10.125C16.7813 10.2812 16.7188 10.4062 16.5626 10.4688C16.5313 10.4688 16.5313 10.5 16.5001 10.5C16.5938 10.5938 16.7813 10.75 16.9376 10.9062C17.0313 10.9375 17.0626 11.0312 17.0626 11.125V11.4375C17.0626 11.5625 17.0001 11.6562 16.8751 11.7188C16.7501 11.7812 16.6251 11.75 16.5313 11.6562C16.4688 11.5938 16.4376 11.5313 16.3751 11.4688C16.3751 11.4688 16.3751 11.4375 16.3438 11.4375C16.2501 11.4688 16.0938 11.5625 15.9376 11.6562C15.9063 11.75 15.8126 11.75 15.7501 11.75C15.6563 11.7188 15.5626 11.7188 15.4688 11.7188C15.4688 11.8125 15.5001 11.9375 15.5001 12.0312C15.5313 12.125 15.5001 12.2188 15.4376 12.2812C15.3751 12.3438 15.2813 12.4688 15.2188 12.5625Z" fill="#333333"/>
<path d="M11.8438 27.375C11.8125 27.375 11.7813 27.375 11.75 27.375C11.0625 27.3438 10.4063 27.0938 9.9688 26.6562L9.0313 25.7188C8.5938 25.2812 8.3438 24.625 8.31255 23.9375C8.2813 23.2188 8.5313 22.6562 9.0313 22.1562L16.4688 14.7188L17.0625 12.9062L17.6563 13.0937L17 15.0312L9.4688 22.5938C9.0938 22.9688 8.93755 23.375 8.93755 23.9375C8.93755 24.4688 9.1563 24.9688 9.4688 25.2812L10.4063 26.2188C10.7188 26.5312 11.25 26.7188 11.75 26.75C12.2813 26.7812 12.6875 26.5938 13.0938 26.2188L20.625 18.6875L22.5313 17.7188L22.8125 18.2812L20.9688 19.1875L13.5313 26.6562C13.0313 27.1562 12.5313 27.375 11.8438 27.375Z" fill="#333333"/>
<path d="M22.0625 15.5C21.8437 15.5 21.5937 15.3438 21.375 15.1875C20.5312 15.3125 20.375 15.1563 20.2812 15.0938C20.2187 15.0313 20.0625 14.875 20.1875 14C20.0312 13.7813 19.875 13.4688 19.9062 13.25C19.9062 13.1563 19.9375 12.9688 20.5 12.5313C20.4375 12.2188 20.4375 11.9063 20.6875 11.7813C20.7187 11.75 20.75 11.75 20.8125 11.7188C20.7812 11.5625 20.7812 11.4063 20.8125 11.25C20.1875 10.7813 20.2187 10.5625 20.2187 10.4688C20.2187 10.375 20.25 10.1563 20.875 9.68751C20.9687 9.40626 21.0937 9.09376 21.2812 9.00001C21.375 8.93751 21.5625 8.81251 22.3437 9.21876C22.6562 9.00001 22.9062 8.90626 23.0937 8.96876C23.2812 9.03126 23.4375 9.25001 23.5625 9.62501C23.9375 9.71876 24.1562 9.87501 24.2187 10.0938C24.2812 10.2813 24.2187 10.5313 24 10.8125C24.0625 10.9063 24.1562 11.0313 24.1875 11.1563C24.3125 11.1875 24.4375 11.2813 24.5312 11.3438C24.8125 11.125 25.0625 11.0625 25.25 11.125C25.4375 11.1875 25.5937 11.4063 25.7187 11.7813C26.0937 11.9063 26.3125 12.0625 26.375 12.25C26.4375 12.4375 26.375 12.6875 26.125 13C26.5 13.7813 26.375 13.9688 26.3125 14.0625C26.1875 14.25 25.9062 14.4063 25.625 14.5C25.1562 15.125 24.9375 15.1563 24.8437 15.1875C24.75 15.1875 24.5 15.2188 24.0625 14.5938C23.9062 14.625 23.7187 14.625 23.5937 14.5938C23.5625 14.6563 23.5625 14.7188 23.5312 14.7188C23.4687 14.8125 23.3437 15 22.5625 14.9063C22.4375 15.2813 22.2812 15.4688 22.0625 15.5ZM21.4375 14.5625C21.5 14.5625 21.5625 14.5938 21.625 14.625C21.75 14.7188 21.875 14.7813 21.9687 14.8438C22 14.75 22.0625 14.625 22.0625 14.5C22.0937 14.3438 22.25 14.2188 22.4375 14.25C22.6562 14.2813 22.9062 14.3125 23.0625 14.3125C23.0625 14.1563 23.0625 13.9063 23.0312 13.6563C23.0312 13.5625 23.0625 13.4688 23.0937 13.4063C23.1562 13.3438 23.25 13.3125 23.3437 13.3125H23.6562C23.8125 13.3125 23.9687 13.4375 23.9687 13.5938C23.9687 13.6875 23.9687 13.75 23.9375 13.875C23.9375 13.9063 23.9375 13.9688 23.9062 14C24 14 24.0937 13.9688 24.1875 13.9688C24.3125 13.9375 24.4375 14 24.5312 14.0938C24.6562 14.25 24.7812 14.4375 24.875 14.5313C24.9687 14.4375 25.125 14.25 25.25 14.0938C25.2812 14.0313 25.3437 14 25.4062 13.9688C25.5625 13.9063 25.7187 13.8438 25.8125 13.7813C25.7812 13.6563 25.6562 13.375 25.5312 13.1563C25.4687 13.0313 25.5 12.9063 25.5625 12.8125C25.6562 12.7188 25.7187 12.5938 25.7812 12.5C25.6875 12.4688 25.5625 12.4063 25.4375 12.375C25.3125 12.3438 25.25 12.25 25.2187 12.1563C25.1875 12.0313 25.125 11.875 25.0937 11.8125C25 11.8438 24.875 11.9375 24.7812 12.0313C24.6562 12.125 24.5 12.125 24.375 12.0313C24.25 11.9375 24.0625 11.8125 24 11.7813C23.9062 11.8125 23.8125 11.75 23.7187 11.6875C23.6562 11.625 23.625 11.5 23.625 11.4063C23.5937 11.3438 23.5 11.1563 23.375 11.0313C23.2812 10.9063 23.2812 10.75 23.375 10.625C23.4687 10.5313 23.5312 10.4063 23.5937 10.3125C23.5 10.2813 23.375 10.2188 23.25 10.1875C23.125 10.1563 23.0625 10.0625 23.0312 9.96876C23 9.84376 22.9375 9.68751 22.9062 9.62501C22.8125 9.65626 22.6875 9.75001 22.5937 9.84376C22.5 9.93751 22.375 9.93751 22.25 9.87501C22 9.75001 21.75 9.62501 21.5937 9.59376C21.5625 9.68751 21.5 9.84376 21.4375 10C21.4062 10.0625 21.375 10.125 21.3125 10.1563C21.125 10.25 20.9687 10.4063 20.875 10.5C20.9687 10.5938 21.1562 10.75 21.3125 10.8438C21.4062 10.9063 21.4687 11.0625 21.4375 11.1875C21.4062 11.3125 21.375 11.4688 21.375 11.5313C21.4687 11.5938 21.6875 11.7188 21.7812 11.7188C21.9375 11.7188 22.0625 11.875 22.0625 12.0313V12.3438C22.0625 12.4688 22 12.5625 21.9062 12.625C21.8125 12.6875 21.6875 12.6875 21.5937 12.625C21.4062 12.5313 21.2187 12.4375 21.0625 12.375C21.0625 12.4375 21.0937 12.5 21.0937 12.5625C21.125 12.6875 21.0937 12.8125 20.9687 12.9063C20.7812 13.0625 20.5625 13.2188 20.5 13.3125C20.5312 13.4063 20.625 13.5625 20.75 13.6875C20.8125 13.75 20.8125 13.8438 20.8125 13.9375C20.7812 14.1563 20.75 14.4375 20.75 14.5625C20.9062 14.5625 21.1562 14.5313 21.375 14.5C21.4062 14.5625 21.4062 14.5625 21.4375 14.5625Z" fill="#333333"/>
<path d="M22.75 12.4062C22.5938 12.4062 22.4375 12.375 22.3125 12.3437L22.4375 11.7187C22.5625 11.75 22.75 11.75 22.8438 11.75C22.9063 11.6562 22.9687 11.4688 23.0312 11.3125L23.625 11.5C23.4063 12.1562 23.25 12.25 23.1875 12.2812C23.0625 12.4062 22.9063 12.4062 22.75 12.4062Z" fill="#333333"/>
</g>
<defs>
<clipPath id="clip0_7502_10785">
<rect width="20" height="20" fill="white" transform="translate(8 8)"/>
</clipPath>
</defs>
</svg>
