<svg width="36" height="36" viewBox="0 0 36 36" fill="none" xmlns="http://www.w3.org/2000/svg">
<rect width="36" height="36" rx="18" fill="#EFEFEF"/>
<g clip-path="url(#clip0_7502_10832)">
<path d="M17.7094 16.949C17.9259 16.658 17.8622 15.9276 17.6217 15.6562C17.3812 15.3848 16.9659 15.2948 16.6251 15.419C16.2844 15.5433 16.0298 15.8639 15.96 16.2197C15.8901 16.5759 15.997 16.9565 16.2206 17.242M19.043 15.6431C18.8142 15.9014 18.7533 16.5961 18.9595 16.8726M20.3756 17.1511C20.5884 16.8797 20.6897 16.5173 20.6236 16.1789C20.557 15.8405 20.3151 15.5358 19.9912 15.4172C19.6673 15.299 19.2722 15.3844 19.0434 15.6426M18.3183 16.9022C17.5715 16.9401 16.8192 17.0386 16.1231 17.3123C15.4275 17.5861 14.7881 18.0487 14.4065 18.6919C13.898 19.5487 13.9087 20.6658 14.3508 21.5587C14.7928 22.4517 15.6305 23.1192 16.5722 23.4459C17.5134 23.7726 18.5494 23.7759 19.5211 23.5537C20.1628 23.4075 20.7928 23.1586 21.299 22.7386C22.0486 22.117 22.4737 21.1298 22.4325 20.1567C22.3912 19.1836 21.8915 18.2442 21.1205 17.6489C20.3498 17.0536 19.328 16.8506 18.3178 16.9017L18.3183 16.9022Z" stroke="black" stroke-linecap="round" stroke-linejoin="round"/>
<path d="M21.9309 18.5756C22.394 18.2841 22.7559 17.8355 22.9424 17.3208C23.129 16.8066 23.122 16.0542 22.9542 15.5335M14.2851 18.6038C13.8281 18.3024 13.4831 17.835 13.3303 17.3095C13.1774 16.7841 13.2173 16.2047 13.4962 15.8292C14.1046 15.8161 14.6489 15.3886 14.939 14.8538C15.2292 14.3189 15.3009 13.6927 15.2985 13.0842C14.8664 13.3106 14.4632 13.5933 14.0428 13.9416C14.099 13.3369 14.0962 12.7266 14.0348 12.1224C13.372 12.4589 12.8826 13.118 12.7523 13.8497C12.622 14.5814 12.9764 15.3164 13.4821 15.8611M13.9429 20.3306C13.424 20.243 12.8779 20.3245 12.4073 20.5603C11.9367 20.7961 11.5443 21.1847 11.3043 21.653M15.3965 22.9355C15.0867 23.2613 15.0201 23.7938 15.2404 24.1852M20.8781 23.1277C21.1073 23.3766 21.2095 23.7366 21.1448 24.0689M22.5782 20.4385C23.0498 20.3461 23.5528 20.423 23.9751 20.6513C24.3979 20.8795 24.7373 21.2583 24.9187 21.7031M16.1578 18.0924C15.5006 18.3811 15.029 19.0533 14.9812 19.7695M14.9409 20.3691C14.9624 20.5477 14.9835 20.7267 15.0051 20.9053M22.3949 13.7335C22.3771 13.2314 22.3598 12.7289 22.342 12.2269C22.3406 12.1828 22.3406 12.1341 22.3706 12.1017C22.4057 12.0633 22.4662 12.0652 22.5178 12.0736C23.0526 12.158 23.4937 12.592 23.6699 13.1039C23.8462 13.6158 23.7834 14.1881 23.5846 14.6916C23.4398 15.0586 23.1974 15.42 22.8257 15.5527C22.567 15.645 22.2764 15.6122 22.0195 15.5147C21.5428 15.3333 21.1589 14.9236 21.0093 14.4361C20.8593 13.9486 20.9465 13.3941 21.239 12.976C21.5971 13.2895 21.9553 13.6027 22.3954 13.7335H22.3949Z" stroke="black" stroke-linecap="round" stroke-linejoin="round"/>
<path d="M18 28.9158C24.0286 28.9158 28.9158 24.0286 28.9158 18C28.9158 11.9714 24.0286 7.08423 18 7.08423C11.9714 7.08423 7.08423 11.9714 7.08423 18C7.08423 24.0286 11.9714 28.9158 18 28.9158Z" stroke="black" stroke-linecap="round" stroke-linejoin="round"/>
<path d="M22.0458 22.0458L25.6875 25.6875" stroke="black" stroke-linecap="round" stroke-linejoin="round"/>
<path d="M10.3125 10.3125L13.0519 13.0519" stroke="black" stroke-linecap="round" stroke-linejoin="round"/>
</g>
<defs>
<clipPath id="clip0_7502_10832">
<rect width="24" height="24" fill="white" transform="translate(6 6)"/>
</clipPath>
</defs>
</svg>
