<svg width="36" height="36" viewBox="0 0 36 36" fill="none" xmlns="http://www.w3.org/2000/svg">
<rect width="36" height="36" rx="18" fill="#EFEFEF"/>
<path d="M21.7239 11.3987C21.3085 11.3662 20.8762 11.4131 20.4421 11.5196C19.8593 11.6624 19.2689 11.9168 18.6904 12.2324C19.1834 12.7949 19.6139 13.4725 19.9758 14.2002C20.8676 15.9937 21.3662 18.0351 21.3662 19.2234C21.3662 20.934 20.9078 22.3804 19.9697 23.2542C19.3896 23.7945 18.6483 24.1722 17.7737 24.3784C18.5663 24.5881 19.3324 24.6178 20.0479 24.4529C21.2975 24.1649 22.4183 23.1413 23.2742 21.6599C23.8688 20.6308 24.4589 18.6135 24.584 16.6148C24.6465 15.6154 24.5907 14.6245 24.3411 13.7669C24.0914 12.9093 23.6387 12.1762 22.9067 11.7539H22.9042C22.5383 11.5427 22.1392 11.4311 21.7239 11.3987Z" fill="#F0F0F0"/>
<path d="M16.0877 10.8281C15.2425 10.8281 14.4842 11.2371 13.8389 11.855C13.1936 12.473 12.6491 13.3039 12.2032 14.2006C11.3114 15.9941 10.8125 18.0351 10.8125 19.2234C10.8125 20.9341 11.2708 22.3805 12.2089 23.2543C13.1315 24.1137 14.4632 24.5626 16.0877 24.5626H16.0914C17.7159 24.5626 19.0476 24.1137 19.9702 23.2543C20.9083 22.3805 21.3666 20.9341 21.3666 19.2234C21.3666 18.0351 20.8677 15.9941 19.9759 14.2006C19.53 13.3039 18.9855 12.473 18.3402 11.855C17.6949 11.2371 16.9366 10.8281 16.0914 10.8281H16.0877Z" fill="#F0F0F0"/>
<path d="M21.7879 11.1478C21.3558 11.1059 20.8896 11.1321 20.3926 11.2112C20.3844 11.213 20.3762 11.2151 20.3682 11.2175C19.7495 11.3692 19.1357 11.6351 18.5408 11.9597C18.4998 11.9821 18.4643 12.0135 18.437 12.0515C18.4097 12.0894 18.3913 12.1331 18.3831 12.1791C18.3749 12.2251 18.3771 12.2724 18.3896 12.3174C18.4021 12.3625 18.4246 12.4042 18.4553 12.4394C18.9258 12.9761 19.3432 13.6327 19.6956 14.3413C20.5659 16.0916 21.0542 18.1244 21.0542 19.2253C21.0542 20.8801 20.606 22.2354 19.7566 23.0266C19.2205 23.5259 18.5322 23.8794 17.7022 24.0752C17.6342 24.091 17.5734 24.1291 17.5296 24.1835C17.4858 24.2379 17.4615 24.3053 17.4605 24.3752C17.4595 24.445 17.4819 24.5131 17.5242 24.5687C17.5664 24.6243 17.6261 24.6641 17.6936 24.6819C18.5273 24.9023 19.3469 24.9365 20.1179 24.7588C21.4856 24.4436 22.6606 23.3478 23.5444 21.8181C24.1827 20.7133 24.7677 18.6831 24.8958 16.6362C24.9598 15.6125 24.9048 14.5885 24.6406 13.6809C24.6388 13.6744 24.6368 13.6679 24.6345 13.6615C24.2505 12.6053 23.706 11.8884 22.9805 11.4972C22.6177 11.3016 22.2199 11.1913 21.7878 11.1492L21.7879 11.1478ZM21.7207 11.7691C22.084 11.8041 22.4027 11.8946 22.6838 12.0462C23.2438 12.3481 23.6921 12.9057 24.0425 13.8638C24.2754 14.6696 24.3328 15.6243 24.272 16.5958C24.1499 18.5465 23.5546 20.5495 23.0037 21.503C22.1757 22.9361 21.1091 23.8875 19.9775 24.1483C19.7549 24.1995 19.4951 24.1126 19.261 24.1238C19.5934 23.9393 19.9109 23.736 20.1826 23.483C21.2094 22.5265 21.6792 20.9904 21.6792 19.2239C21.6792 17.9483 21.1691 15.8981 20.2559 14.0616C19.9485 13.4436 19.5607 12.895 19.1548 12.3782C19.609 12.1515 20.0661 11.9356 20.5073 11.8265C20.9588 11.7557 21.3621 11.7349 21.7207 11.7691Z" fill="black"/>
<path d="M16.0872 10.5154C15.1412 10.5154 14.3064 10.9738 13.6226 11.6287C12.9396 12.2827 12.3801 13.143 11.9233 14.0616C11.0102 15.8981 10.5 17.9482 10.5 19.2239C10.5 20.9904 10.9685 22.5265 11.9954 23.483C12.988 24.4075 14.4051 24.8746 16.0872 24.8746H16.0908C17.7729 24.8746 19.19 24.4075 20.1826 23.483C21.2094 22.5265 21.6792 20.9904 21.6792 19.2239C21.6792 17.9482 21.1691 15.8981 20.2559 14.0616C19.7991 13.143 19.2396 12.2827 18.5567 11.6287C17.8728 10.9738 17.0368 10.5154 16.0908 10.5154H16.0872ZM16.0872 11.1404H16.0908C16.8352 11.1404 17.5178 11.4994 18.1245 12.0804C18.7322 12.6624 19.2606 13.4651 19.6956 14.3399C20.566 16.0903 21.0542 18.1231 21.0542 19.2239C21.0542 20.8788 20.6072 22.2341 19.7578 23.0252C18.9052 23.8194 17.6578 24.2496 16.0908 24.2496H16.0872C14.5202 24.2496 13.274 23.8194 12.4214 23.0252C11.572 22.2341 11.125 20.8788 11.125 19.2239C11.125 18.1231 11.6133 16.0903 12.4836 14.3399C12.9186 13.4651 13.447 12.6624 14.0547 12.0804C14.6614 11.4994 15.3428 11.1404 16.0872 11.1404Z" fill="black"/>
<path d="M15.2204 12.0376C15.15 12.0401 15.0824 12.0664 15.0288 12.1121C14.4947 12.556 14.0638 12.9953 13.7947 13.3743C13.6055 13.6407 13.4409 13.9095 13.3039 14.1787C13.2354 14.3133 13.1743 14.4483 13.1196 14.5828C13.1026 14.621 13.0934 14.6623 13.0927 14.7042C13.092 14.746 13.0996 14.7876 13.1153 14.8265C13.1309 14.8653 13.1542 14.9006 13.1838 14.9303C13.2133 14.96 13.2485 14.9834 13.2873 14.9992C13.3261 15.015 13.3677 15.0228 13.4095 15.0222C13.4514 15.0216 13.4927 15.0126 13.531 14.9958C13.5694 14.9789 13.6039 14.9545 13.6326 14.924C13.6614 14.8936 13.6837 14.8576 13.6982 14.8184C13.7459 14.7011 13.8009 14.5816 13.8618 14.4619C13.9836 14.2225 14.1308 13.9803 14.3037 13.7368C14.5201 13.4321 14.924 13.012 15.428 12.593C15.4789 12.5518 15.5157 12.4956 15.5329 12.4324C15.5502 12.3691 15.5472 12.302 15.5242 12.2406C15.5013 12.1791 15.4596 12.1265 15.4051 12.0901C15.3506 12.0537 15.286 12.0353 15.2204 12.0376Z" fill="black"/>
<path d="M13.3572 15.7874C13.3572 15.8702 13.3242 15.9496 13.2656 16.0082C13.207 16.0667 13.1276 16.0996 13.0447 16.0996C12.9618 16.0996 12.8823 16.0667 12.8237 16.0082C12.7651 15.9496 12.7322 15.8702 12.7322 15.7874C12.7322 15.7464 12.7403 15.7058 12.756 15.6679C12.7717 15.63 12.7947 15.5956 12.8237 15.5666C12.8527 15.5376 12.8872 15.5145 12.9251 15.4988C12.963 15.4831 13.0036 15.4751 13.0447 15.4751C13.0857 15.4751 13.1264 15.4831 13.1643 15.4988C13.2022 15.5145 13.2366 15.5376 13.2657 15.5666C13.2947 15.5956 13.3177 15.63 13.3334 15.6679C13.3491 15.7058 13.3572 15.7464 13.3572 15.7874Z" fill="black"/>
</svg>
