<svg width="36" height="36" viewBox="0 0 36 36" fill="none" xmlns="http://www.w3.org/2000/svg">
<rect width="36" height="36" rx="18" fill="#EFEFEF"/>
<path d="M17.3125 13.8906H17.2969H17.2812C14.3906 13.9062 11.7188 15.4531 10.2656 17.9531C11.7188 20.4688 14.3906 22.0156 17.2812 22.0156H17.2969H17.3125C20.2031 22 22.875 20.4531 24.3281 17.9531C22.875 15.4531 20.2031 13.9062 17.3125 13.8906Z" fill="white"/>
<path d="M17.9062 20.4688L17.2812 22.0313C19.5469 22.0313 21.6875 21.0938 23.2031 19.4844C23.625 19.0313 23.4219 18.3438 23.0312 18.6563C21.5937 19.8125 19.7969 20.4688 17.9062 20.4688Z" fill="#C3DBEA"/>
<path d="M17.3125 20.4688H17.2969H17.2813C15.3594 20.4531 13.5313 19.7656 12.0938 18.5781C11.6094 18.1719 10.875 18.9063 11.25 19.3281C12.7657 21.0313 14.9532 22.0313 17.2813 22.0469H17.2969H17.3125C20.2032 22.0313 22.875 20.4844 24.3282 17.9844C24.3282 17.9844 24.3282 17.9844 24.3282 17.9688C24.1094 17.5938 23.5782 17.5313 23.2813 17.8594C21.75 19.4844 19.6094 20.4531 17.3125 20.4688Z" fill="#C3DBEA"/>
<path d="M13.3906 18.4375C13.6495 18.4375 13.8594 18.2276 13.8594 17.9688C13.8594 17.7099 13.6495 17.5 13.3906 17.5C13.1317 17.5 12.9219 17.7099 12.9219 17.9688C12.9219 18.2276 13.1317 18.4375 13.3906 18.4375Z" fill="#3F4A54"/>
<path d="M25.9844 15.375C25.7656 15.2343 25.4688 15.2968 25.3438 15.5156L24.3281 17.0937C22.8281 14.9531 20.4062 13.5937 17.7812 13.4375C17.8594 13.3125 17.875 13.1562 17.8125 13C17.7188 12.7656 17.4375 12.6562 17.2031 12.75L14.2656 13.9843C14.25 13.9843 14.25 14 14.25 14C12.4375 14.7031 10.8594 16 9.85938 17.7343C9.78125 17.875 9.78125 18.0625 9.85938 18.2031C10.7969 19.8437 12.25 21.0937 13.9375 21.8125C13.9688 21.8281 14.0156 21.8437 14.0469 21.8593C14.1094 21.8906 14.1719 21.9062 14.2344 21.9375C14.2344 21.9375 14.25 21.9375 14.25 21.9531L17.1875 23.25C17.25 23.2812 17.3125 23.2968 17.375 23.2968C17.5469 23.2968 17.7188 23.1875 17.7969 23.0156C17.875 22.8281 17.8281 22.6406 17.7031 22.5C20.3437 22.3593 22.7969 21 24.3125 18.8437L25.3281 20.4218C25.4219 20.5625 25.5625 20.6406 25.7188 20.6406C25.8125 20.6406 25.8906 20.6093 25.9688 20.5625C26.1875 20.4218 26.25 20.1406 26.1094 19.9218L24.8594 17.9843L26.1094 16.0468C26.2656 15.8125 26.2031 15.5156 25.9844 15.375ZM17.3125 21.5625H17.2969H17.2812C16.5469 21.5625 15.8281 21.4375 15.1406 21.2343C16.0313 20.3906 16.5469 19.2187 16.5469 17.9531C16.5469 17.6875 16.3438 17.4843 16.0781 17.4843C15.8125 17.4843 15.6094 17.6875 15.6094 17.9531C15.6094 19.1093 15.0625 20.1718 14.1406 20.8593C12.7812 20.25 11.6094 19.25 10.8125 17.9687C12.2031 15.75 14.6562 14.375 17.2812 14.375H17.2969H17.3125C19.9375 14.3906 22.3906 15.7656 23.7812 17.9687C22.3906 20.1718 19.9375 21.5468 17.3125 21.5625Z" fill="#3F4A54"/>
</svg>
