<svg width="36" height="36" viewBox="0 0 36 36" fill="none" xmlns="http://www.w3.org/2000/svg">
<rect width="36" height="36" rx="18" fill="#EFEFEF"/>
<path d="M26.7515 9.24963L26.3736 9.28625C26.3736 9.28625 25.8303 9.3394 25.1665 9.51775C24.5015 9.69492 23.6995 9.9902 23.1432 10.5453C22.6271 11.0627 22.3389 11.5717 22.2644 12.0595C22.2078 12.4339 22.2916 12.7895 22.4782 13.08L21.9408 13.6174C22.0495 12.9371 21.9172 12.2166 21.7613 11.6331C21.5841 10.9682 21.3573 10.4697 21.3573 10.4697L21.2003 10.1272L20.892 10.3457C20.892 10.3457 20.4467 10.6646 19.9589 11.1512C19.4734 11.6379 18.9266 12.2922 18.7234 13.0517C18.5345 13.7568 18.5392 14.3426 18.7187 14.8021C18.8097 15.039 18.9608 15.2482 19.1571 15.4091C19.3534 15.57 19.5882 15.6771 19.8384 15.7198L18.7447 16.8124C18.8534 16.1321 18.7234 15.4116 18.5675 14.8281C18.388 14.1619 18.1624 13.6659 18.1624 13.6659L18.0065 13.321L17.697 13.5407C17.697 13.5407 17.2518 13.8572 16.7639 14.3438C16.2773 14.8305 15.7316 15.4883 15.5285 16.2454C15.3395 16.9518 15.3431 17.5376 15.5238 17.9971C15.6148 18.234 15.7659 18.4432 15.9622 18.6041C16.1585 18.765 16.3933 18.8721 16.6435 18.9148L15.5202 20.0369C15.6277 19.3565 15.4966 18.636 15.3407 18.0526C15.1635 17.3876 14.9356 16.8927 14.9356 16.8927L14.7785 16.5466L14.4702 16.7651C14.4702 16.7651 14.0273 17.084 13.5407 17.5707C13.0528 18.0573 12.5048 18.7128 12.3005 19.4723C12.1115 20.1762 12.1162 20.7621 12.2957 21.2227C12.3871 21.4598 12.5384 21.6691 12.7349 21.8301C12.9314 21.9912 13.1663 22.0985 13.4166 22.1416L9.3453 26.213C9.31309 26.2411 9.28701 26.2756 9.26866 26.3143C9.25031 26.3529 9.24007 26.3949 9.23859 26.4377C9.23711 26.4804 9.24441 26.5231 9.26005 26.5629C9.27568 26.6027 9.29931 26.6389 9.32949 26.6693C9.35966 26.6996 9.39574 26.7234 9.43548 26.7393C9.47523 26.7551 9.5178 26.7626 9.56057 26.7614C9.60334 26.7601 9.64539 26.7501 9.68414 26.732C9.72289 26.7138 9.75751 26.6879 9.78586 26.6559L13.8596 22.5845C13.9028 22.8346 14.0102 23.0691 14.1713 23.2652C14.3324 23.4612 14.5416 23.6121 14.7785 23.7031C15.2391 23.8838 15.8226 23.8873 16.5265 23.6995C17.286 23.4952 17.9439 22.9495 18.4305 22.4629C18.9171 21.9751 19.2337 21.5298 19.2337 21.5298L19.4546 21.2227L19.1085 21.0644C19.1085 21.0644 18.6124 20.8388 17.9486 20.6605C17.364 20.5046 16.6435 20.3735 15.9631 20.481L17.0852 19.3589C17.0935 19.4014 17.1017 19.4463 17.1136 19.4888C17.2305 19.9258 17.5435 20.2979 18.0041 20.4786C18.4636 20.6581 19.0494 20.6629 19.7546 20.4739C20.514 20.2707 21.1684 19.7215 21.6562 19.2349C22.1428 18.7482 22.4605 18.3053 22.4605 18.3053L22.6802 17.9959L22.3365 17.84C22.3365 17.84 21.8381 17.6132 21.1731 17.436C20.5884 17.2789 19.8679 17.149 19.1864 17.2577L20.2813 16.1628C20.324 16.4131 20.431 16.6481 20.5919 16.8446C20.7528 17.0411 20.962 17.1924 21.1991 17.2837C21.6597 17.4632 22.2444 17.4679 22.9495 17.2789C23.7078 17.0758 24.3633 16.5289 24.8511 16.0423C25.3377 15.5557 25.6555 15.1092 25.6555 15.1092L25.8751 14.8021L25.5314 14.6438C25.5314 14.6438 25.033 14.4194 24.368 14.2411C23.7846 14.084 23.0641 13.9541 22.3837 14.0615L22.9212 13.5241C23.2117 13.7096 23.5672 13.7946 23.9416 13.7379C24.4306 13.6635 24.9385 13.3753 25.4547 12.8592C26.0098 12.304 26.3051 11.5009 26.4846 10.8359C26.5912 10.4398 26.6682 10.0363 26.7149 9.62878L26.7515 9.24963ZM26.0133 9.98784C25.985 10.1874 25.9838 10.2926 25.8811 10.6729C25.7169 11.2859 25.4275 12.004 25.0141 12.4174C24.5617 12.8698 24.159 13.0718 23.8495 13.119C23.7232 13.1439 23.5927 13.1373 23.4695 13.0998C23.3463 13.0623 23.2342 12.9951 23.1432 12.904C23.1292 12.8866 23.1133 12.8708 23.096 12.8568C23.0054 12.7657 22.9387 12.6537 22.9016 12.5308C22.8645 12.4078 22.8583 12.2776 22.8834 12.1517C22.9306 11.8422 23.1314 11.4394 23.5838 10.9871C23.9972 10.5737 24.7153 10.2831 25.3283 10.1189C25.7086 10.0174 25.8149 10.0162 26.0133 9.98902V9.98784ZM20.9286 11.1371C21.003 11.3237 21.0562 11.4146 21.1577 11.7938C21.3219 12.408 21.4306 13.1722 21.2794 13.7367C21.114 14.3545 20.866 14.7312 20.6227 14.9273C20.5215 15.0163 20.3993 15.0779 20.2677 15.1065C20.136 15.135 19.9992 15.1294 19.8703 15.0903C19.7391 15.06 19.6178 14.9967 19.518 14.9063C19.4182 14.816 19.3431 14.7017 19.2998 14.5741C19.1864 14.2824 19.1604 13.83 19.3258 13.2135C19.477 12.6489 19.9542 12.0395 20.403 11.5918C20.6806 11.3142 20.7703 11.2611 20.9286 11.1371ZM17.7325 14.3308C17.8069 14.5175 17.86 14.6096 17.9604 14.9875C18.1258 15.6017 18.2344 16.3659 18.0833 16.9305C17.9179 17.5482 17.6699 17.9262 17.4254 18.1211C17.3243 18.2098 17.2023 18.2714 17.0709 18.2999C16.9395 18.3284 16.8029 18.323 16.6742 18.2841C16.543 18.2537 16.4218 18.1903 16.322 18.1C16.2222 18.0097 16.147 17.8954 16.1037 17.7679C15.9891 17.4762 15.9631 17.0238 16.1297 16.4061C16.2809 15.8427 16.758 15.2332 17.2069 14.7844C17.4833 14.508 17.5742 14.4549 17.7325 14.3308ZM22.9649 14.6497C23.3794 14.6592 23.8224 14.7407 24.205 14.8423C24.5842 14.9438 24.6763 14.9958 24.8629 15.0714C24.7389 15.2297 24.6858 15.3194 24.4094 15.597C23.9605 16.0458 23.3511 16.5206 22.7877 16.6718C22.1688 16.8372 21.7176 16.8136 21.4258 16.699C21.2983 16.656 21.1838 16.5812 21.0932 16.4815C21.0027 16.3819 20.9391 16.2608 20.9085 16.1297C20.8699 16.0007 20.8649 15.8641 20.8938 15.7327C20.9227 15.6012 20.9847 15.4793 21.0739 15.3785C21.2688 15.1328 21.6455 14.886 22.2633 14.7206C22.4759 14.6639 22.7145 14.6438 22.9637 14.6497H22.9649ZM14.508 17.5553C14.5824 17.7431 14.6344 17.8341 14.736 18.2132C14.9001 18.8262 15.0076 19.5904 14.8564 20.155C14.6911 20.7739 14.443 21.153 14.1985 21.3479C14.0977 21.4367 13.9759 21.4981 13.8446 21.5265C13.7133 21.5548 13.577 21.549 13.4485 21.5097C13.3174 21.4791 13.1963 21.4155 13.0967 21.325C12.997 21.2345 12.9222 21.12 12.8792 20.9924C12.7647 20.7006 12.7375 20.2518 12.904 19.6341C13.0552 19.0695 13.5324 18.4589 13.9812 18.01C14.2588 17.7325 14.3497 17.6793 14.508 17.5553ZM19.7699 17.8447C20.1857 17.8541 20.6274 17.9356 21.0101 18.0384C21.3904 18.14 21.4825 18.1919 21.668 18.2663C21.544 18.4246 21.4908 18.5144 21.2132 18.7919C20.7644 19.2408 20.1561 19.7156 19.5916 19.8668C18.9738 20.0321 18.5226 20.0085 18.2309 19.8951C18.1034 19.8519 17.989 19.7768 17.8987 19.6769C17.8084 19.5771 17.7451 19.4558 17.7148 19.3246C17.6756 19.1957 17.6701 19.059 17.6986 18.9273C17.7271 18.7956 17.7888 18.6734 17.8777 18.5723C18.0738 18.3278 18.4506 18.0809 19.0683 17.9156C19.2809 17.8589 19.5195 17.8388 19.7699 17.8447ZM16.5454 21.0703C16.96 21.0798 17.4029 21.1601 17.7856 21.2629C18.1648 21.3644 18.2569 21.4164 18.4435 21.4908C18.3183 21.6491 18.2663 21.7389 17.9888 22.0164C17.5399 22.4652 16.9293 22.9424 16.3647 23.0936C15.747 23.259 15.297 23.2342 15.0064 23.1196C14.8788 23.0766 14.7643 23.0018 14.6738 22.9021C14.5833 22.8025 14.5197 22.6814 14.4891 22.5503C14.4497 22.4215 14.4439 22.2848 14.4722 22.1531C14.5005 22.0214 14.5621 21.8991 14.6509 21.7979C14.8458 21.5534 15.2249 21.3089 15.8438 21.1424C16.0541 21.0857 16.295 21.0656 16.5443 21.0715L16.5454 21.0703Z" fill="black"/>
</svg>
