<svg width="36" height="36" viewBox="0 0 36 36" fill="none" xmlns="http://www.w3.org/2000/svg">
<rect width="36" height="36" rx="18" fill="#EFEFEF"/>
<g clip-path="url(#clip0_7502_10897)">
<path d="M13.2264 8.66762C12.8294 8.74889 12.3677 8.93423 11.8951 9.2072C11.4389 9.47063 11.0308 9.78895 10.762 10.0922C10.6275 10.2439 10.5216 10.3944 10.4563 10.558C10.391 10.7216 10.362 10.9198 10.4684 11.1152C10.4791 11.1335 10.4966 11.1558 10.5087 11.172C10.4917 11.4695 10.4364 11.6783 10.3891 11.8471C10.2534 12.3317 9.72922 12.806 9.3189 13.5012C8.37019 15.1086 8.38651 17.0522 9.41587 18.6528C9.17749 19.0481 8.99355 19.5012 8.8417 20.0555C8.41373 21.6175 8.63144 23.2745 9.48969 24.6187C10.348 25.9628 11.8274 26.9783 13.9311 27.2805C16.9024 27.7074 19.1345 26.6459 20.4135 25.0453C22.2133 25.4265 23.8136 25.0306 25.026 24.1409C26.0644 23.3788 26.8377 22.23 27.1686 20.946C27.4004 20.0807 27.4328 19.3836 27.2882 18.6827C27.1437 17.9818 26.8304 17.2869 26.3846 16.3663C26.3109 16.2141 26.2062 15.9834 26.1332 15.7645C26.0822 15.6115 26.0564 15.4988 26.0484 15.4141C26.1645 15.213 26.1321 15.0085 26.0673 14.8459C26.002 14.6823 25.8966 14.5336 25.7622 14.382C25.4933 14.0787 25.1017 13.7717 24.6291 13.4988C24.1565 13.2258 23.6929 13.0386 23.2959 12.9574C23.1162 12.9206 22.9161 12.9004 22.7419 12.9256C22.5676 12.9509 22.3724 13.0305 22.2659 13.215C22.2553 13.2337 22.2442 13.2598 22.2361 13.279C21.97 13.413 21.7623 13.4693 21.5923 13.5128C21.4763 13.5425 21.3356 13.557 21.2 13.5525C20.9569 12.5003 20.4038 11.5147 19.6111 10.7307C18.9743 10.1009 18.4037 9.72623 17.7111 9.49652C17.032 9.2713 16.2774 9.19698 15.2576 9.12297C15.089 9.11073 14.8332 9.08374 14.6072 9.03751C14.4481 9.00497 14.3386 8.97211 14.2624 8.9368C14.1502 8.73659 13.9531 8.66203 13.781 8.6371C13.6938 8.62447 13.6047 8.62231 13.5126 8.62792C13.4205 8.63362 13.3257 8.64731 13.2264 8.66762ZM13.4992 9.53314C13.2936 9.76507 12.9437 10.0458 12.5199 10.2906C12.096 10.5354 11.6776 10.6979 11.374 10.76C11.2245 10.7906 11.1033 10.7945 11.0378 10.7856C11.0629 10.7245 11.1144 10.6375 11.2288 10.5085C11.4343 10.2766 11.7836 9.99343 12.2075 9.74861C12.6314 9.50379 13.0504 9.3432 13.354 9.28106C13.4208 9.26314 13.5895 9.24082 13.6895 9.25359C13.6644 9.31477 13.6004 9.41893 13.4992 9.53314ZM14.4828 9.65094C14.7532 9.70625 15.027 9.73218 15.2113 9.74555C16.2218 9.81889 16.9302 9.89513 17.5153 10.0892C18.0828 10.2774 18.5808 10.5899 19.1731 11.1757C19.8333 11.8286 20.304 12.6326 20.5405 13.4896C20.2035 13.45 19.9607 13.4172 19.6252 13.4139C18.1897 13.3999 16.88 13.9735 15.9472 15.0058C15.6159 14.9264 15.2058 14.8764 14.7641 14.8764C14.239 14.8764 13.7256 14.9466 13.3411 15.0748C13.1489 15.1389 12.9704 15.226 12.8463 15.3238C12.7091 15.432 12.5756 15.5937 12.5772 15.8262C12.5288 15.8961 12.4443 15.9851 12.3234 16.0923C12.1507 16.2454 11.9496 16.3892 11.8096 16.4841C10.9634 17.0583 10.346 17.5023 9.87052 18.0369C9.85079 18.0591 9.83166 18.0823 9.81253 18.1047C9.03727 16.7459 9.07549 15.1406 9.85646 13.8174C10.2438 13.161 10.8102 12.6602 10.9908 12.0155C11.0307 11.8731 11.0842 11.6722 11.1146 11.4137C11.2383 11.4147 11.3628 11.4007 11.499 11.3728C11.5642 11.3595 11.6324 11.3411 11.701 11.3222C11.6679 11.4325 11.6226 11.5417 11.5787 11.6316C11.4058 11.9853 11.2389 12.3517 11.1134 12.7401C10.9816 13.127 11.572 13.3351 11.7059 12.9317C11.8162 12.5905 11.9765 12.2387 12.144 11.8959C12.2484 11.6824 12.3546 11.4017 12.3868 11.0652C12.4435 11.0386 12.4989 11.0103 12.5564 10.981L13.3411 12.3409C13.5643 12.6999 14.082 12.3897 13.8829 12.0296L13.0983 10.6685C13.148 10.6362 13.1961 10.6049 13.2435 10.572C13.5506 10.7118 13.847 10.7608 14.0837 10.7771C14.5824 10.8115 15.087 10.866 15.5133 10.9962C15.9115 11.1195 16.0964 10.522 15.6982 10.3987C15.1899 10.2435 14.6397 10.187 14.1252 10.1515C14.0268 10.1447 13.9225 10.1326 13.8122 10.1075C13.866 10.0548 13.9186 10.0009 13.9653 9.94821C14.0702 9.82989 14.1571 9.71055 14.221 9.58686C14.3092 9.6114 14.3917 9.63233 14.4828 9.65094ZM25.2961 14.7977C25.3973 14.9119 25.4602 15.0136 25.4853 15.0748C25.4197 15.0836 25.3004 15.0797 25.1509 15.0491C24.8473 14.987 24.4283 14.8264 24.0044 14.5816C23.5805 14.3368 23.2319 14.0536 23.0263 13.8217C22.9027 13.6823 22.861 13.6051 22.8359 13.5439C22.8686 13.5396 22.9159 13.5391 22.9726 13.5428C23.0293 13.5463 23.0968 13.5549 23.1715 13.5702C23.4751 13.6324 23.8929 13.7954 24.3168 14.0402C24.7407 14.285 25.0905 14.5657 25.2961 14.7977ZM21.1793 14.5859C20.7756 14.6811 20.9018 15.279 21.3111 15.1969C21.6617 15.1217 22.0466 15.0845 22.4271 15.0583C22.6641 15.0419 22.9611 14.9927 23.2685 14.8526C23.3194 14.8883 23.3711 14.9233 23.4247 14.9582L22.6395 16.3181C22.4422 16.6788 22.9595 16.99 23.1813 16.6319L23.9672 15.2713C24.0197 15.298 24.0703 15.322 24.1222 15.3464C24.1565 15.6997 24.2626 15.9639 24.3668 16.1771C24.5864 16.6263 24.7899 17.0947 24.8904 17.5291C24.9969 17.9345 25.5861 17.792 25.4987 17.3887C25.3789 16.8708 25.1535 16.3666 24.927 15.9031C24.8834 15.8139 24.8428 15.7174 24.8092 15.6082C24.8824 15.6287 24.9551 15.6465 25.0246 15.6607C25.1797 15.6925 25.3274 15.7089 25.4664 15.7028C25.4869 15.7997 25.5115 15.8726 25.5408 15.9604C25.628 16.2224 25.7415 16.4747 25.822 16.641C26.2638 17.5531 26.5505 18.2033 26.6751 18.8072C26.7996 19.4112 26.7726 19.9919 26.5646 20.7867C25.9284 23.2175 23.6786 24.969 20.8065 24.4844C21.1124 23.9894 21.3128 23.506 21.4423 22.9944C22.0846 20.6418 21.0995 18.4117 19.1407 17.3057C18.4672 16.9254 17.7334 16.753 17.3883 16.4078C17.2631 16.2854 17.1108 16.1344 16.9472 15.886C16.9496 15.8651 16.9531 15.8346 16.9531 15.8127C16.9495 15.5924 16.8235 15.4353 16.6852 15.3262C16.6517 15.2998 16.6151 15.273 16.5785 15.2499C17.3784 14.4553 18.4741 14.0254 19.6189 14.0365C20.0042 14.0451 20.3026 14.0892 20.5616 14.1224C20.9663 14.1742 21.3629 14.214 21.735 14.122C21.8782 14.0853 22.0903 14.0276 22.3293 13.9248C22.3764 14.0143 22.4659 14.1321 22.5581 14.2361C22.6028 14.2866 22.6524 14.3374 22.7039 14.3881C22.5905 14.4148 22.4768 14.4288 22.3761 14.4357C21.9833 14.4628 21.5783 14.5004 21.1793 14.5859ZM14.7641 15.5014C15.2535 15.5014 15.6971 15.5694 15.9911 15.6675C16.1372 15.7162 16.2444 15.7735 16.2962 15.8139C16.2442 15.8544 16.1368 15.9119 15.9911 15.9604C15.6971 16.0585 15.2535 16.1265 14.7641 16.1265C14.2746 16.1265 13.8322 16.0585 13.5382 15.9604C13.3926 15.9119 13.2857 15.8544 13.2338 15.8139C13.2855 15.7735 13.3958 15.7162 13.5419 15.6675C13.8359 15.5694 14.2746 15.5014 14.7641 15.5014ZM10.0157 24.2817C9.25728 23.0939 9.06174 21.6234 9.44585 20.2215C9.666 19.418 9.92878 18.9127 10.3385 18.452C10.7482 17.9913 11.322 17.5701 12.1605 17.0011C12.3134 16.8974 12.5372 16.7363 12.7438 16.5531C12.8132 16.4916 12.8839 16.4281 12.9375 16.3681C13.0363 16.433 13.1906 16.5029 13.3411 16.5531C13.4079 16.5754 13.4817 16.5954 13.5547 16.6141C13.4717 16.6913 13.386 16.7542 13.3039 16.8095C12.876 17.0976 12.4285 17.4218 12.0659 17.8105C11.7829 18.1165 12.2418 18.5413 12.5247 18.2353C12.8289 17.9094 13.2377 17.6075 13.6523 17.3283C13.849 17.1958 14.0835 17.005 14.2796 16.7307C14.3371 16.7355 14.3937 16.7398 14.4529 16.7429V18.3134C14.4623 18.7271 15.0684 18.7333 15.0777 18.3134V16.7429C15.1419 16.7396 15.2009 16.7349 15.2632 16.7295C15.4593 17.0045 15.6946 17.1956 15.8916 17.3283C16.208 17.5413 16.5225 17.7685 16.7886 18.0089C17.1069 18.2779 17.5079 17.8297 17.2084 17.5431C16.9056 17.2696 16.5665 17.0293 16.24 16.8095C16.157 16.7535 16.0726 16.6902 15.9887 16.6117C16.0578 16.5938 16.126 16.5742 16.1894 16.5531C16.3213 16.5091 16.4367 16.459 16.5433 16.3962C16.6989 16.6045 16.8446 16.7525 16.9503 16.8559C17.4563 17.3405 18.2086 17.4887 18.8345 17.8502C20.527 18.8058 21.4139 20.7341 20.8383 22.8376C20.273 25.0736 17.8739 27.2161 14.019 26.6622C12.1009 26.3866 10.7742 25.4696 10.0157 24.2817Z" fill="black"/>
</g>
<defs>
<clipPath id="clip0_7502_10897">
<rect width="20" height="20" fill="white" transform="translate(8 8)"/>
</clipPath>
</defs>
</svg>
