<svg width="36" height="36" viewBox="0 0 36 36" fill="none" xmlns="http://www.w3.org/2000/svg">
<rect width="36" height="36" rx="18" fill="#EFEFEF"/>
<path d="M20.9413 13.9499C20.3562 12.6334 20.1744 11.2242 20.1228 10.6683L20.2118 10.5907L20.2312 10.5725C20.2355 10.5682 20.2397 10.5639 20.2439 10.5595L20.2479 10.5551C20.3322 10.4655 20.3788 10.3488 20.3795 10.2224V8.88261C20.3795 8.61448 20.1613 8.39624 19.8931 8.39624H16.1074C15.9784 8.39636 15.8547 8.44762 15.7635 8.5388C15.6722 8.62997 15.6208 8.75361 15.6206 8.88261V10.2268C15.6216 10.3528 15.6715 10.4735 15.7597 10.5635L15.7672 10.571L15.7883 10.5905L15.8773 10.6681C15.825 11.2253 15.6415 12.6378 15.0593 13.9501C14.2538 15.7624 14.1393 16.4674 14.1393 18.1198V26.3514C14.1396 26.6834 14.2716 27.0018 14.5063 27.2366C14.741 27.4714 15.0593 27.6035 15.3914 27.6039H20.6081C20.9402 27.6036 21.2585 27.4715 21.4934 27.2367C21.7282 27.0019 21.8603 26.6835 21.8606 26.3514V18.1195C21.8606 16.4674 21.7461 15.7624 20.9413 13.9499ZM19.8848 8.88261L19.8872 10.2169C19.8856 10.2186 19.884 10.2203 19.8824 10.222L19.7035 10.3778C19.6744 10.4032 19.6517 10.435 19.6371 10.4707C19.6226 10.5064 19.6165 10.545 19.6195 10.5835C19.6424 10.8806 19.7224 11.6642 19.9573 12.5879C19.9291 12.606 19.905 12.6297 19.8863 12.6576C19.8639 12.691 19.3226 13.4756 18.189 12.9094C17.2771 12.4532 16.4635 12.5916 16.0017 12.7461C16.1713 12.1115 16.2911 11.4646 16.3602 10.8114H19.0848C19.1504 10.8114 19.2132 10.7854 19.2596 10.739C19.306 10.6926 19.332 10.6297 19.332 10.5642C19.332 10.4986 19.306 10.4357 19.2596 10.3893C19.2132 10.3429 19.1504 10.3169 19.0848 10.3169H16.2272L16.1151 10.2191L16.1074 8.89053L19.8848 8.88261ZM21.3661 26.3512C21.3659 26.5522 21.2859 26.7448 21.1438 26.8869C21.0017 27.029 20.809 27.109 20.6081 27.1092H15.3914C15.1905 27.1089 14.9979 27.0289 14.8558 26.8868C14.7138 26.7447 14.634 26.5521 14.6338 26.3512V18.1195C14.6338 16.5499 14.743 15.8793 15.5112 14.1505C15.6256 13.8908 15.7277 13.6258 15.8171 13.3565C15.8294 13.3518 15.8421 13.3507 15.8538 13.3439C15.8933 13.3209 16.8371 12.7866 17.9674 13.3516C18.3338 13.5349 18.6657 13.6068 18.9586 13.6068C19.3893 13.6092 19.804 13.4439 20.1149 13.1459C20.2201 13.4878 20.345 13.8232 20.4892 14.1505C21.2569 15.8789 21.3661 16.5496 21.3661 18.1193V26.3512Z" fill="black"/>
<path d="M18.0027 22.2987C18.1249 22.2987 18.2486 22.2894 18.3699 22.2712C19.4075 22.1169 20.206 21.236 20.1877 20.2512L20.1831 20.1857C20.1809 20.1402 20.1772 20.0949 20.1721 20.0497C20.1341 19.7334 20.0354 19.4064 19.8609 19.0206C19.6066 18.4617 19.2664 17.9064 18.7574 17.2191C18.589 16.991 18.4134 16.7684 18.2308 16.5516C18.1635 16.4716 18.0849 16.431 17.9965 16.431C17.9343 16.431 17.8427 16.4523 17.7605 16.5529C17.3693 17.031 17.0668 17.4362 16.8084 17.8283C16.5211 18.2646 16.1631 18.8516 15.9416 19.5222C15.7607 20.067 15.7671 20.556 15.9609 21.0176C16.2882 21.7958 17.0895 22.2987 18.0027 22.2987ZM16.4115 19.6773C16.5701 19.1969 16.82 18.7105 17.2218 18.1C17.4376 17.7723 17.6871 17.4334 17.998 17.0455C18.1222 17.1987 18.243 17.3548 18.3602 17.5134C18.8477 18.1712 19.1715 18.6993 19.4106 19.2248C19.5633 19.5626 19.6495 19.8433 19.6811 20.1086C19.6855 20.1437 19.6871 20.1793 19.6893 20.2149L19.6937 20.2749C19.7071 21.0013 19.0937 21.6631 18.2969 21.7817C18.1996 21.7962 18.1002 21.8037 18.0027 21.8037C17.2893 21.8037 16.6668 21.4198 16.4172 20.8255C16.2719 20.4795 16.2699 20.1039 16.4115 19.6773Z" fill="black"/>
<path d="M17.4475 21.3741C17.5088 21.3901 17.574 21.3819 17.6295 21.3512C17.685 21.3205 17.7266 21.2697 17.7458 21.2093C17.7649 21.1489 17.7601 21.0834 17.7324 21.0264C17.7046 20.9693 17.6561 20.9251 17.5967 20.9029C17.3139 20.8134 17.127 20.5701 17.1422 20.3117C17.146 20.2462 17.1236 20.1819 17.08 20.133C17.0364 20.084 16.9751 20.0544 16.9097 20.0506C16.8443 20.0472 16.7803 20.0697 16.7314 20.1132C16.6825 20.1568 16.6528 20.2178 16.6486 20.2831C16.6202 20.7675 16.9488 21.2163 17.4475 21.3741ZM18.0783 21.5699C18.142 21.5699 18.2057 21.5435 18.2541 21.4974C18.2995 21.4504 18.3247 21.3875 18.3243 21.3222C18.3239 21.2569 18.2979 21.1943 18.2519 21.1479C18.1596 21.0556 17.9947 21.0556 17.9024 21.1479C17.8563 21.1941 17.8299 21.2578 17.8299 21.3237C17.8305 21.3892 17.8569 21.4518 17.9034 21.4979C17.9499 21.544 18.0128 21.5699 18.0783 21.5699ZM15.2558 26.0972C15.1955 26.1223 15.1476 26.1702 15.1226 26.2306C15.0975 26.2909 15.0973 26.3587 15.1221 26.4191C15.1469 26.4796 15.1945 26.5278 15.2547 26.5532C15.3149 26.5786 15.3827 26.5792 15.4433 26.5547C15.453 26.5506 16.4345 26.1561 17.9945 26.1561C19.5468 26.1561 20.4739 26.5501 20.4831 26.5543C20.5129 26.5672 20.5449 26.5742 20.5774 26.5747C20.6099 26.5753 20.6421 26.5694 20.6723 26.5575C20.7025 26.5455 20.73 26.5277 20.7534 26.5051C20.7767 26.4825 20.7953 26.4555 20.8081 26.4257C20.8342 26.3656 20.8353 26.2975 20.8112 26.2366C20.787 26.1756 20.7397 26.1267 20.6796 26.1007C20.6383 26.0829 19.6484 25.6618 17.9945 25.6618C16.3369 25.6613 15.2991 26.0794 15.2558 26.0972Z" fill="black"/>
</svg>
