<svg width="36" height="36" viewBox="0 0 36 36" fill="none" xmlns="http://www.w3.org/2000/svg">
<rect width="36" height="36" rx="18" fill="#EFEFEF"/>
<g clip-path="url(#clip0_7502_10919)">
<path d="M18.0002 8.625C13.003 8.62724 8.89191 12.837 8.625 18.1998C8.625 19.7742 9.82645 20.9804 11.0866 22.0097C11.6907 22.5031 12.3223 22.9637 12.8877 23.4189C12.7317 23.7153 12.6528 24.0474 12.6528 24.3767C12.6528 25.6864 13.8705 26.704 15.3128 26.704C15.5115 26.704 15.7129 26.6832 15.9066 26.6448C16.0359 26.747 16.1592 26.8343 16.2863 26.9121C16.8845 27.2783 17.4628 27.3754 18.0002 27.3754C18.5376 27.3754 19.1158 27.2783 19.7141 26.9121C19.841 26.8344 19.9643 26.7486 20.0931 26.6466C20.2857 26.6847 20.4857 26.704 20.6833 26.704C22.1256 26.704 23.3451 25.6864 23.3451 24.3767C23.3451 24.0476 23.2655 23.7219 23.1108 23.422C23.6762 22.9667 24.3077 22.5032 24.9119 22.0097C26.1886 20.967 27.3754 19.769 27.3754 18.1998C27.1088 12.844 22.9974 8.6273 18.0002 8.625ZM18.0002 9.25062C22.6427 9.25275 26.4943 13.1739 26.7504 18.215C26.7465 19.4699 25.7546 20.5142 24.517 21.525C23.277 22.5378 21.8073 23.4954 21.096 24.5543C21.0538 24.617 21.0171 24.6708 20.9757 24.7301C20.2423 24.0231 19.1514 23.6247 17.9977 23.6247C16.8468 23.6247 15.7562 24.0237 15.0228 24.7276C14.9802 24.6667 14.9479 24.6189 14.9044 24.5543C14.1925 23.4946 12.7234 22.5378 11.4833 21.525C10.2457 20.5142 9.25245 19.4708 9.25245 18.215C9.50852 13.1739 13.3577 9.25276 18.0002 9.25062ZM20.5124 11.2203C21.0215 11.4435 21.5085 11.7159 21.9657 12.0345C22.1943 12.1938 22.4144 12.3655 22.628 12.5466C22.9509 12.8116 23.3447 12.3401 23.0339 12.0693C22.8054 11.8755 22.5683 11.6931 22.3234 11.5224C21.8335 11.181 21.311 10.8883 20.7639 10.6484C20.2168 10.4084 19.6448 10.2209 19.0525 10.0948C19.032 10.09 19.0038 10.0886 18.9667 10.0884C18.6058 10.1219 18.5671 10.6219 18.9206 10.7057C19.4708 10.8229 20.0034 10.997 20.5124 11.2203ZM17.9959 12.0629C17.8221 12.0645 17.6867 12.2062 17.6865 12.3763V20.5008C17.6965 20.911 18.3038 20.922 18.3115 20.5008V12.3763C18.3149 12.2001 18.1721 12.0611 17.9959 12.0629ZM23.5344 13.4304C23.6286 13.536 23.7217 13.6453 23.8115 13.7557C24.0843 14.07 24.5485 13.6863 24.2961 13.3614C24.2004 13.2438 24.1013 13.1282 24.0007 13.0153C23.9386 12.9431 23.8493 12.9067 23.7541 12.9104C23.4944 12.9213 23.3581 13.2296 23.5344 13.4304ZM24.6464 16.5378L20.5839 20.9116C20.3104 21.2237 20.748 21.6357 21.041 21.3383L25.1079 16.9583C25.2823 16.7635 25.1596 16.4457 24.8738 16.4361C24.7768 16.4425 24.7003 16.4773 24.6464 16.5378ZM11.1042 16.4374C10.8395 16.4592 10.7194 16.7682 10.8949 16.962L14.9575 21.3383C15.2524 21.6303 15.6906 21.2278 15.4165 20.9116L11.3539 16.5378C11.2904 16.4666 11.1995 16.4318 11.1042 16.4374ZM14.3856 24.9028C14.7045 25.3775 15.0063 25.7621 15.2999 26.0783C14.1566 26.0713 13.2784 25.2895 13.2784 24.3766C13.2784 24.1944 13.3154 24.005 13.384 23.8322C13.7992 24.1929 14.1521 24.5551 14.3856 24.9028ZM22.7201 24.3767C22.7201 25.2885 21.8431 26.0674 20.6998 26.0796C20.9928 25.7634 21.2941 25.3774 21.6129 24.9028C21.8464 24.5553 22.199 24.1958 22.6139 23.8353C22.6825 24.0082 22.7201 24.1949 22.7201 24.3767ZM20.5997 25.2361C20.1531 25.796 19.7486 26.1572 19.3869 26.3787C18.8949 26.6799 18.4497 26.7504 18.0002 26.7504C17.5507 26.7504 17.1037 26.6799 16.6116 26.3786C16.2495 26.1569 15.8454 25.7954 15.3988 25.2342C15.9908 24.6308 16.957 24.2497 17.9977 24.2497C19.0393 24.2497 20.0078 24.6318 20.5997 25.2361Z" fill="black"/>
</g>
<defs>
<clipPath id="clip0_7502_10919">
<rect width="20" height="20" fill="white" transform="translate(8 8)"/>
</clipPath>
</defs>
</svg>
