<svg width="36" height="36" viewBox="0 0 36 36" fill="none" xmlns="http://www.w3.org/2000/svg">
<rect width="36" height="36" rx="18" fill="#EFEFEF"/>
<g clip-path="url(#clip0_7502_10930)">
<path d="M27.2657 9.99998L26 8.73435L24.1438 10.114C22.136 8.54965 19.6071 7.80978 17.0727 8.04521C14.5383 8.28065 12.189 9.47367 10.5037 11.3811C8.8184 13.2886 7.92387 15.7669 8.00245 18.3111C8.08103 20.8552 9.12679 23.2736 10.9266 25.0734C12.7264 26.8732 15.1449 27.919 17.689 27.9976C20.2331 28.0762 22.7114 27.1816 24.6189 25.4963C26.5264 23.811 27.7194 21.4617 27.9548 18.9273C28.1903 16.3929 27.4504 13.8641 25.886 11.8562L27.2657 9.99998ZM26.4422 10.0594L24.2547 12.9969L23.0047 11.7469L25.9422 9.55935L26.4422 10.0594ZM24.5157 14.1359C24.5447 14.1649 24.5678 14.1994 24.5835 14.2373C24.5992 14.2753 24.6073 14.3159 24.6073 14.357C24.6073 14.3981 24.5992 14.4387 24.5835 14.4767C24.5678 14.5146 24.5447 14.5491 24.5157 14.5781L23.8532 15.2406L20.7594 12.1469L21.4219 11.4844C21.4509 11.4553 21.4854 11.4322 21.5233 11.4165C21.5613 11.4008 21.6019 11.3927 21.643 11.3927C21.6841 11.3927 21.7247 11.4008 21.7627 11.4165C21.8006 11.4322 21.8351 11.4553 21.8641 11.4844L22.05 11.6703L24.3297 13.95L24.5157 14.1359ZM20.7954 21.75C20.3703 22.4649 19.7999 23.0827 19.1211 23.5634C18.4423 24.0441 17.6702 24.377 16.8547 24.5406L15.3438 24.8453L11.1547 20.6562L11.4579 19.139C11.6225 18.3245 11.956 17.5536 12.4369 16.8759C12.9179 16.1982 13.5355 15.6289 14.25 15.2047L20.2485 12.5203L23.4797 15.7515L20.7954 21.75ZM23.625 10.5L22.5579 11.2937L22.3063 11.0422C22.2192 10.955 22.1158 10.8859 22.002 10.8387C21.8882 10.7915 21.7662 10.7672 21.643 10.7672C21.5198 10.7672 21.3978 10.7915 21.284 10.8387C21.1702 10.8859 21.0668 10.955 20.9797 11.0422L20.136 11.8859L14.7422 14.3L11.5938 11.1578C13.2007 9.64895 15.2885 8.75566 17.4895 8.63533C19.6904 8.51499 21.8632 9.17532 23.625 10.5ZM8.62505 18C8.62212 15.6198 9.52809 13.3284 11.1579 11.5937L14.1266 14.5625L13.9704 14.6312L13.9391 14.6469C13.1448 15.118 12.4588 15.7512 11.9257 16.5053C11.3926 17.2594 11.0245 18.1175 10.8454 19.0234L10.4766 20.8672L15.1329 25.5234L16.9766 25.1547C17.8813 24.9732 18.7376 24.6032 19.4898 24.0688C20.2419 23.5345 20.8731 22.8476 21.3422 22.0531L21.425 21.8672L24.3938 24.8359C23.0594 26.0803 21.3908 26.9082 19.5928 27.2182C17.7947 27.5282 15.9452 27.3068 14.2712 26.581C12.5971 25.8553 11.1712 24.6568 10.1683 23.1326C9.16536 21.6084 8.62903 19.8246 8.62505 18ZM27.375 18C27.378 20.3801 26.472 22.6716 24.8422 24.4062L21.6985 21.2562L24.1141 15.8625L24.9579 15.0187C25.045 14.9317 25.1142 14.8283 25.1614 14.7145C25.2085 14.6006 25.2328 14.4787 25.2328 14.3554C25.2328 14.2322 25.2085 14.1103 25.1614 13.9964C25.1142 13.8826 25.045 13.7792 24.9579 13.6922L24.7063 13.4406L25.5 12.375C26.7157 13.9985 27.3735 15.9718 27.375 18Z" fill="black"/>
</g>
<defs>
<clipPath id="clip0_7502_10930">
<rect width="20" height="20" fill="white" transform="translate(8 8)"/>
</clipPath>
</defs>
</svg>
