<svg width="36" height="36" viewBox="0 0 36 36" fill="none" xmlns="http://www.w3.org/2000/svg">
<rect width="36" height="36" rx="18" fill="#EFEFEF"/>
<g clip-path="url(#clip0_7502_10952)">
<path d="M10.4725 25.7013C9.42293 25.7013 8.66585 25.1146 8.2221 23.9571C7.5196 22.1238 8.46043 17.895 10.7025 16.63C12.6171 15.5484 13.5583 13.4725 13.5671 13.4521C13.5752 13.4338 13.5847 13.4161 13.5954 13.3992C15.2146 10.8367 17.3721 10.2988 18.8975 10.2988C20.0996 10.2988 20.9617 10.6329 20.9979 10.6471C21.0508 10.6634 21.7363 10.8996 21.9125 11.4884C21.9842 11.7288 21.9933 12.1096 21.6292 12.5617C21.2525 13.0304 21.1642 13.6592 21.1633 13.665C21.0646 16.3667 19.2358 17.8388 19.1579 17.9C19.1266 17.9246 19.092 17.9447 19.055 17.9596C19.0329 17.9683 16.875 18.8592 16.2858 20.93C15.5996 23.3421 13.5108 24.8508 11.9313 25.4096C11.3754 25.6063 10.8983 25.7013 10.4725 25.7013ZM14.3146 13.8209C14.1817 14.1071 13.1571 16.2004 11.1117 17.3559C9.30293 18.3767 8.4371 22.1888 9.00001 23.6588C9.41126 24.73 10.0029 24.8675 10.4725 24.8675C10.8025 24.8675 11.1883 24.7879 11.6533 24.6233C13.0458 24.1304 14.885 22.8079 15.4842 20.7013C16.1325 18.4238 18.2663 17.3934 18.6796 17.2129C18.9217 17.0004 20.2538 15.7346 20.3338 13.5967C20.3413 13.525 20.4508 12.6963 20.9804 12.0384C21.0858 11.9079 21.1342 11.7942 21.1142 11.7267C21.0771 11.6029 20.84 11.4704 20.7175 11.4309C20.6863 11.4196 19.9329 11.1317 18.8975 11.1317C17.5863 11.1321 15.7292 11.5992 14.3146 13.8209Z" fill="black"/>
<path d="M14.0967 25.5279C13.4881 25.5266 12.8819 25.4527 12.2908 25.3079C12.0671 25.2533 11.9304 25.0275 11.9854 24.8042C12.0404 24.5808 12.2654 24.4408 12.4892 24.4992C13.3921 24.7204 15.1575 24.9508 16.8367 23.9992C18.8958 22.8329 21.1383 23.5963 21.56 23.7583C21.885 23.7763 23.7204 23.8088 25.2771 22.3425C25.3329 22.2967 25.9925 21.7838 26.8308 21.6863C26.9975 21.6671 27.1121 21.62 27.1454 21.5575C27.2058 21.4433 27.13 21.1825 27.07 21.0683C26.9896 20.8896 25.2954 17.2521 20.8325 18.2763C20.6092 18.3592 19.2542 18.8346 17.6063 18.7729C17.4959 18.7688 17.3916 18.721 17.3165 18.6401C17.2413 18.5591 17.2014 18.4516 17.2054 18.3413C17.2142 18.1113 17.4092 17.9271 17.6375 17.9404C19.2258 18.0025 20.5467 17.4938 20.5604 17.4888C20.5788 17.4815 20.5978 17.4756 20.6171 17.4713C25.7904 16.2646 27.8008 20.6621 27.8208 20.7071C27.8471 20.7554 28.17 21.405 27.8817 21.9483C27.7646 22.1696 27.5033 22.4479 26.9267 22.5142C26.33 22.5838 25.8254 22.9696 25.8208 22.9738C23.855 24.8279 21.5196 24.5963 21.42 24.5838C21.3803 24.5792 21.3415 24.5691 21.3046 24.5538C21.2829 24.545 19.1221 23.6646 17.2479 24.725C16.1579 25.3417 15.0438 25.5279 14.0967 25.5279ZM17.1225 13.8642C17.0402 13.864 16.9598 13.8394 16.8914 13.7936C16.823 13.7478 16.7698 13.6827 16.7383 13.6067C16.7068 13.5306 16.6985 13.447 16.7144 13.3662C16.7304 13.2855 16.7699 13.2113 16.8279 13.1529L17.2083 12.7729C17.2468 12.7332 17.2928 12.7014 17.3437 12.6796C17.3945 12.6578 17.4492 12.6464 17.5045 12.6459C17.5598 12.6455 17.6147 12.6561 17.6659 12.6771C17.7171 12.6981 17.7636 12.729 17.8027 12.7682C17.8418 12.8073 17.8727 12.8539 17.8936 12.9051C17.9145 12.9563 17.925 13.0112 17.9245 13.0665C17.924 13.1218 17.9124 13.1765 17.8906 13.2273C17.8687 13.2781 17.8369 13.3241 17.7971 13.3625L17.4167 13.7425C17.3781 13.7812 17.3323 13.8119 17.2818 13.8328C17.2313 13.8537 17.1771 13.8643 17.1225 13.8642ZM15.22 15.83C15.1375 15.8302 15.0568 15.8059 14.9882 15.7601C14.9196 15.7144 14.8661 15.6492 14.8345 15.573C14.803 15.4968 14.7947 15.413 14.8109 15.3321C14.8271 15.2512 14.867 15.1769 14.9254 15.1188L15.3054 14.7388C15.3441 14.7001 15.39 14.6694 15.4406 14.6484C15.4911 14.6275 15.5453 14.6167 15.6 14.6167C15.6547 14.6167 15.7089 14.6275 15.7594 14.6484C15.81 14.6694 15.8559 14.7001 15.8946 14.7388C15.9333 14.7774 15.964 14.8234 15.9849 14.8739C16.0058 14.9245 16.0166 14.9786 16.0166 15.0333C16.0166 15.088 16.0058 15.1422 15.9849 15.1928C15.964 15.2433 15.9333 15.2892 15.8946 15.3279L15.5146 15.7079C15.476 15.7467 15.43 15.7774 15.3795 15.7984C15.3289 15.8193 15.2747 15.8301 15.22 15.83ZM12.8413 18.2854C12.7589 18.2854 12.6784 18.261 12.6099 18.2153C12.5415 18.1695 12.4881 18.1045 12.4565 18.0285C12.4249 17.9524 12.4166 17.8687 12.4326 17.7879C12.4486 17.7071 12.4881 17.6329 12.5463 17.5746L12.9267 17.1938C13.0047 17.1156 13.1107 17.0716 13.2212 17.0715C13.3317 17.0714 13.4377 17.1153 13.5158 17.1933C13.594 17.2714 13.638 17.3773 13.6381 17.4878C13.6381 17.5983 13.5943 17.7043 13.5163 17.7825L13.1358 18.1633C13.0972 18.2021 13.0513 18.2328 13.0007 18.2538C12.9502 18.2747 12.896 18.2855 12.8413 18.2854ZM11.2213 20.6017C11.149 20.6016 11.078 20.5828 11.0152 20.547C10.9524 20.5112 10.9001 20.4597 10.8632 20.3975C10.8263 20.3354 10.8063 20.2647 10.805 20.1924C10.8037 20.1202 10.8212 20.0489 10.8558 19.9854L11.1138 19.5133C11.1673 19.4174 11.2565 19.3464 11.3621 19.3159C11.4677 19.2855 11.581 19.2979 11.6775 19.3506C11.7739 19.4033 11.8456 19.492 11.877 19.5973C11.9084 19.7026 11.8969 19.816 11.845 19.9129L11.5871 20.385C11.5513 20.4507 11.4983 20.5055 11.434 20.5436C11.3696 20.5818 11.2961 20.6018 11.2213 20.6017Z" fill="black"/>
<path d="M17.7805 20.9387C17.6781 20.9381 17.5795 20.8999 17.5035 20.8312C17.4275 20.7626 17.3795 20.6683 17.3686 20.5665C17.3576 20.4647 17.3846 20.3624 17.4443 20.2792C17.504 20.196 17.5922 20.1377 17.6921 20.1154L18.2296 19.9983C18.2831 19.9863 18.3384 19.9851 18.3923 19.9946C18.4463 20.0042 18.4978 20.0243 18.5439 20.0539C18.59 20.0836 18.6297 20.122 18.6608 20.1671C18.6919 20.2122 18.7137 20.263 18.725 20.3166C18.7368 20.3701 18.7378 20.4253 18.7281 20.4791C18.7185 20.533 18.6983 20.5844 18.6687 20.6304C18.6391 20.6764 18.6008 20.7162 18.5558 20.7473C18.5108 20.7785 18.4602 20.8005 18.4067 20.8121L17.8692 20.9291C17.8401 20.9356 17.8103 20.9388 17.7805 20.9387ZM20.57 20.4241C20.4676 20.4236 20.3691 20.3853 20.2931 20.3166C20.2171 20.248 20.1691 20.1537 20.1581 20.0519C20.1472 19.9501 20.1742 19.8478 20.2338 19.7646C20.2935 19.6814 20.3818 19.6231 20.4817 19.6008L21.0188 19.4837C21.0723 19.4717 21.1276 19.4704 21.1815 19.4799C21.2355 19.4894 21.287 19.5096 21.3331 19.5392C21.3792 19.5688 21.419 19.6073 21.4501 19.6524C21.4812 19.6976 21.503 19.7484 21.5142 19.8021C21.5259 19.8555 21.527 19.9107 21.5173 19.9646C21.5076 20.0184 21.4874 20.0698 21.4579 20.1158C21.4283 20.1618 21.3899 20.2016 21.345 20.2327C21.3 20.2639 21.2494 20.2859 21.1959 20.2975L20.6588 20.4146C20.6297 20.4212 20.5999 20.4245 20.57 20.4241ZM24.04 21.0608H24.0325L23.483 21.0512C23.4282 21.0502 23.3743 21.0385 23.3241 21.0167C23.2739 20.9948 23.2285 20.9633 23.1905 20.9239C23.1525 20.8845 23.1227 20.838 23.1026 20.7871C23.0826 20.7362 23.0728 20.6818 23.0738 20.6271C23.0739 20.5721 23.085 20.5177 23.1066 20.4671C23.1281 20.4165 23.1596 20.3707 23.1992 20.3326C23.2387 20.2944 23.2856 20.2646 23.3369 20.2449C23.3882 20.2252 23.443 20.216 23.498 20.2179L24.0476 20.2275C24.1581 20.2285 24.2636 20.2733 24.3411 20.3522C24.4185 20.431 24.4615 20.5374 24.4605 20.6479C24.4595 20.7584 24.4146 20.864 24.3358 20.9414C24.2569 21.0189 24.1506 21.0618 24.04 21.0608ZM21.2667 22.4016H21.2592L20.71 22.3921C20.6553 22.3911 20.6013 22.3793 20.5512 22.3575C20.501 22.3356 20.4556 22.3041 20.4176 22.2647C20.3796 22.2253 20.3497 22.1789 20.3297 22.1279C20.3097 22.077 20.2999 22.0226 20.3009 21.9679C20.305 21.7379 20.4946 21.5633 20.725 21.5587L21.2742 21.5683C21.3289 21.5688 21.383 21.5801 21.4334 21.6015C21.4837 21.6229 21.5294 21.654 21.5677 21.693C21.6061 21.732 21.6364 21.7782 21.6569 21.829C21.6773 21.8797 21.6876 21.934 21.6871 21.9887C21.6866 22.0434 21.6754 22.0975 21.654 22.1479C21.6326 22.1983 21.6015 22.2439 21.5624 22.2823C21.5234 22.3206 21.4772 22.3509 21.4265 22.3714C21.3757 22.3918 21.3214 22.4021 21.2667 22.4016ZM17.5117 22.9179C17.4093 22.9173 17.3107 22.879 17.2347 22.8104C17.1588 22.7417 17.1107 22.6475 17.0998 22.5457C17.0889 22.4439 17.1158 22.3416 17.1755 22.2584C17.2352 22.1752 17.3234 22.1169 17.4234 22.0946L17.9609 21.9775C18.0143 21.9655 18.0696 21.9643 18.1235 21.9739C18.1775 21.9835 18.229 22.0036 18.275 22.0333C18.3211 22.0629 18.3608 22.1013 18.392 22.1464C18.4231 22.1914 18.4449 22.2422 18.4563 22.2958C18.468 22.3492 18.4691 22.4045 18.4594 22.4583C18.4497 22.5121 18.4295 22.5636 18.3999 22.6096C18.3704 22.6556 18.332 22.6953 18.287 22.7265C18.2421 22.7577 18.1914 22.7797 18.138 22.7912L17.6005 22.9083C17.5713 22.9148 17.5416 22.918 17.5117 22.9179ZM12.9017 21.8116C12.8295 21.8117 12.7585 21.7929 12.6957 21.7571C12.6329 21.7214 12.5805 21.6699 12.5436 21.6078C12.5067 21.5457 12.4867 21.475 12.4854 21.4028C12.4841 21.3305 12.5017 21.2592 12.5363 21.1958L12.7942 20.7229C12.8204 20.6749 12.8558 20.6325 12.8983 20.5982C12.9409 20.5638 12.9898 20.5382 13.0423 20.5228C13.0947 20.5073 13.1497 20.5024 13.2041 20.5082C13.2585 20.514 13.3112 20.5305 13.3592 20.5566C13.4072 20.5828 13.4496 20.6182 13.484 20.6608C13.5183 20.7033 13.5439 20.7522 13.5594 20.8047C13.5748 20.8572 13.5797 20.9122 13.5739 20.9665C13.5681 21.0209 13.5516 21.0736 13.5255 21.1216L13.2675 21.5946C13.2318 21.6604 13.179 21.7153 13.1146 21.7535C13.0502 21.7918 12.9766 21.8118 12.9017 21.8116ZM10.9634 23.3441C10.8911 23.3442 10.8201 23.3254 10.7573 23.2896C10.6945 23.2539 10.6421 23.2024 10.6053 23.1403C10.5684 23.0782 10.5483 23.0075 10.5471 22.9353C10.5458 22.863 10.5633 22.7917 10.598 22.7283L10.8559 22.2554C10.8821 22.2074 10.9175 22.1649 10.96 22.1306C11.0026 22.0962 11.0515 22.0706 11.104 22.0551C11.1565 22.0396 11.2115 22.0347 11.2659 22.0405C11.3203 22.0463 11.373 22.0628 11.4211 22.0889C11.4691 22.1151 11.5115 22.1505 11.5459 22.1931C11.5803 22.2357 11.6059 22.2846 11.6214 22.3371C11.6368 22.3895 11.6418 22.4446 11.636 22.499C11.6302 22.5534 11.6137 22.6061 11.5875 22.6541L11.3296 23.1271C11.2937 23.1928 11.2408 23.2477 11.1763 23.2859C11.1119 23.3241 11.0383 23.3442 10.9634 23.3441ZM14.3317 19.7829C14.2595 19.7828 14.1885 19.764 14.1257 19.7282C14.0629 19.6924 14.0105 19.6409 13.9737 19.5787C13.9368 19.5166 13.9167 19.4459 13.9155 19.3737C13.9142 19.3014 13.9317 19.2301 13.9663 19.1666L14.2242 18.6946C14.2777 18.5986 14.367 18.5276 14.4726 18.4972C14.5782 18.4667 14.6915 18.4792 14.7879 18.5318C14.8844 18.5845 14.9561 18.6732 14.9874 18.7785C15.0188 18.8838 15.0073 18.9973 14.9555 19.0941L14.6975 19.5662C14.6617 19.6319 14.6088 19.6867 14.5444 19.7249C14.48 19.763 14.4065 19.783 14.3317 19.7829ZM16.228 17.4433C16.1436 17.4434 16.0612 17.4178 15.9917 17.3701C15.9222 17.3223 15.8688 17.2546 15.8386 17.1759C15.8084 17.0971 15.8028 17.0111 15.8225 16.9291C15.8423 16.8471 15.8865 16.773 15.9492 16.7166L16.3496 16.3566C16.4318 16.2827 16.5401 16.2445 16.6505 16.2503C16.7609 16.2562 16.8645 16.3057 16.9384 16.3879C17.0123 16.4701 17.0506 16.5783 17.0447 16.6887C17.0388 16.7992 16.9893 16.9027 16.9071 16.9766L16.5067 17.3366C16.4302 17.4054 16.3309 17.4434 16.228 17.4433ZM18.0446 15.45C17.9603 15.45 17.8779 15.4245 17.8084 15.3768C17.7389 15.329 17.6855 15.2613 17.6553 15.1825C17.6251 15.1038 17.6195 15.0177 17.6392 14.9357C17.659 14.8537 17.7031 14.7797 17.7659 14.7233L18.1663 14.3637C18.2068 14.3262 18.2544 14.2971 18.3063 14.2781C18.3582 14.2591 18.4134 14.2506 18.4686 14.2532C18.5238 14.2557 18.578 14.2692 18.6279 14.2929C18.6778 14.3166 18.7226 14.3499 18.7595 14.391C18.7964 14.4322 18.8248 14.4802 18.8429 14.5324C18.8611 14.5846 18.8687 14.6399 18.8653 14.695C18.8619 14.7502 18.8476 14.8041 18.8231 14.8537C18.7987 14.9032 18.7647 14.9474 18.723 14.9837L18.3221 15.3433C18.2461 15.4121 18.1472 15.4501 18.0446 15.45Z" fill="black"/>
</g>
<defs>
<clipPath id="clip0_7502_10952">
<rect width="20" height="20" fill="white" transform="translate(8 8)"/>
</clipPath>
</defs>
</svg>
