<svg width="36" height="36" viewBox="0 0 36 36" fill="none" xmlns="http://www.w3.org/2000/svg">
<rect width="36" height="36" rx="18" fill="#EFEFEF"/>
<path d="M15.4698 12.8724C15.4415 12.8852 15.4194 12.9087 15.4085 12.9377C15.3975 12.9668 15.3985 12.999 15.4112 13.0273C15.4201 13.0469 16.314 15.0092 17.868 16.4832C17.8792 16.494 17.8923 16.5024 17.9067 16.5081C17.9211 16.5137 17.9365 16.5164 17.952 16.5161C17.9675 16.5157 17.9827 16.5123 17.9969 16.5061C18.011 16.4998 18.0238 16.4908 18.0344 16.4796C18.0451 16.4683 18.0534 16.4551 18.0589 16.4407C18.0644 16.4262 18.067 16.4108 18.0666 16.3953C18.0661 16.3798 18.0625 16.3646 18.0561 16.3505C18.0498 16.3364 18.0406 16.3237 18.0293 16.3132C16.5098 14.8718 15.6336 12.9503 15.6249 12.931C15.6186 12.917 15.6096 12.9044 15.5983 12.8938C15.5871 12.8833 15.5739 12.875 15.5595 12.8696C15.5451 12.8641 15.5298 12.8616 15.5144 12.862C15.499 12.8625 15.4839 12.866 15.4698 12.8724ZM18.2486 11.875C18.2558 11.8888 18.2657 11.901 18.2776 11.9109C18.2895 11.9208 18.3033 11.9282 18.3181 11.9328C18.333 11.9373 18.3486 11.9389 18.364 11.9373C18.3794 11.9358 18.3944 11.9312 18.4081 11.9239C18.4217 11.9165 18.4338 11.9065 18.4435 11.8945C18.4533 11.8824 18.4606 11.8685 18.4649 11.8536C18.4693 11.8387 18.4706 11.8231 18.4689 11.8077C18.4672 11.7923 18.4624 11.7774 18.4549 11.7638C18.0738 11.0568 17.2551 10.5928 17.2205 10.5734C17.1934 10.5582 17.1614 10.5544 17.1315 10.5629C17.1015 10.5713 17.0762 10.5913 17.061 10.6184C17.0458 10.6455 17.042 10.6776 17.0505 10.7075C17.0589 10.7374 17.0789 10.7627 17.106 10.7779C17.1138 10.7823 17.9003 11.2288 18.2486 11.875ZM21.6037 17.178C21.6124 17.2077 21.6326 17.2327 21.6597 17.2477C21.6869 17.2626 21.7189 17.2661 21.7486 17.2575C21.7784 17.2489 21.8035 17.2288 21.8186 17.2017C21.8336 17.1746 21.8373 17.1427 21.8288 17.1129C21.4593 15.8343 20.9974 15.2279 20.9779 15.2027C20.9588 15.1784 20.9308 15.1626 20.9002 15.1588C20.8695 15.155 20.8385 15.1635 20.8141 15.1824C20.7896 15.2013 20.7736 15.2291 20.7695 15.2597C20.7655 15.2904 20.7737 15.3214 20.7924 15.346C20.7968 15.3519 21.2479 15.947 21.6037 17.178ZM16.4458 11.9785C16.4558 11.9902 16.4681 11.9998 16.4818 12.0068C16.4955 12.0138 16.5104 12.018 16.5258 12.0192C16.5411 12.0204 16.5566 12.0185 16.5712 12.0138C16.5858 12.009 16.5994 12.0014 16.6111 11.9914C16.6228 11.9814 16.6324 11.9692 16.6394 11.9555C16.6463 11.9418 16.6505 11.9268 16.6517 11.9115C16.6529 11.8961 16.6511 11.8807 16.6463 11.866C16.6416 11.8514 16.634 11.8379 16.624 11.8262C16.0565 11.166 15.3838 10.6041 14.6331 10.1632C14.6198 10.1554 14.6051 10.1503 14.5899 10.1482C14.5746 10.1461 14.5591 10.147 14.5442 10.1509C14.5293 10.1548 14.5153 10.1616 14.5031 10.1709C14.4908 10.1802 14.4805 10.1918 14.4727 10.2051C14.4649 10.2184 14.4599 10.233 14.4578 10.2483C14.4557 10.2635 14.4566 10.279 14.4605 10.2939C14.4644 10.3088 14.4711 10.3228 14.4804 10.3351C14.4897 10.3473 14.5014 10.3576 14.5146 10.3654C15.2428 10.7931 15.8953 11.3381 16.4458 11.9785ZM14.0703 14.3444C14.0923 14.3444 14.1138 14.3382 14.1325 14.3265C14.1511 14.3148 14.1661 14.2981 14.1757 14.2783C14.1853 14.2584 14.1891 14.2363 14.1867 14.2144C14.1842 14.1925 14.1757 14.1718 14.1621 14.1545C13.3837 13.1714 13.5648 11.9917 13.5667 11.9799C13.5714 11.9494 13.5639 11.9182 13.5458 11.8932C13.5277 11.8682 13.5004 11.8513 13.4699 11.8463C13.4395 11.8413 13.4082 11.8485 13.383 11.8664C13.3579 11.8843 13.3408 11.9114 13.3355 11.9418C13.3268 11.9941 13.1338 13.2333 13.9783 14.3C13.9893 14.3139 14.0032 14.3251 14.0192 14.3328C14.0351 14.3405 14.0526 14.3445 14.0703 14.3444ZM18.7614 15.028C18.7741 15.0563 18.7976 15.0785 18.8266 15.0895C18.8557 15.1006 18.8879 15.0996 18.9163 15.0869C18.9447 15.0742 18.9668 15.0507 18.9779 15.0217C18.9889 14.9926 18.988 14.9604 18.9753 14.932C18.8449 14.6414 18.525 14.2749 18.5115 14.2594C18.491 14.2361 18.462 14.2218 18.431 14.2198C18.4 14.2177 18.3695 14.2281 18.3461 14.2486C18.3227 14.2691 18.3084 14.298 18.3064 14.329C18.3044 14.36 18.3147 14.3906 18.3352 14.4139C18.3383 14.4175 18.6453 14.7691 18.7614 15.028ZM20.0296 20.6516C19.9987 20.6484 19.9678 20.6576 19.9437 20.6773C19.9196 20.6969 19.9042 20.7253 19.9011 20.7562C19.8979 20.7871 19.9071 20.818 19.9267 20.8421C19.9463 20.8662 19.9747 20.8816 20.0056 20.8848C20.011 20.8853 20.5502 20.9473 21.099 21.4008C21.1108 21.4107 21.1245 21.4182 21.1393 21.4228C21.154 21.4275 21.1695 21.4291 21.1849 21.4277C21.2003 21.4263 21.2153 21.4218 21.229 21.4146C21.2426 21.4074 21.2547 21.3976 21.2646 21.3856C21.2744 21.3737 21.2818 21.36 21.2863 21.3452C21.2908 21.3304 21.2924 21.3149 21.2909 21.2995C21.2893 21.2841 21.2848 21.2692 21.2775 21.2556C21.2702 21.242 21.2602 21.2299 21.2483 21.2201C20.6417 20.7188 20.0543 20.6541 20.0296 20.6516ZM21.9015 19.7145C21.8717 19.7058 21.8396 19.7093 21.8124 19.7243C21.7851 19.7393 21.765 19.7644 21.7563 19.7943C21.7481 19.8221 21.5591 20.4821 21.7128 20.857C21.7248 20.8856 21.7475 20.9082 21.7761 20.9201C21.8047 20.9319 21.8368 20.932 21.8654 20.9202C21.8941 20.9085 21.9169 20.8859 21.9289 20.8574C21.9409 20.8289 21.9412 20.7968 21.9297 20.7681C21.8279 20.5198 21.9325 20.0282 21.9814 19.8597C21.99 19.8298 21.9865 19.7978 21.9715 19.7706C21.9565 19.7433 21.9313 19.7232 21.9015 19.7145ZM20.2121 20.2406C20.3551 20.3144 20.4934 20.397 20.6262 20.4879C20.652 20.5052 20.6836 20.5117 20.7141 20.5057C20.7446 20.4998 20.7715 20.4819 20.7889 20.4561C20.8062 20.4304 20.8126 20.3987 20.8067 20.3682C20.8007 20.3377 20.7829 20.3108 20.7571 20.2935C20.6154 20.1964 20.4678 20.1084 20.3149 20.03C20.287 20.0163 20.2548 20.0143 20.2254 20.0244C20.196 20.0346 20.1719 20.0559 20.1582 20.0839C20.1446 20.1118 20.1426 20.144 20.1527 20.1734C20.1628 20.2028 20.1842 20.2269 20.2121 20.2406ZM21.0158 18.3727C20.9891 18.3885 20.9697 18.4142 20.9618 18.4442C20.954 18.4742 20.9584 18.5061 20.9741 18.5329C21.1155 18.8056 21.1901 19.1079 21.1917 19.4151C21.1919 19.4461 21.2043 19.4757 21.2263 19.4976C21.2482 19.5194 21.2779 19.5317 21.3089 19.5317H21.3095C21.3406 19.5316 21.3703 19.5191 21.3922 19.497C21.4141 19.4749 21.4263 19.4451 21.4261 19.414C21.4254 19.0653 21.3396 18.722 21.1761 18.414C21.1603 18.3873 21.1345 18.3679 21.1045 18.3602C21.0744 18.3525 21.0425 18.357 21.0158 18.3727Z" fill="black"/>
<path d="M8.65383 16.6788C8.48336 17.3876 8.3257 19.751 9.78828 21.2614C12.5118 24.0742 14.2299 25.4996 14.8965 25.4995C14.907 25.4995 14.9173 25.4992 14.9273 25.4984C15.2959 25.4721 16.2659 25.5279 17.2509 25.6664C18.39 25.8265 19.2207 26.0509 19.5302 26.2819C19.5865 26.3239 19.6565 26.3435 19.7265 26.3368C19.7964 26.3301 19.8614 26.2975 19.9087 26.2455C20.0241 26.1258 20.0956 25.9705 20.1116 25.805C20.1168 25.7304 20.1468 25.7108 20.1784 25.7008C20.2169 25.6887 20.2523 25.6687 20.2825 25.6419C20.3126 25.6152 20.3368 25.5824 20.3534 25.5457C20.3695 25.5096 20.3778 25.4704 20.3778 25.4309C20.3778 25.3913 20.3695 25.3522 20.3534 25.3161C20.168 24.901 19.8121 24.1023 19.511 23.4175C19.29 22.9151 19.2893 22.3003 19.2886 21.706C19.2886 21.5705 19.2882 21.4372 19.2853 21.3072C19.3773 21.3135 19.4725 21.3189 19.5339 21.3193C19.9479 21.3215 20.9599 21.404 21.4089 22.1203C21.4339 22.1604 21.4678 22.1941 21.5081 22.2189C21.5484 22.2436 21.5938 22.2587 21.6409 22.2629C21.6509 22.2638 21.6609 22.2643 21.6708 22.2643C21.7131 22.2644 21.7549 22.2557 21.7937 22.2388C21.8324 22.2219 21.8672 22.1971 21.8959 22.166C21.9945 22.0558 22.0519 21.9147 22.0582 21.767C22.0652 21.6717 22.0925 21.6157 22.1393 21.6006C22.2164 21.5765 22.2813 21.5234 22.3201 21.4525C22.3589 21.3816 22.3686 21.2984 22.3472 21.2204C22.1882 20.652 22.2593 20.2956 22.8227 18.8371C23.0679 18.2021 23.0824 17.4331 22.8656 16.5517C22.7348 16.0326 22.5468 15.5296 22.3051 15.0519C22.2901 15.0226 22.2656 14.9994 22.2357 14.9859C22.2057 14.9723 22.1721 14.9694 22.1403 14.9775C22.1084 14.9857 22.0803 15.0044 22.0605 15.0306C22.0407 15.0568 22.0304 15.089 22.0313 15.1218C22.0321 15.1531 22.033 15.1889 22.0339 15.2282C21.4355 14.3859 19.7518 12.0218 18.8986 10.8833C17.8374 9.46716 16.3852 9.42204 15.1076 9.49091C14.3566 9.53161 13.6719 9.3281 13.3303 9.2031C13.2794 9.18439 13.2246 9.17849 13.1709 9.18591C13.1172 9.19333 13.0661 9.21384 13.0222 9.24564C12.9782 9.27744 12.9428 9.31955 12.919 9.36826C12.8951 9.41698 12.8836 9.47081 12.8855 9.52501C12.9014 9.96864 12.8903 10.7817 12.6363 11.2426C12.3595 11.745 11.8601 13.3117 12.6007 14.8676C12.1536 14.6775 11.8652 14.7279 11.3675 14.8474C11.0408 14.9299 10.7096 14.9935 10.3756 15.0377C9.25453 15.1826 8.85293 15.1364 8.71336 15.096C8.68475 15.0877 8.65438 15.0874 8.62565 15.0953C8.59691 15.1033 8.57095 15.119 8.55068 15.1409C8.5304 15.1627 8.51661 15.1898 8.51084 15.219C8.50508 15.2482 8.50757 15.2785 8.51804 15.3064C8.60343 15.5341 8.78734 16.1237 8.65383 16.6788ZM22.2726 15.5338C22.4237 15.8811 22.546 16.2403 22.6381 16.6077C22.8431 17.4417 22.8317 18.1634 22.604 18.7527C22.0232 20.2563 21.9466 20.6584 22.1216 21.2836C22.1267 21.3033 22.1238 21.3242 22.1137 21.3418C22.1035 21.3594 22.0868 21.3723 22.0672 21.3776C21.9666 21.4101 21.8429 21.5011 21.8244 21.7497C21.8215 21.8444 21.7861 21.9352 21.724 22.0067C21.7163 22.015 21.7067 22.0213 21.6961 22.0253C21.6856 22.0293 21.6742 22.0308 21.6629 22.0296C21.6517 22.0287 21.6409 22.0252 21.6312 22.0193C21.6216 22.0135 21.6135 22.0055 21.6075 21.9959C21.3962 21.6588 20.8461 21.092 19.5353 21.085C19.4728 21.0847 19.3629 21.0778 19.2768 21.0718C19.269 20.8567 19.2355 20.6433 19.1768 20.4363C19.3064 20.4284 19.4629 20.4011 19.5264 20.3237C19.5449 20.3016 19.5569 20.2748 19.561 20.2462C19.5651 20.2177 19.5611 20.1886 19.5496 20.1622C19.479 19.9958 19.3209 19.8648 19.1537 19.7261C18.9796 19.5818 18.7997 19.4327 18.6985 19.2339C18.5481 18.94 18.357 18.6688 18.1309 18.4283C18.7246 18.5995 19.8039 19.02 20.623 19.9557C20.6527 19.9896 20.6928 20.0126 20.737 20.021C20.7813 20.0294 20.827 20.0228 20.8671 20.0022C20.9071 19.9816 20.9391 19.9482 20.9579 19.9073C20.9767 19.8664 20.9813 19.8204 20.9709 19.7766C20.7749 18.9532 20.3848 17.4919 19.9751 16.956C19.7121 16.6121 19.6118 16.3826 19.5744 16.2479C20.061 16.4849 21.466 17.2947 21.5746 18.7822C21.5781 18.8296 21.5981 18.8742 21.6313 18.9082C21.6644 18.9422 21.7084 18.9635 21.7557 18.9682C21.8029 18.9729 21.8503 18.9608 21.8895 18.9341C21.9287 18.9073 21.9572 18.8676 21.97 18.8218C22.2458 17.8365 22.2783 16.3463 22.2726 15.5338ZM15.1203 9.72525C16.3375 9.65958 17.7191 9.70048 18.7112 11.0242C19.6992 12.3426 21.8054 15.3111 22.0388 15.6402C22.0408 16.4082 22.0061 17.6729 21.7891 18.5846C21.7605 18.3793 21.7081 18.178 21.6332 17.9848C21.4598 16.7443 20.348 15.3293 19.682 14.4822C19.5984 14.3758 19.5226 14.2793 19.4578 14.1948C19.2742 13.9552 19.065 13.6328 18.8433 13.2915C18.3737 12.5684 17.8413 11.7486 17.2663 11.2438C16.6974 10.7442 15.4747 10.1025 14.7128 9.72568C14.8485 9.7324 14.9845 9.73219 15.1203 9.72505V9.72525ZM13.1593 9.43618C13.1722 9.42672 13.1872 9.42061 13.2031 9.41841C13.2189 9.41621 13.235 9.418 13.25 9.42361C13.4844 9.50865 13.7247 9.577 13.9688 9.62814C14.1308 9.70333 16.322 10.7264 17.1115 11.4197C17.6623 11.9033 18.1852 12.7087 18.6467 13.419C18.8709 13.7642 19.0827 14.0903 19.2717 14.337C19.337 14.4223 19.4134 14.5195 19.4977 14.6268C19.998 15.2632 20.7555 16.2275 21.1546 17.1742C21.02 17.0104 20.872 16.8582 20.712 16.719C20.355 16.409 19.9531 16.1549 19.52 15.9651C19.4988 15.956 19.4757 15.9522 19.4527 15.9539C19.4297 15.9556 19.4074 15.9628 19.3877 15.9749C19.3681 15.987 19.3516 16.0036 19.3397 16.0233C19.3277 16.0431 19.3207 16.0654 19.3192 16.0884C19.3101 16.2243 19.3591 16.5362 19.7887 17.0981C20.1626 17.5871 20.5403 18.9987 20.7125 19.7047C20.3547 19.3232 19.9402 18.9992 19.4836 18.7442C19.2755 18.3507 18.8061 17.8581 18.215 17.2384C17.03 15.9962 15.4071 14.2949 14.5362 12.0079C14.1851 11.1057 13.7099 10.2568 13.1243 9.48579C13.13 9.46573 13.1423 9.44816 13.1592 9.43587L13.1593 9.43618ZM12.8555 11.329C13.0622 10.9324 13.1172 10.3411 13.1237 9.88052C13.4143 10.2911 13.9425 11.1075 14.3171 12.0912C15.2049 14.4225 16.8467 16.1436 18.0454 17.4002C18.4656 17.8407 18.8227 18.2154 19.061 18.5272C18.6753 18.3471 18.271 18.2096 17.8555 18.1172C17.824 18.1105 17.7912 18.1145 17.7622 18.1285C17.7332 18.1426 17.7098 18.1659 17.6955 18.1948C17.6813 18.2236 17.677 18.2564 17.6835 18.288C17.6899 18.3195 17.7067 18.348 17.7311 18.369C18.0426 18.6422 18.2999 18.9717 18.4895 19.3402C18.6127 19.5824 18.8205 19.7546 19.0039 19.9066C19.1199 20.0027 19.2307 20.0946 19.295 20.1859C19.2216 20.1992 19.1471 20.2062 19.0724 20.2068C18.6398 19.504 16.9044 18.0122 15.4128 16.8323C14.6114 15.8019 13.8883 14.7601 13.6156 14.3675L13.5519 14.2757C12.8552 13.2766 12.8526 11.561 12.8555 11.329ZM12.6356 11.8543C12.6458 12.0186 12.6625 12.2106 12.6901 12.419C12.8016 13.2627 13.0269 13.9326 13.3596 14.4097L13.4231 14.5009C13.634 14.8049 14.1139 15.4961 14.6916 16.2712C14.2932 15.9665 13.9373 15.704 13.6628 15.5112C13.3873 15.3177 13.1605 15.1681 12.9652 15.0542C12.3105 13.9375 12.3814 12.6692 12.6356 11.8543ZM8.92929 16.1004C9.13912 16.3919 9.32571 16.6994 9.48734 17.0201C9.50096 17.0478 9.52493 17.0689 9.55405 17.079C9.58317 17.0891 9.61509 17.0874 9.64291 17.0741C9.67073 17.0608 9.6922 17.0371 9.70267 17.0081C9.71314 16.9792 9.71178 16.9472 9.69886 16.9192C9.52769 16.5769 9.32837 16.2495 9.10297 15.9402L9.88793 16.6328C9.91124 16.6534 9.94176 16.6638 9.97279 16.6619C10.0038 16.6599 10.0328 16.6458 10.0534 16.6225C10.0739 16.5991 10.0844 16.5686 10.0825 16.5376C10.0805 16.5066 10.0664 16.4776 10.043 16.457L9.61 16.0749C9.8743 16.1853 10.1501 16.2658 10.4323 16.3151C10.4379 16.3159 10.4436 16.3163 10.4493 16.3163C10.479 16.3163 10.5075 16.305 10.5292 16.2849C10.5508 16.2647 10.5641 16.237 10.5662 16.2075C10.5683 16.1779 10.5592 16.1487 10.5406 16.1256C10.5221 16.1025 10.4954 16.0873 10.4661 16.0831C9.99883 15.9961 9.55138 15.8244 9.14582 15.5765C9.57828 15.687 10.2497 15.7784 11.1479 15.6642C11.2684 15.6489 11.3848 15.6397 11.4982 15.635C11.3626 15.9052 11.1661 16.3728 11.1316 16.8721C11.119 17.0437 11.1587 17.2151 11.2454 17.3637C10.9985 17.1749 10.7835 17.0206 10.6004 16.9007C10.562 16.8757 10.5158 16.8656 10.4705 16.8724C10.4252 16.8791 10.384 16.9023 10.3546 16.9375C10.3253 16.9727 10.3099 17.0174 10.3113 17.0632C10.3128 17.109 10.331 17.1526 10.3625 17.1859C10.5031 17.3336 10.6795 17.5187 10.8855 17.7333C10.7617 17.6928 10.6304 17.6806 10.5013 17.6975C9.94867 17.7691 9.44379 18.0708 9.21304 18.2273C9.0409 17.3237 8.93793 16.5597 8.92523 16.4639C8.9361 16.343 8.93746 16.2213 8.92929 16.1002V16.1004ZM14.184 17.1078C14.2541 17.0231 14.3218 16.9447 14.3822 16.8789L14.3936 16.8893C14.4107 16.9049 14.4308 16.9233 14.4536 16.9429C15.129 17.5702 15.2775 18.1418 14.9082 18.6875C14.6197 19.1136 14.4099 19.2965 14.2847 19.3748C14.2414 19.4036 14.1907 19.4195 14.1386 19.4206C14.0866 19.4218 14.0353 19.4081 13.9907 19.3811C13.7975 19.263 13.3677 18.9339 13.4666 18.3961C13.6485 18.2358 13.8097 18.0535 13.9465 17.8534C14.1068 17.6383 14.1905 17.3758 14.184 17.1076V17.1078ZM14.0555 16.5965C14.1057 16.6408 14.1543 16.6852 14.2014 16.7296C14.1798 16.7533 14.1575 16.7782 14.1345 16.8044C14.1135 16.7331 14.0871 16.6636 14.0555 16.5963V16.5965ZM15.308 17.8169C15.33 17.791 15.3556 17.762 15.3801 17.7349C15.4252 17.774 15.4703 17.813 15.5146 17.8517L15.5336 17.87C15.8429 18.1678 16.4188 18.7222 15.8692 19.5373C15.5828 19.962 15.3722 20.1454 15.2459 20.2244C15.2025 20.2532 15.1518 20.2691 15.0998 20.2702C15.0478 20.2714 14.9965 20.2576 14.9519 20.2307C14.7796 20.1252 14.4928 19.9032 14.4256 19.5625C14.6313 19.4283 14.8588 19.1785 15.1023 18.8188C15.3221 18.4939 15.3907 18.1599 15.308 17.8167V17.8169ZM16.3174 18.6905C16.3317 18.6756 16.3453 18.6617 16.3578 18.649C16.3666 18.6401 16.3848 18.6218 16.4136 18.6496C17.2903 19.4955 17.0364 20.1926 16.8071 20.5326C16.5207 20.957 16.31 21.1406 16.1836 21.2195C16.1403 21.2483 16.0896 21.2642 16.0376 21.2654C15.9855 21.2665 15.9342 21.2528 15.8896 21.2258C15.6893 21.1033 15.3638 20.8419 15.35 20.4346C15.3566 20.4307 15.3634 20.4272 15.3699 20.4229C15.5817 20.2904 15.8149 20.0365 16.0633 19.6681C16.3116 19.2997 16.3646 18.9718 16.3174 18.6903V18.6905ZM17.202 19.4515C17.2164 19.4399 17.2336 19.4326 17.2519 19.4304L17.2675 19.4452C17.4553 19.6324 18.1355 20.3992 17.593 21.2037C17.3276 21.5974 17.1328 21.767 17.0161 21.8401C16.977 21.866 16.9314 21.8804 16.8846 21.8814C16.8377 21.8824 16.7916 21.8701 16.7514 21.8459C16.6328 21.7734 16.4328 21.6259 16.326 21.4067C16.533 21.2714 16.7601 21.0218 17.0016 20.6636C17.2595 20.2806 17.3263 19.8735 17.202 19.4513V19.4515ZM18.7074 22.6192C18.7251 22.7829 18.7456 22.9505 18.7705 23.1204C18.753 23.1748 18.728 23.2265 18.6962 23.274C18.5505 23.4902 18.4458 23.5819 18.3837 23.6208C18.3695 23.6305 18.3529 23.6359 18.3357 23.6364C18.3185 23.6369 18.3016 23.6326 18.2868 23.6238C18.0028 23.4502 18.0035 23.2401 18.0539 23.0944C18.0607 23.0749 18.0687 23.0553 18.0766 23.0355C18.2334 22.8961 18.3702 22.7357 18.4831 22.5589C18.5139 22.5134 18.5416 22.4659 18.5661 22.4167C18.6197 22.4794 18.6671 22.5471 18.7074 22.619V22.6192ZM18.6536 22.1692C18.6559 22.1586 18.6582 22.148 18.6602 22.1374C18.6614 22.1509 18.6626 22.1645 18.6641 22.178C18.6605 22.1746 18.657 22.1718 18.6536 22.169V22.1692ZM15.1566 24.3079C15.1571 24.3071 15.1577 24.3063 15.1584 24.3056C15.2995 24.149 15.6782 23.7637 16.1464 23.57C16.5436 23.4056 16.8118 23.6793 16.9361 23.857C16.9537 23.8826 16.9636 23.9127 16.9647 23.9437C16.9658 23.9748 16.958 24.0055 16.9423 24.0323C16.8925 24.1232 16.7728 24.2776 16.485 24.4971C15.9345 24.9166 15.3745 24.5066 15.1566 24.3077V24.3079ZM16.2981 24.9218C16.2312 24.9168 16.1651 24.9118 16.0997 24.9067C16.15 24.9006 16.1997 24.8906 16.2485 24.8769C16.2515 24.8801 16.2544 24.8834 16.2577 24.8864C16.2707 24.8981 16.2843 24.9101 16.2981 24.9216V24.9218ZM13.2089 23.6323C13.1123 23.5542 13.0144 23.4729 12.9153 23.3886C13.0128 23.4434 13.1144 23.4904 13.2193 23.5292C13.2092 23.5625 13.2057 23.5975 13.2089 23.6321V23.6323ZM12.5875 22.8644C12.5833 22.8601 12.5799 22.8549 12.5778 22.8492C12.5756 22.8435 12.5746 22.8374 12.5749 22.8313C12.5752 22.8253 12.5767 22.8193 12.5794 22.8138C12.582 22.8084 12.5858 22.8035 12.5905 22.7995C12.6032 22.7853 12.6175 22.7698 12.6325 22.7536C12.6602 22.7552 12.6881 22.7564 12.7162 22.7564C12.9952 22.7564 13.2943 22.6725 13.5923 22.4451C13.9457 22.1756 14.1857 21.9279 14.3055 21.709C14.3094 21.7021 14.3126 21.695 14.3161 21.688C14.7244 21.6774 15.0053 21.9864 15.1398 22.1788C15.1694 22.2215 15.1862 22.2718 15.1882 22.3237C15.1902 22.3756 15.1773 22.427 15.1511 22.4718C15.0796 22.6024 14.9089 22.8234 14.5014 23.1341C13.7037 23.7422 12.8972 23.1481 12.5875 22.8644ZM12.3449 22.884C12.2462 22.7932 12.1471 22.7003 12.0477 22.6052C12.151 22.6514 12.2583 22.688 12.3683 22.7146C12.3431 22.7672 12.3349 22.8263 12.3449 22.8838V22.884ZM11.5363 21.9894C11.5321 21.9851 11.5288 21.9799 11.5266 21.9742C11.5244 21.9685 11.5234 21.9624 11.5237 21.9563C11.524 21.9503 11.5255 21.9443 11.5282 21.9388C11.5309 21.9334 11.5347 21.9285 11.5393 21.9245C11.5653 21.8956 11.5928 21.8663 11.6207 21.8369C11.6831 21.8453 11.7461 21.8495 11.8091 21.8497C12.088 21.8497 12.3872 21.7657 12.6851 21.5384C13.0295 21.2758 13.2658 21.034 13.3885 20.8193C13.7335 20.8658 13.973 21.1383 14.0887 21.3037C14.1182 21.3464 14.135 21.3966 14.137 21.4485C14.139 21.5004 14.1261 21.5518 14.0999 21.5967C14.0285 21.7272 13.8577 21.9482 13.4502 22.2589C13.2396 22.428 12.9781 22.5211 12.708 22.5232C12.1928 22.523 11.7482 22.1836 11.5362 21.9893L11.5363 21.9894ZM10.6289 21.0824C10.6247 21.0781 10.6214 21.0729 10.6192 21.0672C10.617 21.0615 10.616 21.0555 10.6163 21.0494C10.6166 21.0433 10.6181 21.0373 10.6208 21.0319C10.6235 21.0264 10.6272 21.0215 10.6319 21.0176C10.6936 20.949 10.7916 20.8451 10.9164 20.7281C11.186 20.7185 11.4445 20.6185 11.6504 20.4442C11.8424 20.296 12.0151 20.1245 12.1645 19.9336C12.6968 19.8024 13.0517 20.2114 13.1814 20.3969C13.211 20.4396 13.2278 20.4899 13.2297 20.5418C13.2317 20.5937 13.2189 20.6451 13.1927 20.6899C13.1212 20.8205 12.9505 21.0415 12.5429 21.3522C11.745 21.9602 10.9387 21.3661 10.6289 21.0824ZM11.3557 21.7788C11.335 21.8038 11.3186 21.8321 11.3071 21.8625C11.2576 21.8104 11.209 21.7587 11.1613 21.7074C11.2248 21.7347 11.2898 21.7585 11.3559 21.7788H11.3557ZM9.75172 19.9305C9.74746 19.9262 9.74397 19.9212 9.7414 19.9158L9.74054 19.9143C9.73668 19.9058 9.73529 19.8964 9.73653 19.8871C9.73777 19.8778 9.7416 19.8691 9.74758 19.8619C9.87172 19.7133 10.006 19.5733 10.1494 19.4431C10.1946 19.4497 10.2402 19.453 10.2858 19.4531C10.44 19.4516 10.5923 19.4179 10.7327 19.3541C11.0537 19.2134 11.2849 19.0637 11.4196 18.9092C11.4349 18.8915 11.4488 18.8726 11.4612 18.8527C11.7456 18.9332 11.952 19.1859 12.0541 19.3384C12.0831 19.3814 12.1004 19.4313 12.1042 19.483C12.1081 19.5347 12.0984 19.5866 12.0761 19.6334C12.0151 19.7589 11.8663 19.9697 11.5036 20.2616C10.7999 20.8281 10.044 20.2187 9.75172 19.9305ZM10.6111 20.6985C10.5482 20.7622 10.4962 20.8181 10.4578 20.8607C10.4515 20.8678 10.4456 20.875 10.44 20.8824C10.3407 20.7604 10.2476 20.6417 10.161 20.5265C10.3023 20.6046 10.4538 20.6625 10.6112 20.6985H10.6111ZM9.8859 19.3687C9.76871 19.4822 9.67324 19.5875 9.60222 19.6708C9.52469 19.5302 9.4646 19.3806 9.42328 19.2255C9.40414 19.1438 9.38545 19.0618 9.36722 18.9797C9.51029 19.145 9.68716 19.2776 9.8859 19.3687ZM9.29535 18.4848C9.29197 18.4793 9.2908 18.4727 9.29207 18.4663C9.29334 18.4599 9.29697 18.4543 9.30222 18.4505C9.49176 18.3174 9.9909 18.0001 10.5315 17.9299C10.5614 17.926 10.5916 17.924 10.6217 17.924C11.0225 17.924 11.2097 18.2936 11.2875 18.5249C11.3008 18.5639 11.3037 18.6056 11.2959 18.646C11.2881 18.6865 11.2699 18.7241 11.243 18.7554C11.1661 18.8435 10.9988 18.9817 10.6386 19.1396C10.5281 19.1897 10.4084 19.2162 10.2871 19.2174C9.78496 19.2171 9.43754 18.7291 9.29535 18.4848ZM12.2489 19.2081C12.1289 19.0288 11.8847 18.7329 11.5333 18.6297C11.5371 18.5689 11.5292 18.5078 11.5098 18.45C11.4962 18.4097 11.4818 18.3719 11.4669 18.3356C11.9001 18.7827 12.4067 19.3011 12.9579 19.8563C12.7679 19.7277 12.5413 19.664 12.312 19.6748C12.3378 19.5974 12.3455 19.515 12.3346 19.4341C12.3236 19.3532 12.2943 19.2759 12.2489 19.2081ZM13.3938 20.294C13.5431 20.4432 13.6946 20.594 13.8485 20.7465C13.7307 20.6711 13.5994 20.6193 13.4618 20.5942C13.4712 20.4895 13.4474 20.3845 13.3938 20.2941V20.294ZM14.2873 21.1797C14.3922 21.2827 14.4978 21.386 14.6039 21.4896C14.5278 21.469 14.4495 21.4572 14.3706 21.4544C14.3704 21.3567 14.3414 21.2611 14.2873 21.1797ZM13.4445 23.5951C13.5505 23.619 13.6588 23.6312 13.7675 23.6316C14.0464 23.6316 14.3453 23.5477 14.6435 23.3203C14.9872 23.0582 15.2233 22.8168 15.3462 22.6024C15.5719 22.6958 15.7315 22.8863 15.8112 23.0002C15.8378 23.0387 15.8528 23.0839 15.8546 23.1306C15.8564 23.1773 15.8448 23.2235 15.8212 23.2638C15.7552 23.3845 15.5972 23.5888 15.2196 23.8768C14.483 24.4386 13.7375 23.8891 13.4512 23.6268C13.4469 23.6229 13.4439 23.6177 13.4427 23.612C13.4415 23.6063 13.4421 23.6004 13.4445 23.5951V23.5951ZM15.4191 22.2769C15.509 22.3629 15.599 22.4485 15.6891 22.534C15.6069 22.4703 15.5163 22.4184 15.4199 22.3797C15.4231 22.3455 15.4228 22.311 15.4191 22.2768V22.2769ZM14.5423 24.3543C14.6713 24.3544 14.7996 24.3346 14.9227 24.2957C14.9203 24.3297 14.9257 24.3638 14.9383 24.3954C14.951 24.4271 14.9706 24.4555 14.9957 24.4785C15.103 24.5767 15.3544 24.7802 15.6728 24.8699C15.3153 24.8347 15.0223 24.7907 14.8675 24.7242C14.5888 24.5977 14.3219 24.4466 14.07 24.2727C14.2219 24.3256 14.3815 24.3531 14.5423 24.3542V24.3543ZM16.0032 22.866C15.9709 22.8199 15.9362 22.7754 15.8992 22.7329C16.1001 22.9223 16.3003 23.1091 16.4996 23.2933C16.3493 23.2742 16.1965 23.2949 16.0566 23.3534C16.0488 23.3567 16.041 23.3605 16.0332 23.3639C16.0743 23.2861 16.0932 23.1985 16.0879 23.1107C16.0826 23.0229 16.0534 22.9382 16.0033 22.8658L16.0032 22.866ZM16.6271 24.6834C16.7971 24.5604 16.9494 24.4145 17.0795 24.2498C17.0987 24.2408 17.118 24.2316 17.137 24.2238C17.3957 24.1167 17.5756 24.2736 17.6809 24.4241C17.6904 24.4382 17.6957 24.4548 17.6962 24.4719C17.6967 24.4889 17.6923 24.5058 17.6836 24.5204C17.6458 24.5895 17.5586 24.7029 17.357 24.8515C17.2876 24.9027 16.9338 25.1271 16.4887 24.7753C16.5368 24.7477 16.5831 24.7169 16.6271 24.6832L16.6271 24.6834ZM17.1977 23.9641C17.1981 23.9527 17.1989 23.9413 17.1984 23.9299C17.2094 23.9397 17.2203 23.9494 17.2312 23.9593C17.2201 23.9603 17.2089 23.962 17.1977 23.9639L17.1977 23.9641ZM17.8891 24.6329C17.901 24.6106 17.9105 24.587 17.9171 24.5626C18.1719 24.7822 18.4194 24.99 18.6568 25.1829C18.2814 25.1096 17.9024 25.0554 17.5214 25.0206C17.6971 24.8875 17.8212 24.7571 17.8893 24.6328L17.8891 24.6329ZM10.8594 17.3672C13.2982 19.1579 18.9762 24.6744 19.2982 24.9878C19.3568 25.1107 19.4209 25.232 19.4919 25.3511C19.4953 25.3566 19.4975 25.3628 19.4983 25.3692C19.499 25.3756 19.4984 25.3821 19.4964 25.3883C19.4908 25.4032 19.4801 25.4157 19.4662 25.4234C19.3886 25.3898 19.3061 25.3588 19.2194 25.33C16.6323 23.3272 12.5002 19.0826 10.8594 17.3672ZM11.7632 17.7721C11.8227 17.7955 11.8834 17.8155 11.9451 17.8321C11.9853 17.8429 12.0267 17.8484 12.0684 17.8484C12.0875 17.8482 12.1066 17.8469 12.1256 17.8445C12.2498 18.1889 12.5607 18.4148 12.7474 18.5235C12.8296 18.5714 12.923 18.5966 13.0182 18.5966C13.0865 18.5966 13.1541 18.5833 13.2174 18.5576C13.2208 18.7962 13.3041 19.0268 13.454 19.2125C12.8045 18.6392 12.2408 18.1591 11.7632 17.7722L11.7632 17.7721ZM13.8679 19.5804L13.8685 19.5808C13.9473 19.629 14.0378 19.6545 14.1302 19.6544C14.1554 19.6544 14.1805 19.6525 14.2054 19.6487C14.2448 19.8067 14.319 19.9538 14.4225 20.0795C14.232 19.9069 14.0471 19.7406 13.8678 19.5805L13.8679 19.5804ZM14.7575 20.3838C14.7827 20.4009 14.8071 20.4168 14.8296 20.4307C14.9083 20.4789 14.9989 20.5044 15.0913 20.5043C15.1007 20.5043 15.1102 20.5038 15.1196 20.5033C15.1286 20.5958 15.15 20.6866 15.1833 20.7734C15.0385 20.6404 14.8965 20.5106 14.7575 20.3839L14.7575 20.3838ZM17.0952 22.5552C16.7378 22.2177 16.3566 21.8602 15.9639 21.495C15.9856 21.4979 16.0074 21.4993 16.0293 21.4993C16.0556 21.4993 16.0818 21.4972 16.1078 21.4931C16.2391 21.7743 16.4845 21.9572 16.629 22.0456C16.7035 22.0912 16.7893 22.1153 16.8766 22.1152C16.9653 22.1149 17.0523 22.0907 17.1284 22.0453C17.1255 22.0533 17.1223 22.0611 17.1195 22.0692C17.0643 22.2254 17.0558 22.3943 17.0952 22.5552L17.0952 22.5552ZM17.7464 23.1724C17.7503 23.1724 17.7543 23.1731 17.7582 23.1731C17.7717 23.1729 17.7851 23.1719 17.7986 23.1703C17.7968 23.1865 17.7958 23.2026 17.7953 23.2187L17.7464 23.1724ZM18.4527 23.8467C18.472 23.8393 18.4905 23.8301 18.508 23.8193C18.6091 23.7561 18.7177 23.6449 18.8315 23.4889C18.8904 23.8146 18.973 24.1355 19.0789 24.449C18.9132 24.289 18.7012 24.0848 18.4527 23.8466L18.4527 23.8467ZM18.1804 20.9447C18.1558 20.921 18.1262 20.9031 18.0937 20.8924C18.0612 20.8818 18.0268 20.8786 17.9929 20.8831C18.052 20.6473 18.0467 20.3999 17.9777 20.1668C18.2615 20.4771 18.4327 20.7061 18.4761 20.8393C18.5384 21.0302 18.576 21.2853 18.6075 21.5815C18.5132 21.3406 18.3674 21.1233 18.1803 20.9446L18.1804 20.9447ZM18.0173 21.1177C18.0181 21.1169 18.019 21.1162 18.0199 21.1155C18.2316 21.3206 18.6754 21.8541 18.2887 22.4276C18.0864 22.7276 17.9392 22.8561 17.8512 22.9111C17.8253 22.9285 17.795 22.9381 17.7638 22.9388C17.7326 22.9396 17.7019 22.9315 17.6751 22.9155C17.4899 22.8022 17.2003 22.5517 17.3409 22.1462C17.5066 21.6679 17.8691 21.2675 18.0173 21.1176L18.0173 21.1177ZM13.7556 17.7172C13.4848 18.097 13.2824 18.2579 13.1604 18.3259C13.115 18.3508 13.064 18.3634 13.0123 18.3626C12.9606 18.3617 12.91 18.3475 12.8654 18.3213C12.7066 18.2287 12.4414 18.0382 12.3438 17.7597C12.3627 17.7463 12.3806 17.7315 12.3973 17.7154C12.5438 17.572 12.6798 17.3326 12.8014 17.0038C12.8729 16.8193 12.8899 16.6181 12.8504 16.4242C12.9369 16.3167 13.0309 16.2154 13.1316 16.1211C13.1693 16.0862 13.2187 16.0669 13.2701 16.067C13.3214 16.0672 13.3707 16.0868 13.4082 16.1218C13.7399 16.4345 14.2259 17.0577 13.7557 17.7171L13.7556 17.7172ZM12.9721 15.9495C12.8984 16.0181 12.8276 16.0919 12.7591 16.1692C12.7195 16.0922 12.6719 16.0196 12.617 15.9526C12.5407 15.8602 12.4549 15.7763 12.3609 15.702C12.5869 15.7487 12.8072 15.8193 13.0183 15.9127C13.0021 15.9239 12.9867 15.9361 12.9722 15.9494L12.9721 15.9495ZM12.5815 16.9225C12.4451 17.2912 12.3168 17.4661 12.2332 17.548C12.2036 17.5765 12.1671 17.5969 12.1272 17.607C12.0874 17.6172 12.0456 17.6168 12.0059 17.606C11.7528 17.5377 11.3329 17.3536 11.3653 16.8884C11.4002 16.3869 11.6153 15.9132 11.7407 15.6755C11.7449 15.6673 11.7506 15.6599 11.7577 15.6539C11.7647 15.6479 11.7728 15.6434 11.7816 15.6405C11.7904 15.6376 11.7997 15.6366 11.8089 15.6373C11.8181 15.638 11.8271 15.6406 11.8353 15.6448C12.7296 16.0944 12.6868 16.6382 12.5817 16.9224L12.5815 16.9225ZM8.80336 17.2425C8.88992 17.7859 9.02367 18.5474 9.19488 19.2789C9.24254 19.4825 9.35836 19.7352 9.53379 20.0255C9.54001 20.0374 9.54705 20.0488 9.55488 20.0597C9.9425 20.6909 10.6046 21.4938 11.4578 22.3545C12.6933 23.6009 13.9643 24.5914 14.7748 24.9394C15.0719 25.067 15.714 25.114 16.4577 25.1684C17.4391 25.2403 18.6605 25.3297 19.3727 25.6386C19.4013 25.6511 19.4322 25.6574 19.4633 25.6574C19.497 25.6573 19.5302 25.6502 19.561 25.6366C19.5972 25.6201 19.6297 25.5966 19.6565 25.5672C19.6834 25.5379 19.704 25.5035 19.7172 25.466C19.7306 25.4275 19.7354 25.3865 19.7312 25.3459C19.727 25.3054 19.714 25.2663 19.693 25.2313C19.083 24.2083 18.9724 22.9891 18.8836 22.0095C18.838 21.5074 18.7987 21.0736 18.6986 20.7667C18.6056 20.4815 18.0982 19.9229 17.4364 19.283C17.4275 19.2741 17.4191 19.2658 17.4116 19.2586C17.4104 19.2574 17.4091 19.2565 17.4077 19.2553C16.5416 18.4203 15.4208 17.4525 14.6163 16.7741L14.4293 16.6233C13.7399 15.9578 12.7408 15.2254 11.1181 15.4319C10.2974 15.5361 9.67941 15.4575 9.30558 15.3733C9.29847 15.3717 9.29187 15.3701 9.28492 15.3684C9.5834 15.3606 9.95933 15.328 10.4053 15.2704C10.7477 15.2252 11.087 15.1601 11.4218 15.0755C12.1339 14.9045 12.3253 14.8586 13.5277 15.7034C15.2184 16.8913 18.6632 19.7106 18.9321 20.4456C19.0529 20.7756 19.0535 21.228 19.0541 21.7069C19.0548 22.3255 19.0556 22.9651 19.2962 23.5124C19.5976 24.1978 19.9537 24.9968 20.1392 25.4123C20.1419 25.4182 20.1434 25.4247 20.1434 25.4313C20.1434 25.4378 20.1419 25.4443 20.1392 25.4502C20.1362 25.4569 20.1318 25.4628 20.1263 25.4676C20.1209 25.4723 20.1144 25.4759 20.1075 25.4779C19.97 25.5214 19.8883 25.632 19.8774 25.7895C19.8648 25.9019 19.8149 26.0068 19.7357 26.0876C19.7276 26.0967 19.7163 26.1025 19.7042 26.1038C19.692 26.1051 19.6798 26.1019 19.6699 26.0947C19.2277 25.7647 18.1279 25.5537 17.2832 25.4349C16.4211 25.3138 15.6134 25.2583 15.1492 25.2583C15.0545 25.2583 14.9739 25.2606 14.9103 25.2651C14.6525 25.2847 13.651 24.9147 9.95629 21.0989C8.81902 19.9234 8.71488 18.1997 8.80355 17.2424L8.80336 17.2425ZM22.211 23.852C22.1557 23.873 22.108 23.9101 22.0741 23.9585C22.0402 24.0069 22.0217 24.0644 22.0209 24.1235C22.0035 25.2581 22.1644 25.9149 22.5131 26.1313C22.5944 26.1823 22.6885 26.209 22.7844 26.2084C22.9108 26.2044 23.0344 26.1704 23.145 26.1091C23.3787 25.989 23.5153 25.8243 23.551 25.6193C23.6396 25.1104 23.0611 24.4914 22.6387 24.0394C22.6025 24.0007 22.5676 23.9633 22.5344 23.9274C22.4943 23.8838 22.442 23.8533 22.3843 23.8399C22.3266 23.8264 22.2662 23.8307 22.211 23.852ZM23.3201 25.5793C23.2973 25.7098 23.2051 25.8149 23.0379 25.9008C22.8715 25.9863 22.7402 25.9967 22.6368 25.9324C22.4854 25.8384 22.2344 25.4788 22.2553 24.1271C22.2552 24.1148 22.259 24.1028 22.266 24.0927C22.2731 24.0826 22.2831 24.075 22.2947 24.0709C22.3022 24.0681 22.3101 24.0666 22.3181 24.0665C22.3265 24.0666 22.3347 24.0684 22.3423 24.0718C22.3499 24.0753 22.3566 24.0804 22.3621 24.0867C22.3956 24.1229 22.4309 24.1606 22.4673 24.1996C22.8343 24.5922 23.3887 25.1854 23.3201 25.5793H23.3201ZM27.3327 23.3184C27.3223 23.2602 27.2947 23.2065 27.2535 23.1641C27.2122 23.1218 27.1593 23.0927 27.1014 23.0807C27.0435 23.0687 26.9834 23.0743 26.9287 23.0968C26.874 23.1192 26.8273 23.1576 26.7946 23.2068C26.1671 24.1531 25.948 24.7929 26.1248 25.1631C26.2146 25.3506 26.3975 25.4589 26.669 25.4845C26.705 25.4879 26.7399 25.4896 26.7736 25.4896C26.9856 25.4896 27.1542 25.4228 27.2755 25.2904C27.6246 24.9093 27.4717 24.0768 27.3601 23.469C27.3505 23.4168 27.3413 23.3665 27.3327 23.3184ZM27.1027 25.132C27.013 25.2296 26.8781 25.2687 26.691 25.2511C26.5047 25.2335 26.3886 25.1717 26.3362 25.062C26.2595 24.9013 26.2425 24.4635 26.99 23.3363C26.9952 23.3277 27.0026 23.3207 27.0114 23.3159C27.0202 23.311 27.0301 23.3086 27.0401 23.3087C27.0447 23.3087 27.0493 23.3092 27.0538 23.3101C27.066 23.3123 27.0772 23.3182 27.0858 23.3271C27.0944 23.3359 27.1001 23.3473 27.102 23.3595C27.1106 23.408 27.1199 23.4587 27.1296 23.5112C27.2266 24.039 27.373 24.8368 27.1027 25.132ZM25.3339 23.6227C25.3645 23.6283 25.3956 23.6311 25.4267 23.6311C25.5976 23.6311 25.7609 23.5436 25.9131 23.3701C26.0862 23.1729 26.1526 22.9696 26.1106 22.7661C26.0061 22.26 25.24 21.8964 24.6806 21.6309C24.6327 21.6082 24.5864 21.5862 24.5423 21.565C24.489 21.5393 24.4293 21.5301 24.3708 21.5387C24.3123 21.5473 24.2577 21.5732 24.214 21.6131C24.1704 21.653 24.1397 21.7051 24.126 21.7626C24.1122 21.8201 24.116 21.8804 24.1369 21.9358C24.5384 22.9976 24.9299 23.5494 25.3339 23.6227ZM24.372 21.7863C24.3831 21.7758 24.3978 21.7699 24.4131 21.7695C24.4226 21.7697 24.432 21.7719 24.4405 21.7762C24.4849 21.7976 24.5316 21.8198 24.5799 21.8426C25.0657 22.0731 25.8 22.4217 25.8809 22.8134C25.9077 22.9429 25.8605 23.0744 25.7368 23.2155C25.6135 23.3559 25.4952 23.4138 25.3755 23.392C25.2 23.3602 24.8343 23.1179 24.356 21.8529C24.3514 21.8416 24.3504 21.829 24.3533 21.8171C24.3562 21.8051 24.3627 21.7944 24.372 21.7863ZM22.4889 23.0129C22.3949 23.2577 22.403 23.4712 22.5127 23.6476C22.7859 24.0865 23.6308 24.1633 24.2477 24.2192C24.3005 24.2239 24.3516 24.2286 24.4003 24.2333C24.41 24.2342 24.4197 24.2347 24.4293 24.2347C24.4859 24.2346 24.5414 24.2183 24.589 24.1876C24.6367 24.157 24.6745 24.1133 24.6981 24.0617C24.7216 24.0101 24.7298 23.9529 24.7217 23.8968C24.7136 23.8407 24.6896 23.7881 24.6525 23.7453C23.9076 22.8874 23.3488 22.5049 22.9445 22.5759C22.7397 22.6119 22.5864 22.759 22.4889 23.0129ZM24.4755 23.899C24.4837 23.908 24.4889 23.9194 24.4904 23.9316C24.4919 23.9438 24.4895 23.9561 24.4836 23.9668C24.4782 23.978 24.4694 23.9872 24.4585 23.9931C24.4476 23.9991 24.4351 24.0015 24.4228 24C24.3736 23.9952 24.3222 23.9906 24.2689 23.9857C23.733 23.9371 22.9232 23.8636 22.7117 23.5238C22.6418 23.4115 22.6405 23.2719 22.7078 23.0969C22.7747 22.9227 22.8654 22.8278 22.9851 22.8068C23.1605 22.7759 23.5879 22.8766 24.4755 23.899ZM25.7344 24.1054C25.7379 24.0464 25.7235 23.9877 25.6933 23.9369C25.6631 23.8861 25.6183 23.8455 25.5648 23.8203C25.5113 23.7952 25.4515 23.7867 25.393 23.7958C25.3346 23.805 25.2803 23.8314 25.2371 23.8718C24.5183 24.5419 24.1504 25.0599 24.1199 25.4471C23.7559 25.537 23.725 25.8651 23.7362 26.1138C23.748 26.3755 23.8409 26.5681 24.0121 26.6859C24.1482 26.7797 24.3228 26.8161 24.5167 26.8161C24.9302 26.8161 25.4312 26.65 25.8314 26.5174C25.8817 26.5007 25.9303 26.4845 25.9768 26.4694C26.033 26.4511 26.0825 26.4164 26.1188 26.3698C26.1551 26.3231 26.1766 26.2666 26.1805 26.2076C26.1844 26.1486 26.1704 26.0898 26.1405 26.0388C26.1106 25.9878 26.0661 25.9469 26.0127 25.9215C25.8205 25.8299 25.6461 25.7535 25.4807 25.6879C25.67 25.2991 25.7014 24.716 25.726 24.2582C25.7286 24.2054 25.7313 24.1543 25.7344 24.1054ZM25.9118 26.133C25.9228 26.1383 25.9321 26.1468 25.9383 26.1573C25.9445 26.1679 25.9474 26.1801 25.9466 26.1924C25.9457 26.2046 25.9413 26.2163 25.9337 26.226C25.9261 26.2356 25.9159 26.2428 25.9042 26.2465C25.8573 26.2618 25.8082 26.2781 25.7575 26.2949C25.2468 26.4642 24.4751 26.72 24.145 26.4929C24.0359 26.4178 23.9788 26.2904 23.9703 26.1032C23.9602 25.8786 23.9884 25.7377 24.1482 25.6834C24.2082 25.8536 24.3543 25.9795 24.5842 26.0578C24.6789 26.0917 24.7785 26.1098 24.879 26.1113C25.0001 26.1129 25.1188 26.0775 25.2192 26.0097C25.2688 25.9757 25.3135 25.935 25.352 25.8889C25.5245 25.9563 25.7078 26.0359 25.9116 26.1331L25.9118 26.133ZM25.4919 24.2457C25.4632 24.7816 25.4197 25.5915 25.088 25.8157C24.9779 25.8899 24.838 25.8967 24.6598 25.836C24.4828 25.7756 24.3844 25.6886 24.359 25.5699C24.3218 25.3958 24.4071 24.9661 25.397 24.0432C25.4078 24.0324 25.4225 24.0263 25.4378 24.0262C25.4473 24.0263 25.4567 24.0285 25.4653 24.0325C25.4766 24.0375 25.4861 24.0459 25.4924 24.0565C25.4987 24.0671 25.5015 24.0794 25.5005 24.0917C25.4973 24.1409 25.4946 24.1924 25.4917 24.2457L25.4919 24.2457Z" fill="black"/>
</svg>
