<svg width="36" height="36" viewBox="0 0 36 36" fill="none" xmlns="http://www.w3.org/2000/svg">
<rect width="36" height="36" rx="18" fill="#EFEFEF"/>
<path d="M26.3906 11.6339C26.1958 11.1746 25.6256 10.2084 25.5126 10.0193C25.5099 10.0146 25.5058 10.0106 25.5029 10.0061C25.5017 10.0043 25.5017 10.0022 25.5005 10.0004C25.4988 9.99795 25.496 9.99681 25.4943 9.99435C25.4877 9.98525 25.482 9.97556 25.4742 9.96701C25.4697 9.96197 25.4621 9.96271 25.4572 9.95806C25.4137 9.91658 25.3626 9.88736 25.3054 9.87834C25.3006 9.87764 25.2966 9.87892 25.2918 9.87838C25.2355 9.87217 25.1787 9.88334 25.126 9.91123C25.1211 9.91381 25.1151 9.9115 25.1102 9.91439C25.1066 9.91658 25.1039 9.91974 25.1004 9.92209C25.0992 9.92283 25.0978 9.92283 25.0967 9.92365C25.091 9.92721 24.8472 10.0929 24.5365 10.2542C24.1973 10.4306 23.8248 10.5212 23.453 10.5006C22.7441 10.4786 21.4224 10.652 20.5828 12.1899C20.2757 12.7526 19.7396 13.1532 19.1132 13.2901C18.2743 13.4724 17.1019 13.9154 16.279 14.9904C15.8908 15.498 15.3014 15.8456 14.6196 15.9701C13.1689 16.2349 11.3751 16.8872 11.0324 18.4919C10.8234 18.9014 10.1921 19.8648 9.51768 19.8882C9.38296 19.8925 9.26921 19.9885 9.24217 20.1207C9.21549 20.2522 9.28198 20.3852 9.40393 20.4428C9.47538 20.4762 11.1717 21.2647 12.9541 21.505C13.156 21.532 13.3587 21.5455 13.5609 21.5455C14.5292 21.5455 15.4862 21.2383 16.2562 20.6681C16.6598 20.3695 17.2747 20.0188 17.9949 19.8625C17.9858 19.8691 17.9785 19.8774 17.9692 19.8839C16.7603 20.7293 15.4016 22.0701 15.7592 23.6712C15.7407 24.1305 15.5694 25.2681 14.9636 25.5716C14.8435 25.632 14.7798 25.7664 14.8104 25.8979C14.841 26.0288 14.9569 26.1219 15.0916 26.1233C15.0958 26.1233 15.1062 26.1233 15.1218 26.1233C15.382 26.1233 17.1385 26.1042 18.7612 25.61C19.8881 25.2666 20.855 24.4881 21.4146 23.4729C21.6947 22.9653 22.186 22.2649 22.9346 21.8135C23.8076 21.286 24.456 20.6482 24.862 19.9181C25.2005 19.3102 25.3803 18.6874 25.3953 18.067C25.4144 17.3038 25.637 16.5676 26.0664 15.8958C26.8634 14.6285 26.9849 13.0352 26.3906 11.6339ZM15.9099 20.2003C15.099 20.7996 14.0479 21.0677 13.0319 20.9276C12.0024 20.789 10.9805 20.447 10.3338 20.1988C11.0739 19.7197 11.546 18.7684 11.5716 18.7158C11.5826 18.693 11.5908 18.6688 11.5958 18.644C11.8535 17.3322 13.4393 16.7773 14.724 16.5431C15.5487 16.3927 16.2654 15.9668 16.7417 15.3444C17.457 14.4095 18.4932 14.0206 19.2369 13.8588C20.0289 13.6864 20.7057 13.1799 21.0939 12.4693C21.748 11.2706 22.722 11.0502 23.4287 11.0829C23.6482 11.0907 23.8645 11.0696 24.0762 11.0265C23.9615 11.1025 23.8468 11.1796 23.7202 11.2315C23.5109 11.3172 23.2549 11.4551 22.9989 11.6493C22.5685 11.7565 22.144 12.0194 21.7963 12.4053C21.0548 13.2282 20.9282 14.2829 21.5105 14.8076C21.5257 14.8211 21.546 14.8267 21.5619 14.8392C21.4115 15.1242 21.2014 15.3771 20.9374 15.5751C20.844 15.6453 20.7466 15.724 20.6479 15.8083C20.6134 15.703 20.5691 15.6024 20.5038 15.5137C20.2685 15.1948 19.8696 15.0369 19.3932 15.0604C18.9574 15.0846 18.4932 15.263 18.0858 15.5634C17.1939 16.2207 16.8583 17.2285 17.3222 17.8577C17.5476 18.1634 17.9144 18.3156 18.3346 18.3156C18.5817 18.3156 18.8472 18.2573 19.1133 18.1522C19.0997 18.2029 19.0815 18.25 19.0697 18.302C19.0017 18.6019 18.873 18.8861 18.6976 19.1458C18.5536 19.1721 18.4088 19.1972 18.2635 19.2142C17.2664 19.3279 16.4332 19.8128 15.9099 20.2003ZM21.8141 13.9637C21.809 14.0374 21.7879 14.107 21.7756 14.179C21.6743 13.9135 21.7483 13.5265 21.9702 13.1517C21.8957 13.3965 21.8357 13.6593 21.8141 13.9637ZM19.4401 17.3037L19.3947 17.339C18.7861 17.7865 18.0517 17.8672 17.7911 17.5121C17.5301 17.1581 17.8234 16.4802 18.4313 16.0322C18.7441 15.8019 19.1067 15.6597 19.4253 15.6419C19.5938 15.6341 19.881 15.6501 20.0346 15.8595C20.1432 16.0065 20.1384 16.1887 20.109 16.3343C19.8632 16.6101 19.6317 16.9342 19.4401 17.3037ZM25.5481 15.6249C25.0888 16.3437 24.835 17.1833 24.8137 18.0525C24.8002 18.5772 24.6452 19.1097 24.353 19.6351C23.9975 20.2757 23.4188 20.8409 22.6332 21.3144C21.7751 21.8327 21.2191 22.6211 20.9041 23.1913C20.4178 24.0751 19.5746 24.7533 18.5921 25.0526C17.5981 25.3555 16.5264 25.4707 15.8353 25.514C16.3081 24.7697 16.3412 23.7089 16.3426 23.6499C16.3433 23.625 16.3404 23.5994 16.3348 23.5745C16.0223 22.2749 17.2327 21.1096 18.3027 20.3617C18.6023 20.1526 18.8524 19.8986 19.0637 19.6218C19.0846 19.6021 19.1036 19.5817 19.1178 19.557C19.3648 19.2154 19.5454 18.8358 19.6372 18.4314C19.8982 17.2839 20.6788 16.4979 21.2874 16.0408C21.6908 15.7381 21.9852 15.3295 22.1745 14.8739C22.1828 14.8601 22.1978 14.8529 22.2038 14.8375C22.2117 14.8175 22.2114 14.7971 22.2147 14.7767C22.3067 14.5295 22.3769 14.2735 22.3958 14.0046C22.4918 12.6424 23.2888 12.0377 23.9407 11.7704C24.378 11.5916 24.7655 11.2951 25.0619 10.9137C25.1217 10.8372 25.1792 10.7619 25.2319 10.6922C25.4402 11.053 25.7345 11.5777 25.8547 11.8613C26.3742 13.0871 26.269 14.4795 25.5481 15.6249Z" fill="black"/>
<path d="M13.4123 17.559C12.4095 18.0297 11.8837 18.9525 12.2151 19.6606C12.4234 20.1049 12.9129 20.3431 13.4966 20.3431C13.8428 20.3431 14.2225 20.2592 14.5957 20.0844C14.5961 20.0844 14.5961 20.0844 14.5961 20.0844C15.5993 19.6137 16.125 18.6901 15.7934 17.9828C15.4613 17.2753 14.4162 17.089 13.4123 17.559ZM14.349 19.5568C13.6644 19.8775 12.9289 19.8121 12.7426 19.4132C12.556 19.0151 12.9758 18.4072 13.6594 18.0865C13.952 17.9493 14.2538 17.8832 14.5182 17.8832C14.8723 17.8832 15.1592 18.0023 15.2658 18.2301C15.4528 18.6283 15.033 19.2362 14.349 19.5568ZM11.1475 13.8783C11.2844 13.9071 11.428 13.9213 11.5759 13.9213C11.8891 13.9213 12.2204 13.8574 12.5407 13.7322C13.012 13.5481 13.4109 13.2509 13.664 12.8954C13.9434 12.5026 14.018 12.0835 13.8737 11.7146C13.7297 11.3456 13.3906 11.0878 12.9193 10.9887C12.4916 10.8994 11.9971 10.9513 11.5261 11.1351C11.0548 11.3192 10.6559 11.6161 10.4028 11.9715C10.1234 12.3644 10.0487 12.7835 10.1931 13.1524C10.3371 13.5214 10.6762 13.7792 11.1475 13.8783ZM10.8774 12.3096C11.0626 12.049 11.3765 11.8187 11.738 11.6776C11.989 11.5794 12.252 11.5286 12.4941 11.5286C12.6007 11.5286 12.7035 11.5386 12.7995 11.5585C12.9573 11.5919 13.2363 11.6836 13.3312 11.9264C13.4262 12.1692 13.2832 12.4258 13.1894 12.5577C13.0042 12.8179 12.6903 13.0483 12.3288 13.1897C11.9673 13.3316 11.5798 13.3746 11.2677 13.3085C11.1095 13.2751 10.8304 13.1834 10.7355 12.9406C10.6406 12.6978 10.7836 12.4411 10.8774 12.3096Z" fill="black"/>
<path d="M11.5187 12.7248C11.5645 12.7248 11.6114 12.7142 11.6548 12.691L12.428 12.2805C12.5702 12.2048 12.6242 12.0284 12.5488 11.8866C12.4731 11.7451 12.2972 11.6904 12.155 11.7657L11.3818 12.1763C11.2396 12.252 11.1856 12.4284 11.2609 12.5702C11.3136 12.6687 11.4142 12.7248 11.5187 12.7248ZM16.638 13.4035C16.9444 13.4035 17.2754 13.342 17.6063 13.2126C18.0777 13.0284 18.4769 12.7312 18.73 12.3758C19.0094 11.983 19.0833 11.5639 18.939 11.1949C18.656 10.4668 17.6237 10.2123 16.5917 10.6154C16.1204 10.7996 15.7215 11.0964 15.4684 11.4519C15.189 11.8447 15.1143 12.2638 15.2587 12.6328C15.4521 13.1273 15.9896 13.4035 16.638 13.4035ZM15.943 11.7899C16.1282 11.5293 16.4421 11.299 16.8036 11.1579C17.0638 11.0562 17.3276 11.0079 17.5647 11.0079C17.9689 11.0079 18.2956 11.1487 18.3973 11.4068C18.4918 11.6496 18.3489 11.9066 18.2551 12.0381C18.0699 12.2983 17.7563 12.5286 17.3945 12.6701C16.6917 12.9456 15.9611 12.8308 15.8012 12.4209C15.7063 12.1781 15.8492 11.9214 15.943 11.7899Z" fill="black"/>
<path d="M16.5846 12.205C16.6305 12.205 16.6774 12.1944 16.7207 12.1709L17.4935 11.7603C17.6357 11.685 17.6898 11.5086 17.6141 11.3668C17.5391 11.2253 17.3631 11.1691 17.2205 11.2463L16.4477 11.6569C16.3055 11.7322 16.2515 11.9086 16.3272 12.0504C16.3795 12.1489 16.4801 12.205 16.5846 12.205Z" fill="black"/>
</svg>
