<svg width="36" height="36" viewBox="0 0 36 36" fill="none" xmlns="http://www.w3.org/2000/svg">
<rect width="36" height="36" rx="18" fill="#EFEFEF"/>
<g clip-path="url(#clip0_7502_10985)">
<path d="M18 8.31254C15.903 8.30637 13.8616 8.98671 12.1875 10.2497C12.1539 10.274 12.1254 10.3048 12.1038 10.3402C12.0822 10.3757 12.0678 10.4151 12.0616 10.4561C12.0554 10.4972 12.0574 10.5391 12.0676 10.5794C12.0777 10.6196 12.0958 10.6575 12.1207 10.6907C12.1457 10.7239 12.177 10.7518 12.2129 10.7727C12.2487 10.7937 12.2884 10.8073 12.3296 10.8127C12.3707 10.8182 12.4126 10.8154 12.4526 10.8045C12.4927 10.7936 12.5302 10.7748 12.5629 10.7492C14.1289 9.56798 16.0385 8.9317 18 8.93754C22.997 8.93754 27.0625 13.0029 27.0625 18C27.0625 22.9972 22.997 27.0625 18 27.0625C13.0031 27.0625 8.93755 22.9972 8.93755 18C8.93377 16.7941 9.1725 15.5997 9.63956 14.4879C10.1066 13.3761 10.7924 12.3695 11.6563 11.528C11.687 11.4996 11.7118 11.4654 11.729 11.4273C11.7463 11.3891 11.7557 11.348 11.7567 11.3061C11.7577 11.2643 11.7504 11.2227 11.735 11.1838C11.7197 11.1449 11.6967 11.1094 11.6674 11.0796C11.6381 11.0497 11.6031 11.026 11.5645 11.0099C11.5258 10.9939 11.4844 10.9857 11.4426 10.9859C11.4007 10.9862 11.3594 10.9948 11.3209 11.0113C11.2825 11.0278 11.2478 11.0519 11.2188 11.0821C10.2954 11.9815 9.56229 13.0574 9.06302 14.2459C8.56376 15.4343 8.30854 16.711 8.31255 18C8.31255 23.3417 12.6582 27.6875 18 27.6875C23.3418 27.6875 27.6875 23.3417 27.6875 18C27.6875 12.6584 23.3418 8.31254 18 8.31254Z" fill="black"/>
<path d="M16.0335 13.8465L16.4376 13.4422V16.4383C16.4376 16.5212 16.4705 16.6007 16.5291 16.6593C16.5877 16.7179 16.6672 16.7508 16.7501 16.7508C16.8329 16.7508 16.9124 16.7179 16.971 16.6593C17.0296 16.6007 17.0626 16.5212 17.0626 16.4383V12.6876C17.0625 12.6258 17.0442 12.5654 17.0099 12.514C16.9755 12.4626 16.9267 12.4226 16.8696 12.3989C16.8125 12.3753 16.7497 12.3691 16.6891 12.3811C16.6285 12.3932 16.5728 12.4229 16.5291 12.4666L15.5916 13.4045C15.5619 13.4334 15.5382 13.4679 15.5219 13.506C15.5057 13.5441 15.4971 13.585 15.4968 13.6264C15.4965 13.6679 15.5045 13.7089 15.5202 13.7473C15.5359 13.7856 15.5591 13.8204 15.5883 13.8497C15.6176 13.879 15.6525 13.9022 15.6908 13.9179C15.7291 13.9336 15.7702 13.9415 15.8116 13.9412C15.853 13.9409 15.894 13.9324 15.9321 13.9161C15.9702 13.8999 16.0046 13.8762 16.0335 13.8465Z" fill="black"/>
<path d="M18 25.8125C22.3079 25.8125 25.8125 22.3079 25.8125 18C25.8125 13.6921 22.3079 10.1875 18 10.1875C13.6921 10.1875 10.1875 13.6921 10.1875 18C10.1875 22.3079 13.6921 25.8125 18 25.8125ZM18 10.8125C21.8585 10.8125 25.0153 13.8689 25.1797 17.6875H23.3125C23.2296 17.6875 23.1501 17.7204 23.0915 17.779C23.0329 17.8376 23 17.9171 23 18C23 18.0829 23.0329 18.1624 23.0915 18.221C23.1501 18.2796 23.2296 18.3125 23.3125 18.3125H25.1797C25.0154 22.1311 21.8586 25.1875 18 25.1875C14.1414 25.1875 10.9847 22.1311 10.8203 18.3125H22.0625C22.1454 18.3125 22.2249 18.2796 22.2835 18.221C22.3421 18.1624 22.375 18.0829 22.375 18C22.375 17.9171 22.3421 17.8376 22.2835 17.779C22.2249 17.7204 22.1454 17.6875 22.0625 17.6875H10.8203C10.9847 13.8689 14.1415 10.8125 18 10.8125Z" fill="black"/>
<path d="M18.9375 16.751C19.6269 16.751 20.1875 16.1202 20.1875 15.3447C20.1875 14.5693 19.6269 13.9385 18.9375 13.9385C18.7145 13.9408 18.4971 14.0089 18.3125 14.1341V13.626C18.3125 13.4602 18.3783 13.3012 18.4956 13.184C18.6128 13.0668 18.7717 13.001 18.9375 13.001C19.1033 13.001 19.2622 13.0668 19.3794 13.184C19.4967 13.3012 19.5625 13.4602 19.5625 13.626C19.5625 13.7089 19.5954 13.7883 19.654 13.8469C19.7126 13.9056 19.7921 13.9385 19.875 13.9385C19.9579 13.9385 20.0374 13.9056 20.096 13.8469C20.1546 13.7883 20.1875 13.7089 20.1875 13.626C20.1875 13.2945 20.0558 12.9765 19.8214 12.7421C19.587 12.5077 19.269 12.376 18.9375 12.376C18.606 12.376 18.288 12.5077 18.0536 12.7421C17.8192 12.9765 17.6875 13.2945 17.6875 13.626V15.3447C17.6875 16.1202 18.2481 16.751 18.9375 16.751ZM18.9375 14.5635C19.282 14.5635 19.5625 14.914 19.5625 15.3447C19.5625 15.7755 19.282 16.126 18.9375 16.126C18.593 16.126 18.3125 15.7755 18.3125 15.3447C18.3125 14.9139 18.593 14.5635 18.9375 14.5635ZM18 20.1876C18.1657 20.1878 18.3246 20.2537 18.4417 20.3709C18.5589 20.488 18.6248 20.6469 18.625 20.8126C18.625 20.8955 18.6579 20.9749 18.7165 21.0335C18.7751 21.0922 18.8546 21.1251 18.9375 21.1251C19.0204 21.1251 19.0999 21.0922 19.1585 21.0335C19.2171 20.9749 19.25 20.8955 19.25 20.8126C19.25 20.5654 19.1767 20.3237 19.0393 20.1181C18.902 19.9126 18.7068 19.7523 18.4784 19.6577C18.2499 19.5631 17.9986 19.5384 17.7561 19.5866C17.5137 19.6348 17.2909 19.7539 17.1161 19.9287C16.9413 20.1035 16.8223 20.3262 16.774 20.5687C16.7258 20.8112 16.7505 21.0625 16.8452 21.2909C16.9398 21.5193 17.1 21.7146 17.3055 21.8519C17.5111 21.9893 17.7528 22.0626 18 22.0626C18.1236 22.0626 18.2445 22.0992 18.3472 22.1679C18.45 22.2366 18.5301 22.3342 18.5774 22.4484C18.6247 22.5626 18.6371 22.6883 18.613 22.8095C18.5889 22.9307 18.5294 23.0421 18.4419 23.1295C18.3545 23.2169 18.2432 23.2765 18.1219 23.3006C18.0007 23.3247 17.875 23.3123 17.7608 23.265C17.6466 23.2177 17.549 23.1376 17.4803 23.0348C17.4117 22.932 17.375 22.8112 17.375 22.6876C17.375 22.6047 17.3421 22.5252 17.2835 22.4666C17.2249 22.408 17.1454 22.3751 17.0625 22.3751C16.9796 22.3751 16.9001 22.408 16.8415 22.4666C16.7829 22.5252 16.75 22.6047 16.75 22.6876C16.75 22.9348 16.8233 23.1765 16.9607 23.382C17.098 23.5876 17.2932 23.7478 17.5216 23.8424C17.7501 23.937 18.0014 23.9618 18.2439 23.9136C18.4863 23.8653 18.7091 23.7463 18.8839 23.5715C19.0587 23.3966 19.1778 23.1739 19.226 22.9314C19.2742 22.689 19.2495 22.4376 19.1549 22.2092C19.0602 21.9808 18.9 21.7856 18.6945 21.6482C18.4889 21.5109 18.2472 21.4376 18 21.4376C17.8342 21.4376 17.6753 21.3717 17.5581 21.2545C17.4408 21.1373 17.375 20.9783 17.375 20.8126C17.375 20.6468 17.4408 20.4878 17.5581 20.3706C17.6753 20.2534 17.8342 20.1876 18 20.1876Z" fill="black"/>
</g>
<defs>
<clipPath id="clip0_7502_10985">
<rect width="20" height="20" fill="white" transform="translate(8 8)"/>
</clipPath>
</defs>
</svg>
