<svg width="36" height="36" viewBox="0 0 36 36" fill="none" xmlns="http://www.w3.org/2000/svg">
<rect width="36" height="36" rx="18" fill="#EFEFEF"/>
<g clip-path="url(#clip0_7502_10941)">
<path d="M18 27.0965C23.0239 27.0965 27.0965 23.0238 27.0965 18C27.0965 12.9761 23.0239 8.9035 18 8.9035C12.9762 8.9035 8.90356 12.9761 8.90356 18C8.90356 23.0238 12.9762 27.0965 18 27.0965Z" stroke="black" stroke-linecap="round" stroke-linejoin="round"/>
<path d="M21.4293 21.4293L24.4063 24.4062" stroke="black" stroke-linecap="round" stroke-linejoin="round"/>
<path d="M11.5938 11.5938L14.7883 14.7883" stroke="black" stroke-linecap="round" stroke-linejoin="round"/>
<path d="M16.814 15.3137C15.5972 16.3731 14.9332 18.0352 15.0851 19.6414M16.6949 21.6606C18.257 19.1957 19.8191 16.7309 21.3808 14.266C22.1066 14.8348 22.2312 15.8867 22.1336 16.8035C21.898 19.0125 20.6675 21.0961 18.8472 22.3692C18.3261 22.7336 17.7421 23.0399 17.1093 23.1012C15.9703 23.2117 14.8574 22.4707 14.3164 21.4621C13.7753 20.4539 13.7382 19.2356 13.982 18.1172C14.5445 15.5356 16.6289 13.3465 19.2117 12.8766C17.9628 15.2914 17.0824 17.8965 16.6953 21.6602L16.6949 21.6606Z" stroke="black" stroke-linecap="round" stroke-linejoin="round"/>
<path d="M16.6949 21.6606C18.257 19.1957 19.8191 16.7309 21.3808 14.266C22.1066 14.8348 22.2312 15.8867 22.1336 16.8035C21.898 19.0125 20.6675 21.0961 18.8472 22.3692C18.3261 22.7336 17.7421 23.0399 17.1093 23.1012C15.9703 23.2117 14.8574 22.4707 14.3164 21.4621C13.7753 20.4539 13.7382 19.2356 13.982 18.1172C14.5445 15.5356 16.6289 13.3465 19.2117 12.8766C17.9628 15.2914 17.0824 17.8965 16.6953 21.6602L16.6949 21.6606Z" stroke="black" stroke-linecap="round" stroke-linejoin="round"/>
<path d="M20.4918 15.6633C20.6281 15.4586 20.6582 15.1977 20.6234 14.9543C20.5887 14.711 20.4938 14.4809 20.3965 14.2551C20.3277 14.0965 20.2469 13.9274 20.0938 13.8473C19.9418 13.7676 19.7574 13.7969 19.5902 13.8344C19.1988 13.9227 18.5371 14.241 18.3965 14.6164M16.8141 15.3137C15.5973 16.3731 14.9332 18.0352 15.0852 19.6414" stroke="black" stroke-linecap="round" stroke-linejoin="round"/>
</g>
<defs>
<clipPath id="clip0_7502_10941">
<rect width="20" height="20" fill="white" transform="translate(8 8)"/>
</clipPath>
</defs>
</svg>
